STARTFONT 2.1
COMMENT
COMMENT Converted from OpenType font "Arial.ttf" by "otf2bdf 3.0".
COMMENT
FONT -FreeType-Arial-Medium-R-Normal--14-100-100-100-P-69-ISO10646-1
SIZE 10 100 100
FONTBOUNDINGBOX 25 19 -9 -5
STARTPROPERTIES 19
FOUNDRY "FreeType"
FAMILY_NAME "Arial"
WEIGHT_NAME "Medium"
SLANT "R"
SETWIDTH_NAME "Normal"
ADD_STYLE_NAME ""
PIXEL_SIZE 14
POINT_SIZE 100
RESOLUTION_X 100
RESOLUTION_Y 100
SPACING "P"
AVERAGE_WIDTH 69
CHARSET_REGISTRY "ISO10646"
CHARSET_ENCODING "1"
FONT_ASCENT 12
FONT_DESCENT 2
COPYRIGHT "Typeface © The Monotype Corporation plc. Data © The Monotype Corporation plc/Type Solutions Inc. 1990-1992. All Rights Reserved"
_OTF_FONTFILE "Arial.ttf"
_OTF_PSNAME "ArialMT"
ENDPROPERTIES
CHARS 1186
STARTCHAR 0020
ENCODING 32
SWIDTH 216 0
DWIDTH 3 0
BBX 0 0 0 0
BITMAP
ENDCHAR
STARTCHAR 0021
ENCODING 33
SWIDTH 216 0
DWIDTH 3 0
BBX 2 10 1 0
BITMAP
C0
C0
C0
C0
C0
80
80
00
00
C0
ENDCHAR
STARTCHAR 0022
ENCODING 34
SWIDTH 288 0
DWIDTH 4 0
BBX 3 4 1 6
BITMAP
A0
A0
A0
A0
ENDCHAR
STARTCHAR 0023
ENCODING 35
SWIDTH 504 0
DWIDTH 7 0
BBX 8 10 0 0
BITMAP
12
22
24
FF
24
24
FF
48
48
48
ENDCHAR
STARTCHAR 0024
ENCODING 36
SWIDTH 504 0
DWIDTH 7 0
BBX 6 12 1 -1
BITMAP
20
78
AC
A0
A0
70
3C
24
A4
AC
78
20
ENDCHAR
STARTCHAR 0025
ENCODING 37
SWIDTH 864 0
DWIDTH 12 0
BBX 10 10 1 0
BITMAP
E100
9100
9200
9400
E400
09C0
0B40
1240
1240
21C0
ENDCHAR
STARTCHAR 0026
ENCODING 38
SWIDTH 648 0
DWIDTH 9 0
BBX 8 10 1 0
BITMAP
38
4C
4C
78
30
DA
8A
86
8E
7B
ENDCHAR
STARTCHAR 0027
ENCODING 39
SWIDTH 144 0
DWIDTH 2 0
BBX 1 4 1 6
BITMAP
80
80
80
80
ENDCHAR
STARTCHAR 0028
ENCODING 40
SWIDTH 288 0
DWIDTH 4 0
BBX 3 13 1 -3
BITMAP
20
40
40
80
80
80
80
80
80
C0
40
40
20
ENDCHAR
STARTCHAR 0029
ENCODING 41
SWIDTH 288 0
DWIDTH 4 0
BBX 3 13 1 -3
BITMAP
80
40
40
60
20
20
20
20
20
60
40
40
80
ENDCHAR
STARTCHAR 002A
ENCODING 42
SWIDTH 360 0
DWIDTH 5 0
BBX 4 4 1 6
BITMAP
40
F0
40
A0
ENDCHAR
STARTCHAR 002B
ENCODING 43
SWIDTH 576 0
DWIDTH 8 0
BBX 6 6 1 2
BITMAP
30
30
30
FC
30
30
ENDCHAR
STARTCHAR 002C
ENCODING 44
SWIDTH 216 0
DWIDTH 3 0
BBX 2 3 1 -2
BITMAP
C0
40
80
ENDCHAR
STARTCHAR 002D
ENCODING 45
SWIDTH 288 0
DWIDTH 4 0
BBX 4 1 0 3
BITMAP
F0
ENDCHAR
STARTCHAR 002E
ENCODING 46
SWIDTH 216 0
DWIDTH 3 0
BBX 2 1 1 0
BITMAP
C0
ENDCHAR
STARTCHAR 002F
ENCODING 47
SWIDTH 216 0
DWIDTH 3 0
BBX 4 10 0 0
BITMAP
10
20
20
20
20
40
40
40
80
80
ENDCHAR
STARTCHAR 0030
ENCODING 48
SWIDTH 504 0
DWIDTH 7 0
BBX 6 10 1 0
BITMAP
70
C8
84
84
84
84
84
84
C8
78
ENDCHAR
STARTCHAR 0031
ENCODING 49
SWIDTH 504 0
DWIDTH 7 0
BBX 3 10 2 0
BITMAP
20
60
E0
20
20
20
20
20
20
20
ENDCHAR
STARTCHAR 0032
ENCODING 50
SWIDTH 504 0
DWIDTH 7 0
BBX 7 10 0 0
BITMAP
3C
46
42
02
04
0C
18
20
40
FE
ENDCHAR
STARTCHAR 0033
ENCODING 51
SWIDTH 504 0
DWIDTH 7 0
BBX 6 10 1 0
BITMAP
70
C8
8C
08
30
0C
04
84
8C
78
ENDCHAR
STARTCHAR 0034
ENCODING 52
SWIDTH 504 0
DWIDTH 7 0
BBX 7 10 0 0
BITMAP
0C
0C
1C
2C
2C
4C
FE
FE
0C
0C
ENDCHAR
STARTCHAR 0035
ENCODING 53
SWIDTH 504 0
DWIDTH 7 0
BBX 6 10 1 0
BITMAP
7C
40
C0
B0
D8
04
04
84
8C
78
ENDCHAR
STARTCHAR 0036
ENCODING 54
SWIDTH 504 0
DWIDTH 7 0
BBX 6 10 1 0
BITMAP
78
CC
84
80
F8
84
84
84
CC
78
ENDCHAR
STARTCHAR 0037
ENCODING 55
SWIDTH 504 0
DWIDTH 7 0
BBX 6 10 1 0
BITMAP
FC
0C
08
10
30
20
20
60
40
40
ENDCHAR
STARTCHAR 0038
ENCODING 56
SWIDTH 504 0
DWIDTH 7 0
BBX 6 10 1 0
BITMAP
78
C8
8C
CC
78
CC
84
84
8C
78
ENDCHAR
STARTCHAR 0039
ENCODING 57
SWIDTH 504 0
DWIDTH 7 0
BBX 6 10 1 0
BITMAP
70
C8
84
84
84
DC
24
04
88
78
ENDCHAR
STARTCHAR 003A
ENCODING 58
SWIDTH 216 0
DWIDTH 3 0
BBX 2 7 1 0
BITMAP
C0
00
00
00
00
00
C0
ENDCHAR
STARTCHAR 003B
ENCODING 59
SWIDTH 216 0
DWIDTH 3 0
BBX 2 9 1 -2
BITMAP
C0
00
00
00
00
00
C0
40
80
ENDCHAR
STARTCHAR 003C
ENCODING 60
SWIDTH 576 0
DWIDTH 8 0
BBX 6 6 1 2
BITMAP
04
38
E0
C0
38
0C
ENDCHAR
STARTCHAR 003D
ENCODING 61
SWIDTH 576 0
DWIDTH 8 0
BBX 6 4 1 3
BITMAP
FC
00
00
FC
ENDCHAR
STARTCHAR 003E
ENCODING 62
SWIDTH 576 0
DWIDTH 8 0
BBX 6 6 1 2
BITMAP
C0
70
0C
0C
30
C0
ENDCHAR
STARTCHAR 003F
ENCODING 63
SWIDTH 504 0
DWIDTH 7 0
BBX 6 10 1 0
BITMAP
78
8C
84
04
08
10
20
20
00
30
ENDCHAR
STARTCHAR 0040
ENCODING 64
SWIDTH 1008 0
DWIDTH 14 0
BBX 12 13 1 -3
BITMAP
1F80
3060
4030
4F90
9190
9090
B190
B110
9320
9DC0
4010
3060
0F80
ENDCHAR
STARTCHAR 0041
ENCODING 65
SWIDTH 648 0
DWIDTH 9 0
BBX 9 10 0 0
BITMAP
0800
1400
1400
3600
2200
2200
7F00
4100
4180
C080
ENDCHAR
STARTCHAR 0042
ENCODING 66
SWIDTH 648 0
DWIDTH 9 0
BBX 8 10 1 0
BITMAP
FC
86
82
82
FC
86
82
83
86
FC
ENDCHAR
STARTCHAR 0043
ENCODING 67
SWIDTH 720 0
DWIDTH 10 0
BBX 8 10 1 0
BITMAP
3E
63
C1
80
80
80
80
C1
43
3E
ENDCHAR
STARTCHAR 0044
ENCODING 68
SWIDTH 720 0
DWIDTH 10 0
BBX 8 10 1 0
BITMAP
FC
86
83
81
81
81
81
83
86
FC
ENDCHAR
STARTCHAR 0045
ENCODING 69
SWIDTH 648 0
DWIDTH 9 0
BBX 8 10 1 0
BITMAP
FE
80
80
80
FE
80
80
80
80
FF
ENDCHAR
STARTCHAR 0046
ENCODING 70
SWIDTH 576 0
DWIDTH 8 0
BBX 7 10 1 0
BITMAP
FE
80
80
80
FC
80
80
80
80
80
ENDCHAR
STARTCHAR 0047
ENCODING 71
SWIDTH 720 0
DWIDTH 10 0
BBX 9 10 1 0
BITMAP
3E00
6100
C180
8000
8000
8780
8080
C080
6180
3F00
ENDCHAR
STARTCHAR 0048
ENCODING 72
SWIDTH 720 0
DWIDTH 10 0
BBX 8 10 1 0
BITMAP
81
81
81
81
FF
81
81
81
81
81
ENDCHAR
STARTCHAR 0049
ENCODING 73
SWIDTH 216 0
DWIDTH 3 0
BBX 2 10 1 0
BITMAP
C0
C0
C0
C0
C0
C0
C0
C0
C0
C0
ENDCHAR
STARTCHAR 004A
ENCODING 74
SWIDTH 432 0
DWIDTH 6 0
BBX 6 10 0 0
BITMAP
04
04
04
04
04
04
04
C4
4C
78
ENDCHAR
STARTCHAR 004B
ENCODING 75
SWIDTH 648 0
DWIDTH 9 0
BBX 8 10 1 0
BITMAP
83
86
8C
90
B0
D8
8C
84
86
83
ENDCHAR
STARTCHAR 004C
ENCODING 76
SWIDTH 504 0
DWIDTH 7 0
BBX 6 10 1 0
BITMAP
80
80
80
80
80
80
80
80
80
FC
ENDCHAR
STARTCHAR 004D
ENCODING 77
SWIDTH 792 0
DWIDTH 11 0
BBX 10 10 1 0
BITMAP
C0C0
C1C0
A1C0
A1C0
A2C0
92C0
92C0
94C0
8CC0
8CC0
ENDCHAR
STARTCHAR 004E
ENCODING 78
SWIDTH 720 0
DWIDTH 10 0
BBX 8 10 1 0
BITMAP
C1
C1
A1
B1
91
89
8D
85
83
83
ENDCHAR
STARTCHAR 004F
ENCODING 79
SWIDTH 720 0
DWIDTH 10 0
BBX 9 10 1 0
BITMAP
3E00
6300
C180
8080
8080
8080
8080
C180
6300
3E00
ENDCHAR
STARTCHAR 0050
ENCODING 80
SWIDTH 648 0
DWIDTH 9 0
BBX 8 10 1 0
BITMAP
FC
82
83
83
86
FC
80
80
80
80
ENDCHAR
STARTCHAR 0051
ENCODING 81
SWIDTH 720 0
DWIDTH 10 0
BBX 9 11 1 -1
BITMAP
3E00
6300
C180
8080
8080
8080
8080
C180
4700
3F80
0080
ENDCHAR
STARTCHAR 0052
ENCODING 82
SWIDTH 720 0
DWIDTH 10 0
BBX 9 10 1 0
BITMAP
FE00
8300
8100
8100
FE00
F800
8600
8200
8300
8180
ENDCHAR
STARTCHAR 0053
ENCODING 83
SWIDTH 648 0
DWIDTH 9 0
BBX 8 10 1 0
BITMAP
7C
C6
82
C0
78
0E
02
83
C2
7C
ENDCHAR
STARTCHAR 0054
ENCODING 84
SWIDTH 576 0
DWIDTH 8 0
BBX 8 10 0 0
BITMAP
FF
08
08
08
08
08
08
08
08
08
ENDCHAR
STARTCHAR 0055
ENCODING 85
SWIDTH 720 0
DWIDTH 10 0
BBX 8 10 1 0
BITMAP
81
81
81
81
81
81
81
C3
42
7E
ENDCHAR
STARTCHAR 0056
ENCODING 86
SWIDTH 648 0
DWIDTH 9 0
BBX 9 10 0 0
BITMAP
C080
4180
4100
6100
2200
2200
1600
1400
1400
0800
ENDCHAR
STARTCHAR 0057
ENCODING 87
SWIDTH 936 0
DWIDTH 13 0
BBX 13 10 0 0
BITMAP
C208
4518
4510
4510
6590
28A0
28A0
28A0
3860
1040
ENDCHAR
STARTCHAR 0058
ENCODING 88
SWIDTH 648 0
DWIDTH 9 0
BBX 9 10 0 0
BITMAP
4180
2300
3200
1400
0C00
1C00
1600
2200
6300
C180
ENDCHAR
STARTCHAR 0059
ENCODING 89
SWIDTH 648 0
DWIDTH 9 0
BBX 9 10 0 0
BITMAP
C180
6100
2200
3600
1400
0800
0800
0800
0800
0800
ENDCHAR
STARTCHAR 005A
ENCODING 90
SWIDTH 576 0
DWIDTH 8 0
BBX 8 10 0 0
BITMAP
7F
03
06
04
08
18
30
60
40
FF
ENDCHAR
STARTCHAR 005B
ENCODING 91
SWIDTH 216 0
DWIDTH 3 0
BBX 3 13 1 -3
BITMAP
E0
80
80
80
80
80
80
80
80
80
80
80
E0
ENDCHAR
STARTCHAR 005C
ENCODING 92
SWIDTH 216 0
DWIDTH 3 0
BBX 4 10 0 0
BITMAP
80
80
40
40
40
20
20
20
20
10
ENDCHAR
STARTCHAR 005D
ENCODING 93
SWIDTH 216 0
DWIDTH 3 0
BBX 3 13 0 -3
BITMAP
E0
20
20
20
20
20
20
20
20
20
20
20
E0
ENDCHAR
STARTCHAR 005E
ENCODING 94
SWIDTH 432 0
DWIDTH 6 0
BBX 5 5 1 5
BITMAP
60
60
50
90
88
ENDCHAR
STARTCHAR 005F
ENCODING 95
SWIDTH 504 0
DWIDTH 7 0
BBX 8 1 0 -3
BITMAP
FF
ENDCHAR
STARTCHAR 0060
ENCODING 96
SWIDTH 288 0
DWIDTH 4 0
BBX 2 2 1 8
BITMAP
80
40
ENDCHAR
STARTCHAR 0061
ENCODING 97
SWIDTH 504 0
DWIDTH 7 0
BBX 6 7 1 0
BITMAP
F8
8C
0C
F4
8C
8C
F4
ENDCHAR
STARTCHAR 0062
ENCODING 98
SWIDTH 504 0
DWIDTH 7 0
BBX 6 10 1 0
BITMAP
80
80
80
F8
8C
84
84
84
CC
F8
ENDCHAR
STARTCHAR 0063
ENCODING 99
SWIDTH 432 0
DWIDTH 6 0
BBX 6 7 1 0
BITMAP
78
8C
80
80
84
8C
78
ENDCHAR
STARTCHAR 0064
ENCODING 100
SWIDTH 504 0
DWIDTH 7 0
BBX 7 10 0 0
BITMAP
06
06
06
7E
46
42
C2
42
46
3A
ENDCHAR
STARTCHAR 0065
ENCODING 101
SWIDTH 504 0
DWIDTH 7 0
BBX 6 7 1 0
BITMAP
78
84
84
FC
80
8C
78
ENDCHAR
STARTCHAR 0066
ENCODING 102
SWIDTH 216 0
DWIDTH 3 0
BBX 4 10 0 0
BITMAP
30
60
40
F0
40
40
40
40
40
40
ENDCHAR
STARTCHAR 0067
ENCODING 103
SWIDTH 504 0
DWIDTH 7 0
BBX 7 10 0 -3
BITMAP
7E
46
42
C2
42
46
3A
06
44
38
ENDCHAR
STARTCHAR 0068
ENCODING 104
SWIDTH 504 0
DWIDTH 7 0
BBX 6 10 1 0
BITMAP
80
80
80
F8
8C
84
84
84
84
84
ENDCHAR
STARTCHAR 0069
ENCODING 105
SWIDTH 216 0
DWIDTH 3 0
BBX 1 10 1 0
BITMAP
80
00
00
80
80
80
80
80
80
80
ENDCHAR
STARTCHAR 006A
ENCODING 106
SWIDTH 216 0
DWIDTH 3 0
BBX 3 13 -1 -3
BITMAP
20
00
00
20
20
20
20
20
20
20
20
20
E0
ENDCHAR
STARTCHAR 006B
ENCODING 107
SWIDTH 432 0
DWIDTH 6 0
BBX 6 10 1 0
BITMAP
80
80
80
98
B0
E0
F0
90
98
8C
ENDCHAR
STARTCHAR 006C
ENCODING 108
SWIDTH 216 0
DWIDTH 3 0
BBX 1 10 1 0
BITMAP
80
80
80
80
80
80
80
80
80
80
ENDCHAR
STARTCHAR 006D
ENCODING 109
SWIDTH 792 0
DWIDTH 11 0
BBX 10 7 1 0
BITMAP
FB80
8CC0
88C0
88C0
88C0
88C0
88C0
ENDCHAR
STARTCHAR 006E
ENCODING 110
SWIDTH 504 0
DWIDTH 7 0
BBX 6 7 1 0
BITMAP
F8
8C
84
84
84
84
84
ENDCHAR
STARTCHAR 006F
ENCODING 111
SWIDTH 504 0
DWIDTH 7 0
BBX 7 7 0 0
BITMAP
3C
46
42
C2
42
46
3C
ENDCHAR
STARTCHAR 0070
ENCODING 112
SWIDTH 504 0
DWIDTH 7 0
BBX 6 10 1 -3
BITMAP
F8
84
84
84
84
CC
F8
80
80
80
ENDCHAR
STARTCHAR 0071
ENCODING 113
SWIDTH 504 0
DWIDTH 7 0
BBX 7 10 0 -3
BITMAP
7A
46
42
C2
42
46
3E
06
06
06
ENDCHAR
STARTCHAR 0072
ENCODING 114
SWIDTH 288 0
DWIDTH 4 0
BBX 4 7 1 0
BITMAP
F0
80
80
80
80
80
80
ENDCHAR
STARTCHAR 0073
ENCODING 115
SWIDTH 432 0
DWIDTH 6 0
BBX 5 7 1 0
BITMAP
F8
88
C0
78
08
88
F8
ENDCHAR
STARTCHAR 0074
ENCODING 116
SWIDTH 216 0
DWIDTH 3 0
BBX 4 9 0 1
BITMAP
40
40
F0
40
40
40
40
40
70
ENDCHAR
STARTCHAR 0075
ENCODING 117
SWIDTH 504 0
DWIDTH 7 0
BBX 6 7 1 0
BITMAP
8C
8C
8C
8C
8C
8C
74
ENDCHAR
STARTCHAR 0076
ENCODING 118
SWIDTH 432 0
DWIDTH 6 0
BBX 7 7 0 0
BITMAP
C6
44
44
28
28
38
10
ENDCHAR
STARTCHAR 0077
ENCODING 119
SWIDTH 720 0
DWIDTH 10 0
BBX 10 7 0 0
BITMAP
8C40
4C80
4C80
5680
7300
3300
3300
ENDCHAR
STARTCHAR 0078
ENCODING 120
SWIDTH 432 0
DWIDTH 6 0
BBX 6 7 0 0
BITMAP
44
68
38
10
28
6C
C4
ENDCHAR
STARTCHAR 0079
ENCODING 121
SWIDTH 432 0
DWIDTH 6 0
BBX 7 10 0 -3
BITMAP
C6
44
64
28
28
38
10
10
30
60
ENDCHAR
STARTCHAR 007A
ENCODING 122
SWIDTH 432 0
DWIDTH 6 0
BBX 7 7 0 0
BITMAP
7C
0C
18
30
20
40
FE
ENDCHAR
STARTCHAR 007B
ENCODING 123
SWIDTH 288 0
DWIDTH 4 0
BBX 4 13 0 -3
BITMAP
30
20
20
20
20
60
C0
60
20
20
20
20
30
ENDCHAR
STARTCHAR 007C
ENCODING 124
SWIDTH 216 0
DWIDTH 3 0
BBX 1 13 1 -3
BITMAP
80
80
80
80
80
80
80
80
80
80
80
80
80
ENDCHAR
STARTCHAR 007D
ENCODING 125
SWIDTH 288 0
DWIDTH 4 0
BBX 4 13 0 -3
BITMAP
C0
20
20
20
20
20
10
20
20
20
20
20
C0
ENDCHAR
STARTCHAR 007E
ENCODING 126
SWIDTH 576 0
DWIDTH 8 0
BBX 7 2 1 4
BITMAP
E2
BC
ENDCHAR
STARTCHAR 00A0
ENCODING 160
SWIDTH 216 0
DWIDTH 3 0
BBX 0 0 0 0
BITMAP
ENDCHAR
STARTCHAR 00A1
ENCODING 161
SWIDTH 288 0
DWIDTH 4 0
BBX 1 10 2 -3
BITMAP
80
00
80
80
80
80
80
80
80
80
ENDCHAR
STARTCHAR 00A2
ENCODING 162
SWIDTH 504 0
DWIDTH 7 0
BBX 6 13 1 -3
BITMAP
08
08
10
78
9C
90
A0
A4
EC
78
40
40
40
ENDCHAR
STARTCHAR 00A3
ENCODING 163
SWIDTH 504 0
DWIDTH 7 0
BBX 7 10 0 0
BITMAP
3C
66
42
40
60
F8
20
20
40
FE
ENDCHAR
STARTCHAR 00A4
ENCODING 164
SWIDTH 504 0
DWIDTH 7 0
BBX 6 6 1 2
BITMAP
B4
C8
8C
84
C8
FC
ENDCHAR
STARTCHAR 00A5
ENCODING 165
SWIDTH 504 0
DWIDTH 7 0
BBX 7 10 0 0
BITMAP
C2
46
64
2C
18
FE
10
FE
10
10
ENDCHAR
STARTCHAR 00A6
ENCODING 166
SWIDTH 216 0
DWIDTH 3 0
BBX 1 13 1 -3
BITMAP
80
80
80
80
80
00
00
00
80
80
80
80
80
ENDCHAR
STARTCHAR 00A7
ENCODING 167
SWIDTH 504 0
DWIDTH 7 0
BBX 6 13 1 -3
BITMAP
78
C8
C0
60
B0
8C
84
64
38
18
8C
C8
78
ENDCHAR
STARTCHAR 00A8
ENCODING 168
SWIDTH 288 0
DWIDTH 4 0
BBX 4 1 0 9
BITMAP
D0
ENDCHAR
STARTCHAR 00A9
ENCODING 169
SWIDTH 720 0
DWIDTH 10 0
BBX 10 10 0 0
BITMAP
1F00
6080
4E40
9240
A040
A040
9240
4E40
6080
1F00
ENDCHAR
STARTCHAR 00AA
ENCODING 170
SWIDTH 360 0
DWIDTH 5 0
BBX 5 5 0 5
BITMAP
70
08
78
98
68
ENDCHAR
STARTCHAR 00AB
ENCODING 171
SWIDTH 504 0
DWIDTH 7 0
BBX 6 7 1 0
BITMAP
24
48
50
90
58
48
24
ENDCHAR
STARTCHAR 00AC
ENCODING 172
SWIDTH 576 0
DWIDTH 8 0
BBX 6 4 1 3
BITMAP
FC
04
04
04
ENDCHAR
STARTCHAR 00AD
ENCODING 173
SWIDTH 288 0
DWIDTH 4 0
BBX 4 1 0 3
BITMAP
F0
ENDCHAR
STARTCHAR 00AE
ENCODING 174
SWIDTH 720 0
DWIDTH 10 0
BBX 10 10 0 0
BITMAP
1F00
6080
5C40
9240
9240
9C40
9240
5240
6080
1F00
ENDCHAR
STARTCHAR 00AF
ENCODING 175
SWIDTH 504 0
DWIDTH 7 0
BBX 8 1 0 11
BITMAP
FF
ENDCHAR
STARTCHAR 00B0
ENCODING 176
SWIDTH 360 0
DWIDTH 5 0
BBX 4 4 1 6
BITMAP
E0
90
A0
60
ENDCHAR
STARTCHAR 00B1
ENCODING 177
SWIDTH 504 0
DWIDTH 7 0
BBX 6 8 1 0
BITMAP
20
20
FC
FC
20
20
00
FC
ENDCHAR
STARTCHAR 00B2
ENCODING 178
SWIDTH 288 0
DWIDTH 4 0
BBX 4 5 0 5
BITMAP
70
10
10
60
F0
ENDCHAR
STARTCHAR 00B3
ENCODING 179
SWIDTH 288 0
DWIDTH 4 0
BBX 3 5 1 5
BITMAP
E0
20
60
20
E0
ENDCHAR
STARTCHAR 00B4
ENCODING 180
SWIDTH 288 0
DWIDTH 4 0
BBX 2 2 2 8
BITMAP
C0
80
ENDCHAR
STARTCHAR 00B5
ENCODING 181
SWIDTH 576 0
DWIDTH 8 0
BBX 6 10 1 -3
BITMAP
84
84
84
84
84
CC
FC
80
80
80
ENDCHAR
STARTCHAR 00B6
ENCODING 182
SWIDTH 504 0
DWIDTH 7 0
BBX 8 13 0 -3
BITMAP
7F
F6
F6
F6
F6
36
16
16
16
16
16
16
16
ENDCHAR
STARTCHAR 00B7
ENCODING 183
SWIDTH 216 0
DWIDTH 3 0
BBX 2 2 1 4
BITMAP
C0
C0
ENDCHAR
STARTCHAR 00B8
ENCODING 184
SWIDTH 288 0
DWIDTH 4 0
BBX 3 3 1 -3
BITMAP
40
20
C0
ENDCHAR
STARTCHAR 00B9
ENCODING 185
SWIDTH 288 0
DWIDTH 4 0
BBX 2 5 1 5
BITMAP
40
C0
40
40
40
ENDCHAR
STARTCHAR 00BA
ENCODING 186
SWIDTH 360 0
DWIDTH 5 0
BBX 5 5 0 5
BITMAP
70
88
88
C8
70
ENDCHAR
STARTCHAR 00BB
ENCODING 187
SWIDTH 504 0
DWIDTH 7 0
BBX 6 7 1 0
BITMAP
90
50
48
2C
48
50
90
ENDCHAR
STARTCHAR 00BC
ENCODING 188
SWIDTH 792 0
DWIDTH 11 0
BBX 10 10 1 0
BITMAP
4080
C100
4200
4200
4400
0840
18C0
1140
23C0
4040
ENDCHAR
STARTCHAR 00BD
ENCODING 189
SWIDTH 792 0
DWIDTH 11 0
BBX 10 10 1 0
BITMAP
4080
C100
4200
4600
4400
09C0
1240
1040
2180
43C0
ENDCHAR
STARTCHAR 00BE
ENCODING 190
SWIDTH 792 0
DWIDTH 11 0
BBX 10 10 1 0
BITMAP
E080
2100
6200
2200
E400
0840
18C0
1140
23C0
4040
ENDCHAR
STARTCHAR 00BF
ENCODING 191
SWIDTH 576 0
DWIDTH 8 0
BBX 6 10 1 -3
BITMAP
10
00
10
10
20
40
80
84
CC
78
ENDCHAR
STARTCHAR 00C0
ENCODING 192
SWIDTH 648 0
DWIDTH 9 0
BBX 9 12 0 0
BITMAP
0800
0000
0800
1400
1400
3600
2200
2200
7F00
4100
4180
C080
ENDCHAR
STARTCHAR 00C1
ENCODING 193
SWIDTH 648 0
DWIDTH 9 0
BBX 9 12 0 0
BITMAP
0C00
0000
0800
1400
1400
3600
2200
2200
7F00
4100
4180
C080
ENDCHAR
STARTCHAR 00C2
ENCODING 194
SWIDTH 648 0
DWIDTH 9 0
BBX 9 12 0 0
BITMAP
1C00
0000
0800
1400
1400
3600
2200
2200
7F00
4100
4180
C080
ENDCHAR
STARTCHAR 00C3
ENCODING 195
SWIDTH 648 0
DWIDTH 9 0
BBX 9 12 0 0
BITMAP
1E00
0000
0800
1400
1400
3600
2200
2200
7F00
4100
4180
C080
ENDCHAR
STARTCHAR 00C4
ENCODING 196
SWIDTH 648 0
DWIDTH 9 0
BBX 9 12 0 0
BITMAP
1400
0000
0800
1400
1400
3600
2200
2200
7F00
4100
4180
C080
ENDCHAR
STARTCHAR 00C5
ENCODING 197
SWIDTH 648 0
DWIDTH 9 0
BBX 9 12 0 0
BITMAP
1C00
1400
0800
1400
1400
3600
2200
2200
7F00
4100
4180
C080
ENDCHAR
STARTCHAR 00C6
ENCODING 198
SWIDTH 936 0
DWIDTH 13 0
BBX 13 10 0 0
BITMAP
07F8
0D00
0900
1900
11F8
3100
3F00
6100
4100
C1F8
ENDCHAR
STARTCHAR 00C7
ENCODING 199
SWIDTH 720 0
DWIDTH 10 0
BBX 8 13 1 -3
BITMAP
3E
63
C1
80
80
80
80
C1
43
3E
10
08
38
ENDCHAR
STARTCHAR 00C8
ENCODING 200
SWIDTH 648 0
DWIDTH 9 0
BBX 8 12 1 0
BITMAP
10
00
FE
80
80
80
FE
80
80
80
80
FF
ENDCHAR
STARTCHAR 00C9
ENCODING 201
SWIDTH 648 0
DWIDTH 9 0
BBX 8 12 1 0
BITMAP
18
00
FE
80
80
80
FE
80
80
80
80
FF
ENDCHAR
STARTCHAR 00CA
ENCODING 202
SWIDTH 648 0
DWIDTH 9 0
BBX 8 12 1 0
BITMAP
38
00
FE
80
80
80
FE
80
80
80
80
FF
ENDCHAR
STARTCHAR 00CB
ENCODING 203
SWIDTH 648 0
DWIDTH 9 0
BBX 8 12 1 0
BITMAP
2C
00
FE
80
80
80
FE
80
80
80
80
FF
ENDCHAR
STARTCHAR 00CC
ENCODING 204
SWIDTH 216 0
DWIDTH 3 0
BBX 2 12 1 0
BITMAP
80
00
C0
C0
C0
C0
C0
C0
C0
C0
C0
C0
ENDCHAR
STARTCHAR 00CD
ENCODING 205
SWIDTH 216 0
DWIDTH 3 0
BBX 2 12 1 0
BITMAP
C0
00
C0
C0
C0
C0
C0
C0
C0
C0
C0
C0
ENDCHAR
STARTCHAR 00CE
ENCODING 206
SWIDTH 216 0
DWIDTH 3 0
BBX 4 12 0 0
BITMAP
60
90
60
60
60
60
60
60
60
60
60
60
ENDCHAR
STARTCHAR 00CF
ENCODING 207
SWIDTH 216 0
DWIDTH 3 0
BBX 4 12 0 0
BITMAP
90
00
60
60
60
60
60
60
60
60
60
60
ENDCHAR
STARTCHAR 00D0
ENCODING 208
SWIDTH 720 0
DWIDTH 10 0
BBX 9 10 0 0
BITMAP
7E00
4300
4180
4080
4080
F880
4080
4180
4300
7E00
ENDCHAR
STARTCHAR 00D1
ENCODING 209
SWIDTH 720 0
DWIDTH 10 0
BBX 8 12 1 0
BITMAP
3C
00
C1
C1
A1
B1
91
89
8D
85
83
83
ENDCHAR
STARTCHAR 00D2
ENCODING 210
SWIDTH 720 0
DWIDTH 10 0
BBX 9 12 1 0
BITMAP
1800
0000
3E00
6300
C180
8080
8080
8080
8080
C180
6300
3E00
ENDCHAR
STARTCHAR 00D3
ENCODING 211
SWIDTH 720 0
DWIDTH 10 0
BBX 9 12 1 0
BITMAP
0C00
0000
3E00
6300
C180
8080
8080
8080
8080
C180
6300
3E00
ENDCHAR
STARTCHAR 00D4
ENCODING 212
SWIDTH 720 0
DWIDTH 10 0
BBX 9 12 1 0
BITMAP
1C00
0000
3E00
6300
C180
8080
8080
8080
8080
C180
6300
3E00
ENDCHAR
STARTCHAR 00D5
ENCODING 213
SWIDTH 720 0
DWIDTH 10 0
BBX 9 12 1 0
BITMAP
3E00
0000
3E00
6300
C180
8080
8080
8080
8080
C180
6300
3E00
ENDCHAR
STARTCHAR 00D6
ENCODING 214
SWIDTH 720 0
DWIDTH 10 0
BBX 9 12 1 0
BITMAP
3400
0000
3E00
6300
C180
8080
8080
8080
8080
C180
6300
3E00
ENDCHAR
STARTCHAR 00D7
ENCODING 215
SWIDTH 576 0
DWIDTH 8 0
BBX 6 6 1 2
BITMAP
04
48
30
30
48
84
ENDCHAR
STARTCHAR 00D8
ENCODING 216
SWIDTH 720 0
DWIDTH 10 0
BBX 9 10 1 0
BITMAP
3E80
6300
C380
8480
8C80
9880
9080
E180
6300
BE00
ENDCHAR
STARTCHAR 00D9
ENCODING 217
SWIDTH 720 0
DWIDTH 10 0
BBX 8 12 1 0
BITMAP
10
00
81
81
81
81
81
81
81
C3
42
7E
ENDCHAR
STARTCHAR 00DA
ENCODING 218
SWIDTH 720 0
DWIDTH 10 0
BBX 8 12 1 0
BITMAP
08
00
81
81
81
81
81
81
81
C3
42
7E
ENDCHAR
STARTCHAR 00DB
ENCODING 219
SWIDTH 720 0
DWIDTH 10 0
BBX 8 12 1 0
BITMAP
18
24
81
81
81
81
81
81
81
C3
42
7E
ENDCHAR
STARTCHAR 00DC
ENCODING 220
SWIDTH 720 0
DWIDTH 10 0
BBX 8 12 1 0
BITMAP
24
00
81
81
81
81
81
81
81
C3
42
7E
ENDCHAR
STARTCHAR 00DD
ENCODING 221
SWIDTH 648 0
DWIDTH 9 0
BBX 9 12 0 0
BITMAP
0C00
0000
C180
6100
2200
3600
1400
0800
0800
0800
0800
0800
ENDCHAR
STARTCHAR 00DE
ENCODING 222
SWIDTH 648 0
DWIDTH 9 0
BBX 8 10 1 0
BITMAP
80
80
FC
82
83
83
82
FC
80
80
ENDCHAR
STARTCHAR 00DF
ENCODING 223
SWIDTH 576 0
DWIDTH 8 0
BBX 7 10 1 0
BITMAP
78
C8
88
88
90
98
8C
82
A2
9C
ENDCHAR
STARTCHAR 00E0
ENCODING 224
SWIDTH 504 0
DWIDTH 7 0
BBX 6 10 1 0
BITMAP
20
10
00
F8
8C
0C
F4
8C
8C
F4
ENDCHAR
STARTCHAR 00E1
ENCODING 225
SWIDTH 504 0
DWIDTH 7 0
BBX 6 10 1 0
BITMAP
10
20
00
F8
8C
0C
F4
8C
8C
F4
ENDCHAR
STARTCHAR 00E2
ENCODING 226
SWIDTH 504 0
DWIDTH 7 0
BBX 6 10 1 0
BITMAP
30
58
00
F8
8C
0C
F4
8C
8C
F4
ENDCHAR
STARTCHAR 00E3
ENCODING 227
SWIDTH 504 0
DWIDTH 7 0
BBX 6 10 1 0
BITMAP
68
10
00
F8
8C
0C
F4
8C
8C
F4
ENDCHAR
STARTCHAR 00E4
ENCODING 228
SWIDTH 504 0
DWIDTH 7 0
BBX 6 10 1 0
BITMAP
58
00
00
F8
8C
0C
F4
8C
8C
F4
ENDCHAR
STARTCHAR 00E5
ENCODING 229
SWIDTH 504 0
DWIDTH 7 0
BBX 6 10 1 0
BITMAP
70
50
20
F8
8C
0C
F4
8C
8C
F4
ENDCHAR
STARTCHAR 00E6
ENCODING 230
SWIDTH 864 0
DWIDTH 12 0
BBX 11 7 1 0
BITMAP
FFC0
8C40
0C20
FFE0
8C00
8C40
F3C0
ENDCHAR
STARTCHAR 00E7
ENCODING 231
SWIDTH 432 0
DWIDTH 6 0
BBX 6 10 1 -3
BITMAP
78
8C
80
80
84
8C
78
20
10
60
ENDCHAR
STARTCHAR 00E8
ENCODING 232
SWIDTH 504 0
DWIDTH 7 0
BBX 6 10 1 0
BITMAP
20
20
00
78
84
84
FC
80
8C
78
ENDCHAR
STARTCHAR 00E9
ENCODING 233
SWIDTH 504 0
DWIDTH 7 0
BBX 6 10 1 0
BITMAP
10
20
00
78
84
84
FC
80
8C
78
ENDCHAR
STARTCHAR 00EA
ENCODING 234
SWIDTH 504 0
DWIDTH 7 0
BBX 6 10 1 0
BITMAP
30
58
00
78
84
84
FC
80
8C
78
ENDCHAR
STARTCHAR 00EB
ENCODING 235
SWIDTH 504 0
DWIDTH 7 0
BBX 6 10 1 0
BITMAP
58
00
00
78
84
84
FC
80
8C
78
ENDCHAR
STARTCHAR 00EC
ENCODING 236
SWIDTH 216 0
DWIDTH 3 0
BBX 2 10 1 0
BITMAP
80
C0
00
C0
C0
C0
C0
C0
C0
C0
ENDCHAR
STARTCHAR 00ED
ENCODING 237
SWIDTH 216 0
DWIDTH 3 0
BBX 2 10 1 0
BITMAP
40
C0
00
C0
C0
C0
C0
C0
C0
C0
ENDCHAR
STARTCHAR 00EE
ENCODING 238
SWIDTH 216 0
DWIDTH 3 0
BBX 4 10 0 0
BITMAP
60
D0
00
60
60
60
60
60
60
60
ENDCHAR
STARTCHAR 00EF
ENCODING 239
SWIDTH 216 0
DWIDTH 3 0
BBX 4 10 0 0
BITMAP
90
00
00
60
60
60
60
60
60
60
ENDCHAR
STARTCHAR 00F0
ENCODING 240
SWIDTH 504 0
DWIDTH 7 0
BBX 7 10 0 0
BITMAP
14
18
24
3C
46
42
C2
42
46
3C
ENDCHAR
STARTCHAR 00F1
ENCODING 241
SWIDTH 504 0
DWIDTH 7 0
BBX 6 10 1 0
BITMAP
68
58
00
F8
8C
84
84
84
84
84
ENDCHAR
STARTCHAR 00F2
ENCODING 242
SWIDTH 504 0
DWIDTH 7 0
BBX 7 10 0 0
BITMAP
10
10
00
3C
46
42
C2
42
46
3C
ENDCHAR
STARTCHAR 00F3
ENCODING 243
SWIDTH 504 0
DWIDTH 7 0
BBX 7 10 0 0
BITMAP
08
10
00
3C
46
42
C2
42
46
3C
ENDCHAR
STARTCHAR 00F4
ENCODING 244
SWIDTH 504 0
DWIDTH 7 0
BBX 7 10 0 0
BITMAP
18
2C
00
3C
46
42
C2
42
46
3C
ENDCHAR
STARTCHAR 00F5
ENCODING 245
SWIDTH 504 0
DWIDTH 7 0
BBX 7 10 0 0
BITMAP
34
0C
00
3C
46
42
C2
42
46
3C
ENDCHAR
STARTCHAR 00F6
ENCODING 246
SWIDTH 504 0
DWIDTH 7 0
BBX 7 10 0 0
BITMAP
2C
00
00
3C
46
42
C2
42
46
3C
ENDCHAR
STARTCHAR 00F7
ENCODING 247
SWIDTH 504 0
DWIDTH 7 0
BBX 6 6 1 2
BITMAP
30
30
00
FC
30
30
ENDCHAR
STARTCHAR 00F8
ENCODING 248
SWIDTH 576 0
DWIDTH 8 0
BBX 7 7 1 0
BITMAP
7C
CC
9E
96
A6
C4
F8
ENDCHAR
STARTCHAR 00F9
ENCODING 249
SWIDTH 504 0
DWIDTH 7 0
BBX 6 10 1 0
BITMAP
20
10
00
8C
8C
8C
8C
8C
8C
74
ENDCHAR
STARTCHAR 00FA
ENCODING 250
SWIDTH 504 0
DWIDTH 7 0
BBX 6 10 1 0
BITMAP
10
20
00
8C
8C
8C
8C
8C
8C
74
ENDCHAR
STARTCHAR 00FB
ENCODING 251
SWIDTH 504 0
DWIDTH 7 0
BBX 6 10 1 0
BITMAP
30
58
00
8C
8C
8C
8C
8C
8C
74
ENDCHAR
STARTCHAR 00FC
ENCODING 252
SWIDTH 504 0
DWIDTH 7 0
BBX 6 10 1 0
BITMAP
58
00
00
8C
8C
8C
8C
8C
8C
74
ENDCHAR
STARTCHAR 00FD
ENCODING 253
SWIDTH 432 0
DWIDTH 6 0
BBX 7 13 0 -3
BITMAP
08
10
00
C6
44
64
28
28
38
10
10
30
60
ENDCHAR
STARTCHAR 00FE
ENCODING 254
SWIDTH 504 0
DWIDTH 7 0
BBX 6 13 1 -3
BITMAP
80
80
80
F8
84
84
84
84
CC
F8
80
80
80
ENDCHAR
STARTCHAR 00FF
ENCODING 255
SWIDTH 432 0
DWIDTH 6 0
BBX 7 13 0 -3
BITMAP
28
00
00
C6
44
64
28
28
38
10
10
30
60
ENDCHAR
STARTCHAR 0100
ENCODING 256
SWIDTH 648 0
DWIDTH 9 0
BBX 9 12 0 0
BITMAP
3E00
0000
0800
1400
1400
3600
2200
2200
7F00
4100
4180
C080
ENDCHAR
STARTCHAR 0101
ENCODING 257
SWIDTH 504 0
DWIDTH 7 0
BBX 6 9 1 0
BITMAP
78
00
F8
8C
0C
F4
8C
8C
F4
ENDCHAR
STARTCHAR 0102
ENCODING 258
SWIDTH 648 0
DWIDTH 9 0
BBX 9 12 0 0
BITMAP
1400
0800
0800
1400
1400
3600
2200
2200
7F00
4100
4180
C080
ENDCHAR
STARTCHAR 0103
ENCODING 259
SWIDTH 504 0
DWIDTH 7 0
BBX 6 10 1 0
BITMAP
48
30
00
F8
8C
0C
F4
8C
8C
F4
ENDCHAR
STARTCHAR 0104
ENCODING 260
SWIDTH 648 0
DWIDTH 9 0
BBX 10 13 0 -3
BITMAP
0800
1400
1400
3600
2200
2200
7F00
4100
4180
C080
0100
0080
00C0
ENDCHAR
STARTCHAR 0105
ENCODING 261
SWIDTH 504 0
DWIDTH 7 0
BBX 7 10 1 -3
BITMAP
F8
8C
0C
F4
8C
8C
F4
04
04
06
ENDCHAR
STARTCHAR 0106
ENCODING 262
SWIDTH 720 0
DWIDTH 10 0
BBX 8 12 1 0
BITMAP
0C
00
3E
63
C1
80
80
80
80
C1
43
3E
ENDCHAR
STARTCHAR 0107
ENCODING 263
SWIDTH 432 0
DWIDTH 6 0
BBX 6 10 1 0
BITMAP
10
20
00
78
8C
80
80
84
8C
78
ENDCHAR
STARTCHAR 0108
ENCODING 264
SWIDTH 720 0
DWIDTH 10 0
BBX 8 12 1 0
BITMAP
1C
00
3E
63
C1
80
80
80
80
C1
43
3E
ENDCHAR
STARTCHAR 0109
ENCODING 265
SWIDTH 432 0
DWIDTH 6 0
BBX 6 10 1 0
BITMAP
30
68
00
78
8C
80
80
84
8C
78
ENDCHAR
STARTCHAR 010A
ENCODING 266
SWIDTH 720 0
DWIDTH 10 0
BBX 8 12 1 0
BITMAP
18
00
3E
63
C1
80
80
80
80
C1
43
3E
ENDCHAR
STARTCHAR 010B
ENCODING 267
SWIDTH 432 0
DWIDTH 6 0
BBX 6 10 1 0
BITMAP
30
30
00
78
8C
80
80
84
8C
78
ENDCHAR
STARTCHAR 010C
ENCODING 268
SWIDTH 720 0
DWIDTH 10 0
BBX 8 12 1 0
BITMAP
14
08
3E
63
C1
80
80
80
80
C1
43
3E
ENDCHAR
STARTCHAR 010D
ENCODING 269
SWIDTH 432 0
DWIDTH 6 0
BBX 6 10 1 0
BITMAP
58
30
00
78
8C
80
80
84
8C
78
ENDCHAR
STARTCHAR 010E
ENCODING 270
SWIDTH 720 0
DWIDTH 10 0
BBX 8 12 1 0
BITMAP
78
00
FC
86
83
81
81
81
81
83
86
FC
ENDCHAR
STARTCHAR 010F
ENCODING 271
SWIDTH 576 0
DWIDTH 8 0
BBX 9 10 0 0
BITMAP
0380
0280
0300
7A00
4600
4200
C200
4200
4600
3A00
ENDCHAR
STARTCHAR 0110
ENCODING 272
SWIDTH 720 0
DWIDTH 10 0
BBX 9 10 0 0
BITMAP
7E00
4300
4180
4080
4080
F880
4080
4180
4300
7E00
ENDCHAR
STARTCHAR 0111
ENCODING 273
SWIDTH 504 0
DWIDTH 7 0
BBX 8 10 0 0
BITMAP
06
1F
06
7E
46
42
C2
42
46
3A
ENDCHAR
STARTCHAR 0112
ENCODING 274
SWIDTH 648 0
DWIDTH 9 0
BBX 8 12 1 0
BITMAP
3C
00
FE
80
80
80
FE
80
80
80
80
FF
ENDCHAR
STARTCHAR 0113
ENCODING 275
SWIDTH 504 0
DWIDTH 7 0
BBX 6 9 1 0
BITMAP
78
00
78
84
84
FC
80
8C
78
ENDCHAR
STARTCHAR 0114
ENCODING 276
SWIDTH 648 0
DWIDTH 9 0
BBX 8 12 1 0
BITMAP
3C
00
FE
80
80
80
FE
80
80
80
80
FF
ENDCHAR
STARTCHAR 0115
ENCODING 277
SWIDTH 504 0
DWIDTH 7 0
BBX 6 10 1 0
BITMAP
48
30
00
78
84
84
FC
80
8C
78
ENDCHAR
STARTCHAR 0116
ENCODING 278
SWIDTH 648 0
DWIDTH 9 0
BBX 8 12 1 0
BITMAP
18
00
FE
80
80
80
FE
80
80
80
80
FF
ENDCHAR
STARTCHAR 0117
ENCODING 279
SWIDTH 504 0
DWIDTH 7 0
BBX 6 10 1 0
BITMAP
30
30
00
78
84
84
FC
80
8C
78
ENDCHAR
STARTCHAR 0118
ENCODING 280
SWIDTH 648 0
DWIDTH 9 0
BBX 8 13 1 -3
BITMAP
FE
80
80
80
FE
80
80
80
80
FF
08
04
06
ENDCHAR
STARTCHAR 0119
ENCODING 281
SWIDTH 504 0
DWIDTH 7 0
BBX 6 10 1 -3
BITMAP
78
84
84
FC
80
8C
78
20
20
18
ENDCHAR
STARTCHAR 011A
ENCODING 282
SWIDTH 648 0
DWIDTH 9 0
BBX 8 12 1 0
BITMAP
28
10
FE
80
80
80
FE
80
80
80
80
FF
ENDCHAR
STARTCHAR 011B
ENCODING 283
SWIDTH 504 0
DWIDTH 7 0
BBX 6 10 1 0
BITMAP
78
30
00
78
84
84
FC
80
8C
78
ENDCHAR
STARTCHAR 011C
ENCODING 284
SWIDTH 720 0
DWIDTH 10 0
BBX 9 12 1 0
BITMAP
0C00
1200
3E00
6100
C180
8000
8000
8780
8080
C080
6180
3F00
ENDCHAR
STARTCHAR 011D
ENCODING 285
SWIDTH 504 0
DWIDTH 7 0
BBX 7 13 0 -3
BITMAP
18
2C
00
7E
46
42
C2
42
46
3A
06
44
38
ENDCHAR
STARTCHAR 011E
ENCODING 286
SWIDTH 720 0
DWIDTH 10 0
BBX 9 12 1 0
BITMAP
1600
0800
3E00
6100
C180
8000
8000
8780
8080
C080
6180
3F00
ENDCHAR
STARTCHAR 011F
ENCODING 287
SWIDTH 504 0
DWIDTH 7 0
BBX 7 13 0 -3
BITMAP
24
18
00
7E
46
42
C2
42
46
3A
06
44
38
ENDCHAR
STARTCHAR 0120
ENCODING 288
SWIDTH 720 0
DWIDTH 10 0
BBX 9 12 1 0
BITMAP
0C00
0C00
3E00
6100
C180
8000
8000
8780
8080
C080
6180
3F00
ENDCHAR
STARTCHAR 0121
ENCODING 289
SWIDTH 504 0
DWIDTH 7 0
BBX 7 13 0 -3
BITMAP
18
18
00
7E
46
42
C2
42
46
3A
06
44
38
ENDCHAR
STARTCHAR 0122
ENCODING 290
SWIDTH 720 0
DWIDTH 10 0
BBX 9 13 1 -3
BITMAP
3E00
6100
C180
8000
8000
8780
8080
C080
6180
3F00
0800
0400
1C00
ENDCHAR
STARTCHAR 0123
ENCODING 291
SWIDTH 504 0
DWIDTH 7 0
BBX 7 13 0 -2
BITMAP
10
10
00
7E
46
42
C2
42
46
3A
06
44
38
ENDCHAR
STARTCHAR 0124
ENCODING 292
SWIDTH 720 0
DWIDTH 10 0
BBX 8 12 1 0
BITMAP
1C
00
81
81
81
81
FF
81
81
81
81
81
ENDCHAR
STARTCHAR 0125
ENCODING 293
SWIDTH 504 0
DWIDTH 7 0
BBX 6 12 1 0
BITMAP
38
00
80
80
80
F8
8C
84
84
84
84
84
ENDCHAR
STARTCHAR 0126
ENCODING 294
SWIDTH 720 0
DWIDTH 10 0
BBX 10 10 0 0
BITMAP
4080
4080
FFC0
4080
7F80
4080
4080
4080
4080
4080
ENDCHAR
STARTCHAR 0127
ENCODING 295
SWIDTH 504 0
DWIDTH 7 0
BBX 7 10 0 0
BITMAP
40
F8
40
7C
46
42
42
42
42
42
ENDCHAR
STARTCHAR 0128
ENCODING 296
SWIDTH 216 0
DWIDTH 3 0
BBX 4 12 0 0
BITMAP
F0
00
60
60
60
60
60
60
60
60
60
60
ENDCHAR
STARTCHAR 0129
ENCODING 297
SWIDTH 216 0
DWIDTH 3 0
BBX 4 10 0 0
BITMAP
D0
B0
00
60
60
60
60
60
60
60
ENDCHAR
STARTCHAR 012A
ENCODING 298
SWIDTH 216 0
DWIDTH 3 0
BBX 4 12 0 0
BITMAP
F0
00
60
60
60
60
60
60
60
60
60
60
ENDCHAR
STARTCHAR 012B
ENCODING 299
SWIDTH 216 0
DWIDTH 3 0
BBX 4 9 0 0
BITMAP
F0
00
60
60
60
60
60
60
60
ENDCHAR
STARTCHAR 012C
ENCODING 300
SWIDTH 216 0
DWIDTH 3 0
BBX 4 12 0 0
BITMAP
90
60
60
60
60
60
60
60
60
60
60
60
ENDCHAR
STARTCHAR 012D
ENCODING 301
SWIDTH 216 0
DWIDTH 3 0
BBX 4 10 0 0
BITMAP
90
60
00
60
60
60
60
60
60
60
ENDCHAR
STARTCHAR 012E
ENCODING 302
SWIDTH 216 0
DWIDTH 3 0
BBX 3 13 1 -3
BITMAP
C0
C0
C0
C0
C0
C0
C0
C0
C0
C0
80
80
60
ENDCHAR
STARTCHAR 012F
ENCODING 303
SWIDTH 216 0
DWIDTH 3 0
BBX 3 13 1 -3
BITMAP
80
00
00
80
80
80
80
80
80
80
80
80
E0
ENDCHAR
STARTCHAR 0130
ENCODING 304
SWIDTH 216 0
DWIDTH 3 0
BBX 2 12 1 0
BITMAP
C0
00
C0
C0
C0
C0
C0
C0
C0
C0
C0
C0
ENDCHAR
STARTCHAR 0131
ENCODING 305
SWIDTH 216 0
DWIDTH 3 0
BBX 2 7 1 0
BITMAP
C0
C0
C0
C0
C0
C0
C0
ENDCHAR
STARTCHAR 0132
ENCODING 306
SWIDTH 720 0
DWIDTH 10 0
BBX 8 10 1 0
BITMAP
C1
C1
C1
C1
C1
C1
C1
D1
D9
CF
ENDCHAR
STARTCHAR 0133
ENCODING 307
SWIDTH 432 0
DWIDTH 6 0
BBX 4 13 1 -3
BITMAP
90
00
00
90
90
90
90
90
90
90
10
10
30
ENDCHAR
STARTCHAR 0134
ENCODING 308
SWIDTH 432 0
DWIDTH 6 0
BBX 7 12 0 0
BITMAP
0E
00
04
04
04
04
04
04
04
C4
4C
78
ENDCHAR
STARTCHAR 0135
ENCODING 309
SWIDTH 216 0
DWIDTH 3 0
BBX 4 13 -1 -3
BITMAP
70
50
00
20
20
20
20
20
20
20
20
20
E0
ENDCHAR
STARTCHAR 0136
ENCODING 310
SWIDTH 648 0
DWIDTH 9 0
BBX 8 13 1 -3
BITMAP
83
86
8C
90
B0
D8
8C
84
86
83
08
04
18
ENDCHAR
STARTCHAR 0137
ENCODING 311
SWIDTH 432 0
DWIDTH 6 0
BBX 6 13 1 -3
BITMAP
80
80
80
98
B0
E0
F0
90
98
8C
30
18
30
ENDCHAR
STARTCHAR 0138
ENCODING 312
SWIDTH 432 0
DWIDTH 6 0
BBX 6 7 1 0
BITMAP
98
B0
E0
F0
90
98
8C
ENDCHAR
STARTCHAR 0139
ENCODING 313
SWIDTH 504 0
DWIDTH 7 0
BBX 6 12 1 0
BITMAP
20
00
80
80
80
80
80
80
80
80
80
FC
ENDCHAR
STARTCHAR 013A
ENCODING 314
SWIDTH 216 0
DWIDTH 3 0
BBX 2 12 0 0
BITMAP
40
80
40
40
40
40
40
40
40
40
40
40
ENDCHAR
STARTCHAR 013B
ENCODING 315
SWIDTH 504 0
DWIDTH 7 0
BBX 6 13 1 -3
BITMAP
80
80
80
80
80
80
80
80
80
FC
10
08
30
ENDCHAR
STARTCHAR 013C
ENCODING 316
SWIDTH 216 0
DWIDTH 3 0
BBX 3 13 0 -3
BITMAP
40
40
40
40
40
40
40
40
40
40
40
20
C0
ENDCHAR
STARTCHAR 013D
ENCODING 317
SWIDTH 504 0
DWIDTH 7 0
BBX 6 10 1 0
BITMAP
88
88
88
80
80
80
80
80
80
FC
ENDCHAR
STARTCHAR 013E
ENCODING 318
SWIDTH 288 0
DWIDTH 4 0
BBX 3 10 1 0
BITMAP
A0
A0
A0
80
80
80
80
80
80
80
ENDCHAR
STARTCHAR 013F
ENCODING 319
SWIDTH 504 0
DWIDTH 7 0
BBX 6 10 1 0
BITMAP
80
80
80
80
88
88
80
80
80
FC
ENDCHAR
STARTCHAR 0140
ENCODING 320
SWIDTH 288 0
DWIDTH 4 0
BBX 4 10 1 0
BITMAP
80
80
80
80
B0
B0
80
80
80
80
ENDCHAR
STARTCHAR 0141
ENCODING 321
SWIDTH 504 0
DWIDTH 7 0
BBX 7 10 0 0
BITMAP
40
40
48
50
60
C0
C0
40
40
7E
ENDCHAR
STARTCHAR 0142
ENCODING 322
SWIDTH 216 0
DWIDTH 3 0
BBX 3 10 0 0
BITMAP
40
40
40
40
60
C0
40
40
40
40
ENDCHAR
STARTCHAR 0143
ENCODING 323
SWIDTH 720 0
DWIDTH 10 0
BBX 8 12 1 0
BITMAP
18
00
C1
C1
A1
B1
91
89
8D
85
83
83
ENDCHAR
STARTCHAR 0144
ENCODING 324
SWIDTH 504 0
DWIDTH 7 0
BBX 6 10 1 0
BITMAP
10
20
00
F8
8C
84
84
84
84
84
ENDCHAR
STARTCHAR 0145
ENCODING 325
SWIDTH 720 0
DWIDTH 10 0
BBX 8 13 1 -3
BITMAP
C1
C1
A1
B1
91
89
8D
85
83
83
08
04
18
ENDCHAR
STARTCHAR 0146
ENCODING 326
SWIDTH 504 0
DWIDTH 7 0
BBX 6 10 1 -3
BITMAP
F8
8C
84
84
84
84
84
30
10
70
ENDCHAR
STARTCHAR 0147
ENCODING 327
SWIDTH 720 0
DWIDTH 10 0
BBX 8 12 1 0
BITMAP
3C
00
C1
C1
A1
B1
91
89
8D
85
83
83
ENDCHAR
STARTCHAR 0148
ENCODING 328
SWIDTH 504 0
DWIDTH 7 0
BBX 6 10 1 0
BITMAP
78
30
00
F8
8C
84
84
84
84
84
ENDCHAR
STARTCHAR 0149
ENCODING 329
SWIDTH 576 0
DWIDTH 8 0
BBX 7 10 0 0
BITMAP
80
80
80
3E
22
22
22
22
22
22
ENDCHAR
STARTCHAR 014A
ENCODING 330
SWIDTH 720 0
DWIDTH 10 0
BBX 8 10 1 0
BITMAP
BE
E3
C1
C1
81
81
81
81
83
9E
ENDCHAR
STARTCHAR 014B
ENCODING 331
SWIDTH 504 0
DWIDTH 7 0
BBX 6 10 1 -3
BITMAP
F8
8C
84
84
84
84
84
04
0C
18
ENDCHAR
STARTCHAR 014C
ENCODING 332
SWIDTH 720 0
DWIDTH 10 0
BBX 9 12 1 0
BITMAP
3E00
0000
3E00
6300
C180
8080
8080
8080
8080
C180
6300
3E00
ENDCHAR
STARTCHAR 014D
ENCODING 333
SWIDTH 504 0
DWIDTH 7 0
BBX 7 9 0 0
BITMAP
3C
00
3C
46
42
C2
42
46
3C
ENDCHAR
STARTCHAR 014E
ENCODING 334
SWIDTH 720 0
DWIDTH 10 0
BBX 9 12 1 0
BITMAP
1400
0800
3E00
6300
C180
8080
8080
8080
8080
C180
6300
3E00
ENDCHAR
STARTCHAR 014F
ENCODING 335
SWIDTH 504 0
DWIDTH 7 0
BBX 7 10 0 0
BITMAP
24
18
00
3C
46
42
C2
42
46
3C
ENDCHAR
STARTCHAR 0150
ENCODING 336
SWIDTH 720 0
DWIDTH 10 0
BBX 9 12 1 0
BITMAP
1400
0000
3E00
6300
C180
8080
8080
8080
8080
C180
6300
3E00
ENDCHAR
STARTCHAR 0151
ENCODING 337
SWIDTH 504 0
DWIDTH 7 0
BBX 7 10 0 0
BITMAP
14
2C
00
3C
46
42
C2
42
46
3C
ENDCHAR
STARTCHAR 0152
ENCODING 338
SWIDTH 936 0
DWIDTH 13 0
BBX 12 10 1 0
BITMAP
3DF0
4700
C300
8300
81F0
8100
8300
C300
4700
3DF0
ENDCHAR
STARTCHAR 0153
ENCODING 339
SWIDTH 936 0
DWIDTH 13 0
BBX 12 7 1 0
BITMAP
7BE0
8620
8430
87F0
8400
8E20
7BC0
ENDCHAR
STARTCHAR 0154
ENCODING 340
SWIDTH 720 0
DWIDTH 10 0
BBX 9 12 1 0
BITMAP
1000
0000
FE00
8300
8100
8100
FE00
F800
8600
8200
8300
8180
ENDCHAR
STARTCHAR 0155
ENCODING 341
SWIDTH 288 0
DWIDTH 4 0
BBX 4 10 1 0
BITMAP
60
40
00
F0
80
80
80
80
80
80
ENDCHAR
STARTCHAR 0156
ENCODING 342
SWIDTH 720 0
DWIDTH 10 0
BBX 9 13 1 -3
BITMAP
FE00
8300
8100
8100
FE00
F800
8600
8200
8300
8180
0800
0400
1800
ENDCHAR
STARTCHAR 0157
ENCODING 343
SWIDTH 288 0
DWIDTH 4 0
BBX 4 10 1 -3
BITMAP
F0
80
80
80
80
80
80
40
20
C0
ENDCHAR
STARTCHAR 0158
ENCODING 344
SWIDTH 720 0
DWIDTH 10 0
BBX 9 12 1 0
BITMAP
2800
1000
FE00
8300
8100
8100
FE00
F800
8600
8200
8300
8180
ENDCHAR
STARTCHAR 0159
ENCODING 345
SWIDTH 288 0
DWIDTH 4 0
BBX 4 10 1 0
BITMAP
A0
40
00
F0
80
80
80
80
80
80
ENDCHAR
STARTCHAR 015A
ENCODING 346
SWIDTH 648 0
DWIDTH 9 0
BBX 8 12 1 0
BITMAP
10
00
7C
C6
82
C0
78
0E
02
83
C2
7C
ENDCHAR
STARTCHAR 015B
ENCODING 347
SWIDTH 432 0
DWIDTH 6 0
BBX 5 10 1 0
BITMAP
30
20
00
F8
88
C0
78
08
88
F8
ENDCHAR
STARTCHAR 015C
ENCODING 348
SWIDTH 648 0
DWIDTH 9 0
BBX 8 12 1 0
BITMAP
38
00
7C
C6
82
C0
78
0E
02
83
C2
7C
ENDCHAR
STARTCHAR 015D
ENCODING 349
SWIDTH 432 0
DWIDTH 6 0
BBX 5 10 1 0
BITMAP
30
50
00
F8
88
C0
78
08
88
F8
ENDCHAR
STARTCHAR 015E
ENCODING 350
SWIDTH 648 0
DWIDTH 9 0
BBX 8 13 1 -3
BITMAP
7C
C6
82
C0
78
0E
02
83
C2
7C
10
08
30
ENDCHAR
STARTCHAR 015F
ENCODING 351
SWIDTH 432 0
DWIDTH 6 0
BBX 5 10 1 -3
BITMAP
F8
88
C0
78
08
88
F8
20
10
60
ENDCHAR
STARTCHAR 0160
ENCODING 352
SWIDTH 648 0
DWIDTH 9 0
BBX 8 12 1 0
BITMAP
28
10
7C
C6
82
C0
78
0E
02
83
C2
7C
ENDCHAR
STARTCHAR 0161
ENCODING 353
SWIDTH 432 0
DWIDTH 6 0
BBX 5 10 1 0
BITMAP
50
60
00
F8
88
C0
78
08
88
F8
ENDCHAR
STARTCHAR 0162
ENCODING 354
SWIDTH 576 0
DWIDTH 8 0
BBX 8 13 0 -4
BITMAP
FF
08
08
08
08
08
08
08
08
08
00
08
08
ENDCHAR
STARTCHAR 0163
ENCODING 355
SWIDTH 216 0
DWIDTH 3 0
BBX 4 12 0 -3
BITMAP
40
40
F0
40
40
40
40
40
70
00
20
20
ENDCHAR
STARTCHAR 0164
ENCODING 356
SWIDTH 576 0
DWIDTH 8 0
BBX 8 12 0 0
BITMAP
1C
00
FF
08
08
08
08
08
08
08
08
08
ENDCHAR
STARTCHAR 0165
ENCODING 357
SWIDTH 360 0
DWIDTH 5 0
BBX 5 10 0 0
BITMAP
08
48
48
F0
40
40
40
40
40
70
ENDCHAR
STARTCHAR 0166
ENCODING 358
SWIDTH 576 0
DWIDTH 8 0
BBX 8 10 0 0
BITMAP
FF
08
08
08
08
7E
08
08
08
08
ENDCHAR
STARTCHAR 0167
ENCODING 359
SWIDTH 216 0
DWIDTH 3 0
BBX 4 9 0 1
BITMAP
40
40
E0
40
40
E0
40
40
70
ENDCHAR
STARTCHAR 0168
ENCODING 360
SWIDTH 720 0
DWIDTH 10 0
BBX 8 12 1 0
BITMAP
3C
00
81
81
81
81
81
81
81
C3
42
7E
ENDCHAR
STARTCHAR 0169
ENCODING 361
SWIDTH 504 0
DWIDTH 7 0
BBX 6 10 1 0
BITMAP
68
58
00
8C
8C
8C
8C
8C
8C
74
ENDCHAR
STARTCHAR 016A
ENCODING 362
SWIDTH 720 0
DWIDTH 10 0
BBX 8 12 1 0
BITMAP
3C
00
81
81
81
81
81
81
81
C3
42
7E
ENDCHAR
STARTCHAR 016B
ENCODING 363
SWIDTH 504 0
DWIDTH 7 0
BBX 6 9 1 0
BITMAP
78
00
8C
8C
8C
8C
8C
8C
74
ENDCHAR
STARTCHAR 016C
ENCODING 364
SWIDTH 720 0
DWIDTH 10 0
BBX 8 12 1 0
BITMAP
34
08
81
81
81
81
81
81
81
C3
42
7E
ENDCHAR
STARTCHAR 016D
ENCODING 365
SWIDTH 504 0
DWIDTH 7 0
BBX 6 10 1 0
BITMAP
48
30
00
8C
8C
8C
8C
8C
8C
74
ENDCHAR
STARTCHAR 016E
ENCODING 366
SWIDTH 720 0
DWIDTH 10 0
BBX 8 13 1 0
BITMAP
18
28
10
81
81
81
81
81
81
81
C3
42
7E
ENDCHAR
STARTCHAR 016F
ENCODING 367
SWIDTH 504 0
DWIDTH 7 0
BBX 6 10 1 0
BITMAP
70
50
20
8C
8C
8C
8C
8C
8C
74
ENDCHAR
STARTCHAR 0170
ENCODING 368
SWIDTH 720 0
DWIDTH 10 0
BBX 8 12 1 0
BITMAP
14
00
81
81
81
81
81
81
81
C3
42
7E
ENDCHAR
STARTCHAR 0171
ENCODING 369
SWIDTH 504 0
DWIDTH 7 0
BBX 6 10 1 0
BITMAP
68
50
00
8C
8C
8C
8C
8C
8C
74
ENDCHAR
STARTCHAR 0172
ENCODING 370
SWIDTH 720 0
DWIDTH 10 0
BBX 8 13 1 -3
BITMAP
81
81
81
81
81
81
81
C3
42
7E
10
10
0C
ENDCHAR
STARTCHAR 0173
ENCODING 371
SWIDTH 504 0
DWIDTH 7 0
BBX 7 10 1 -3
BITMAP
8C
8C
8C
8C
8C
8C
74
08
08
06
ENDCHAR
STARTCHAR 0174
ENCODING 372
SWIDTH 936 0
DWIDTH 13 0
BBX 13 12 0 0
BITMAP
0700
0000
C208
4518
4510
4510
6590
28A0
28A0
28A0
3860
1040
ENDCHAR
STARTCHAR 0175
ENCODING 373
SWIDTH 720 0
DWIDTH 10 0
BBX 10 10 0 0
BITMAP
0C00
1A00
0000
8C40
4C80
4C80
5680
7300
3300
3300
ENDCHAR
STARTCHAR 0176
ENCODING 374
SWIDTH 648 0
DWIDTH 9 0
BBX 9 12 0 0
BITMAP
1C00
0000
C180
6100
2200
3600
1400
0800
0800
0800
0800
0800
ENDCHAR
STARTCHAR 0177
ENCODING 375
SWIDTH 432 0
DWIDTH 6 0
BBX 7 13 0 -3
BITMAP
18
2C
00
C6
44
64
28
28
38
10
10
30
60
ENDCHAR
STARTCHAR 0178
ENCODING 376
SWIDTH 648 0
DWIDTH 9 0
BBX 9 12 0 0
BITMAP
1600
0000
C180
6100
2200
3600
1400
0800
0800
0800
0800
0800
ENDCHAR
STARTCHAR 0179
ENCODING 377
SWIDTH 576 0
DWIDTH 8 0
BBX 8 12 0 0
BITMAP
08
00
7F
03
06
04
08
18
30
60
40
FF
ENDCHAR
STARTCHAR 017A
ENCODING 378
SWIDTH 432 0
DWIDTH 6 0
BBX 7 10 0 0
BITMAP
18
10
00
7C
0C
18
30
20
40
FE
ENDCHAR
STARTCHAR 017B
ENCODING 379
SWIDTH 576 0
DWIDTH 8 0
BBX 8 12 0 0
BITMAP
08
00
7F
03
06
04
08
18
30
60
40
FF
ENDCHAR
STARTCHAR 017C
ENCODING 380
SWIDTH 432 0
DWIDTH 6 0
BBX 7 10 0 0
BITMAP
10
10
00
7C
0C
18
30
20
40
FE
ENDCHAR
STARTCHAR 017D
ENCODING 381
SWIDTH 576 0
DWIDTH 8 0
BBX 8 12 0 0
BITMAP
1C
00
7F
03
06
04
08
18
30
60
40
FF
ENDCHAR
STARTCHAR 017E
ENCODING 382
SWIDTH 432 0
DWIDTH 6 0
BBX 7 10 0 0
BITMAP
28
18
00
7C
0C
18
30
20
40
FE
ENDCHAR
STARTCHAR 017F
ENCODING 383
SWIDTH 216 0
DWIDTH 3 0
BBX 3 10 1 0
BITMAP
E0
80
80
80
80
80
80
80
80
80
ENDCHAR
STARTCHAR 018F
ENCODING 399
SWIDTH 720 0
DWIDTH 10 0
BBX 9 10 1 0
BITMAP
3E00
6300
C100
0180
FF80
8180
8180
C100
4300
3E00
ENDCHAR
STARTCHAR 0192
ENCODING 402
SWIDTH 504 0
DWIDTH 7 0
BBX 7 13 0 -3
BITMAP
0E
08
08
3C
08
18
10
10
10
10
10
30
E0
ENDCHAR
STARTCHAR 01A0
ENCODING 416
SWIDTH 792 0
DWIDTH 11 0
BBX 11 10 1 0
BITMAP
3E60
6320
C1C0
8080
8080
8080
8080
C180
6300
3E00
ENDCHAR
STARTCHAR 01A1
ENCODING 417
SWIDTH 648 0
DWIDTH 9 0
BBX 9 7 0 0
BITMAP
3D80
4680
4300
C200
4200
4600
3C00
ENDCHAR
STARTCHAR 01AF
ENCODING 431
SWIDTH 792 0
DWIDTH 11 0
BBX 10 10 1 0
BITMAP
8140
8140
8140
8180
8100
8100
8100
C300
4200
7E00
ENDCHAR
STARTCHAR 01B0
ENCODING 432
SWIDTH 648 0
DWIDTH 9 0
BBX 8 7 1 0
BITMAP
8D
8D
8D
8E
8C
8C
74
ENDCHAR
STARTCHAR 01CD
ENCODING 461
SWIDTH 648 0
DWIDTH 9 0
BBX 9 12 0 0
BITMAP
1400
0800
0800
1400
1400
3600
2200
2200
7F00
4100
4180
C080
ENDCHAR
STARTCHAR 01CE
ENCODING 462
SWIDTH 504 0
DWIDTH 7 0
BBX 6 10 1 0
BITMAP
68
30
00
F8
8C
0C
F4
8C
8C
F4
ENDCHAR
STARTCHAR 01CF
ENCODING 463
SWIDTH 216 0
DWIDTH 3 0
BBX 4 12 0 0
BITMAP
F0
60
60
60
60
60
60
60
60
60
60
60
ENDCHAR
STARTCHAR 01D0
ENCODING 464
SWIDTH 216 0
DWIDTH 3 0
BBX 3 10 0 0
BITMAP
A0
60
00
40
40
40
40
40
40
40
ENDCHAR
STARTCHAR 01D1
ENCODING 465
SWIDTH 720 0
DWIDTH 10 0
BBX 9 12 1 0
BITMAP
1400
0800
3E00
6300
C180
8080
8080
8080
8080
C180
6300
3E00
ENDCHAR
STARTCHAR 01D2
ENCODING 466
SWIDTH 504 0
DWIDTH 7 0
BBX 7 10 0 0
BITMAP
2C
18
00
3C
46
42
C2
42
46
3C
ENDCHAR
STARTCHAR 01D3
ENCODING 467
SWIDTH 720 0
DWIDTH 10 0
BBX 8 12 1 0
BITMAP
3C
18
81
81
81
81
81
81
81
C3
42
7E
ENDCHAR
STARTCHAR 01D4
ENCODING 468
SWIDTH 504 0
DWIDTH 7 0
BBX 6 10 1 0
BITMAP
58
30
00
8C
8C
8C
8C
8C
8C
74
ENDCHAR
STARTCHAR 01D5
ENCODING 469
SWIDTH 720 0
DWIDTH 10 0
BBX 8 13 1 0
BITMAP
3C
00
24
81
81
81
81
81
81
81
C3
42
7E
ENDCHAR
STARTCHAR 01D6
ENCODING 470
SWIDTH 504 0
DWIDTH 7 0
BBX 6 12 1 0
BITMAP
78
00
58
00
00
8C
8C
8C
8C
8C
8C
74
ENDCHAR
STARTCHAR 01D7
ENCODING 471
SWIDTH 720 0
DWIDTH 10 0
BBX 8 13 1 0
BITMAP
0C
08
24
81
81
81
81
81
81
81
C3
42
7E
ENDCHAR
STARTCHAR 01D8
ENCODING 472
SWIDTH 504 0
DWIDTH 7 0
BBX 6 13 1 0
BITMAP
18
30
00
58
00
00
8C
8C
8C
8C
8C
8C
74
ENDCHAR
STARTCHAR 01D9
ENCODING 473
SWIDTH 720 0
DWIDTH 10 0
BBX 8 13 1 0
BITMAP
14
18
24
81
81
81
81
81
81
81
C3
42
7E
ENDCHAR
STARTCHAR 01DA
ENCODING 474
SWIDTH 504 0
DWIDTH 7 0
BBX 6 13 1 0
BITMAP
48
30
00
58
00
00
8C
8C
8C
8C
8C
8C
74
ENDCHAR
STARTCHAR 01DB
ENCODING 475
SWIDTH 720 0
DWIDTH 10 0
BBX 8 13 1 0
BITMAP
30
08
24
81
81
81
81
81
81
81
C3
42
7E
ENDCHAR
STARTCHAR 01DC
ENCODING 476
SWIDTH 504 0
DWIDTH 7 0
BBX 6 13 1 0
BITMAP
60
20
00
58
00
00
8C
8C
8C
8C
8C
8C
74
ENDCHAR
STARTCHAR 01FA
ENCODING 506
SWIDTH 648 0
DWIDTH 9 0
BBX 9 14 0 0
BITMAP
0C00
0800
1400
1400
0800
1400
1400
3600
2200
2200
7F00
4100
4180
C080
ENDCHAR
STARTCHAR 01FB
ENCODING 507
SWIDTH 504 0
DWIDTH 7 0
BBX 6 13 1 0
BITMAP
10
10
00
70
50
20
F8
8C
0C
F4
8C
8C
F4
ENDCHAR
STARTCHAR 01FC
ENCODING 508
SWIDTH 936 0
DWIDTH 13 0
BBX 13 12 0 0
BITMAP
0300
0000
07F8
0D00
0900
1900
11F8
3100
3F00
6100
4100
C1F8
ENDCHAR
STARTCHAR 01FD
ENCODING 509
SWIDTH 864 0
DWIDTH 12 0
BBX 11 10 1 0
BITMAP
0600
0400
0000
FFC0
8C40
0C20
FFE0
8C00
8C40
F3C0
ENDCHAR
STARTCHAR 01FE
ENCODING 510
SWIDTH 720 0
DWIDTH 10 0
BBX 9 12 1 0
BITMAP
0C00
0000
3E80
6300
C380
8480
8C80
9880
9080
E180
6300
BE00
ENDCHAR
STARTCHAR 01FF
ENCODING 511
SWIDTH 576 0
DWIDTH 8 0
BBX 7 10 1 -1
BITMAP
18
10
00
7C
CC
9E
96
A6
C4
F8
ENDCHAR
STARTCHAR 0259
ENCODING 601
SWIDTH 504 0
DWIDTH 7 0
BBX 6 7 1 0
BITMAP
F8
8C
04
FC
84
8C
78
ENDCHAR
STARTCHAR 02C6
ENCODING 710
SWIDTH 288 0
DWIDTH 4 0
BBX 4 2 0 8
BITMAP
60
D0
ENDCHAR
STARTCHAR 02C7
ENCODING 711
SWIDTH 288 0
DWIDTH 4 0
BBX 3 2 1 8
BITMAP
A0
C0
ENDCHAR
STARTCHAR 02C9
ENCODING 713
SWIDTH 288 0
DWIDTH 4 0
BBX 4 1 0 8
BITMAP
F0
ENDCHAR
STARTCHAR 02D8
ENCODING 728
SWIDTH 288 0
DWIDTH 4 0
BBX 4 2 0 8
BITMAP
90
70
ENDCHAR
STARTCHAR 02D9
ENCODING 729
SWIDTH 288 0
DWIDTH 4 0
BBX 1 2 2 8
BITMAP
80
80
ENDCHAR
STARTCHAR 02DA
ENCODING 730
SWIDTH 288 0
DWIDTH 4 0
BBX 2 2 1 8
BITMAP
C0
C0
ENDCHAR
STARTCHAR 02DB
ENCODING 731
SWIDTH 288 0
DWIDTH 4 0
BBX 3 3 1 -3
BITMAP
80
80
60
ENDCHAR
STARTCHAR 02DC
ENCODING 732
SWIDTH 288 0
DWIDTH 4 0
BBX 5 2 0 8
BITMAP
48
B0
ENDCHAR
STARTCHAR 02DD
ENCODING 733
SWIDTH 288 0
DWIDTH 4 0
BBX 4 2 1 8
BITMAP
B0
A0
ENDCHAR
STARTCHAR 0300
ENCODING 768
SWIDTH 0 0
DWIDTH 0 0
BBX 2 2 -3 10
BITMAP
80
40
ENDCHAR
STARTCHAR 0301
ENCODING 769
SWIDTH 0 0
DWIDTH 0 0
BBX 2 2 -3 10
BITMAP
40
80
ENDCHAR
STARTCHAR 0303
ENCODING 771
SWIDTH 0 0
DWIDTH 0 0
BBX 4 2 -6 10
BITMAP
F0
80
ENDCHAR
STARTCHAR 0309
ENCODING 777
SWIDTH 0 0
DWIDTH 0 0
BBX 3 2 -3 10
BITMAP
E0
40
ENDCHAR
STARTCHAR 0323
ENCODING 803
SWIDTH 0 0
DWIDTH 0 0
BBX 1 1 -5 -2
BITMAP
80
ENDCHAR
STARTCHAR 037E
ENCODING 894
SWIDTH 216 0
DWIDTH 3 0
BBX 2 9 1 -2
BITMAP
C0
00
00
00
00
00
C0
40
80
ENDCHAR
STARTCHAR 0384
ENCODING 900
SWIDTH 288 0
DWIDTH 4 0
BBX 2 2 2 8
BITMAP
C0
80
ENDCHAR
STARTCHAR 0385
ENCODING 901
SWIDTH 288 0
DWIDTH 4 0
BBX 5 2 0 8
BITMAP
A8
88
ENDCHAR
STARTCHAR 0386
ENCODING 902
SWIDTH 648 0
DWIDTH 9 0
BBX 9 10 0 0
BITMAP
6800
5400
1400
3600
2200
2200
7F00
4100
4180
C080
ENDCHAR
STARTCHAR 0387
ENCODING 903
SWIDTH 216 0
DWIDTH 3 0
BBX 2 1 1 6
BITMAP
C0
ENDCHAR
STARTCHAR 0388
ENCODING 904
SWIDTH 720 0
DWIDTH 10 0
BBX 10 10 0 0
BITMAP
DFC0
9000
1000
1000
1FC0
1000
1000
1000
1000
1FC0
ENDCHAR
STARTCHAR 0389
ENCODING 905
SWIDTH 792 0
DWIDTH 11 0
BBX 10 10 0 0
BITMAP
F040
B040
3040
3040
3FC0
3040
3040
3040
3040
3040
ENDCHAR
STARTCHAR 038A
ENCODING 906
SWIDTH 360 0
DWIDTH 5 0
BBX 4 10 0 0
BITMAP
F0
B0
30
30
30
30
30
30
30
30
ENDCHAR
STARTCHAR 038C
ENCODING 908
SWIDTH 720 0
DWIDTH 10 0
BBX 10 10 0 0
BITMAP
DF00
B180
60C0
4040
4040
4040
4040
60C0
2180
1F00
ENDCHAR
STARTCHAR 038E
ENCODING 910
SWIDTH 792 0
DWIDTH 11 0
BBX 11 10 0 0
BITMAP
D020
8860
0C40
0480
0380
0300
0300
0300
0300
0300
ENDCHAR
STARTCHAR 038F
ENCODING 911
SWIDTH 720 0
DWIDTH 10 0
BBX 10 10 0 0
BITMAP
DF00
B180
6080
40C0
40C0
40C0
4080
2080
1100
7BC0
ENDCHAR
STARTCHAR 0390
ENCODING 912
SWIDTH 216 0
DWIDTH 3 0
BBX 5 10 -1 0
BITMAP
A8
A8
00
20
20
20
20
20
20
20
ENDCHAR
STARTCHAR 0391
ENCODING 913
SWIDTH 648 0
DWIDTH 9 0
BBX 9 10 0 0
BITMAP
0800
1400
1400
3600
2200
2200
7F00
4100
4180
C080
ENDCHAR
STARTCHAR 0392
ENCODING 914
SWIDTH 648 0
DWIDTH 9 0
BBX 8 10 1 0
BITMAP
FC
86
82
82
FC
86
82
83
86
FC
ENDCHAR
STARTCHAR 0393
ENCODING 915
SWIDTH 504 0
DWIDTH 7 0
BBX 6 10 1 0
BITMAP
FC
80
80
80
80
80
80
80
80
80
ENDCHAR
STARTCHAR 0394
ENCODING 916
SWIDTH 648 0
DWIDTH 9 0
BBX 9 10 0 0
BITMAP
0800
1400
1400
3600
2200
2200
6300
4100
4180
FF80
ENDCHAR
STARTCHAR 0395
ENCODING 917
SWIDTH 648 0
DWIDTH 9 0
BBX 8 10 1 0
BITMAP
FE
80
80
80
FE
80
80
80
80
FF
ENDCHAR
STARTCHAR 0396
ENCODING 918
SWIDTH 576 0
DWIDTH 8 0
BBX 8 10 0 0
BITMAP
7F
03
06
04
08
18
30
60
40
FF
ENDCHAR
STARTCHAR 0397
ENCODING 919
SWIDTH 720 0
DWIDTH 10 0
BBX 8 10 1 0
BITMAP
81
81
81
81
FF
81
81
81
81
81
ENDCHAR
STARTCHAR 0398
ENCODING 920
SWIDTH 720 0
DWIDTH 10 0
BBX 9 10 1 0
BITMAP
3E00
6300
C180
8080
BC80
BC80
8080
C180
6300
3E00
ENDCHAR
STARTCHAR 0399
ENCODING 921
SWIDTH 216 0
DWIDTH 3 0
BBX 2 10 1 0
BITMAP
C0
C0
C0
C0
C0
C0
C0
C0
C0
C0
ENDCHAR
STARTCHAR 039A
ENCODING 922
SWIDTH 648 0
DWIDTH 9 0
BBX 8 10 1 0
BITMAP
83
86
8C
90
B0
D8
8C
84
86
83
ENDCHAR
STARTCHAR 039B
ENCODING 923
SWIDTH 648 0
DWIDTH 9 0
BBX 9 10 0 0
BITMAP
0800
1C00
1400
1600
2200
2200
6300
4100
4180
C080
ENDCHAR
STARTCHAR 039C
ENCODING 924
SWIDTH 792 0
DWIDTH 11 0
BBX 10 10 1 0
BITMAP
C0C0
C1C0
A1C0
A1C0
A2C0
92C0
92C0
94C0
8CC0
8CC0
ENDCHAR
STARTCHAR 039D
ENCODING 925
SWIDTH 720 0
DWIDTH 10 0
BBX 8 10 1 0
BITMAP
C1
C1
A1
B1
91
89
8D
85
83
83
ENDCHAR
STARTCHAR 039E
ENCODING 926
SWIDTH 648 0
DWIDTH 9 0
BBX 7 10 1 0
BITMAP
FE
00
00
00
7C
7C
00
00
00
FE
ENDCHAR
STARTCHAR 039F
ENCODING 927
SWIDTH 720 0
DWIDTH 10 0
BBX 9 10 1 0
BITMAP
3E00
6300
C180
8080
8080
8080
8080
C180
6300
3E00
ENDCHAR
STARTCHAR 03A0
ENCODING 928
SWIDTH 720 0
DWIDTH 10 0
BBX 8 10 1 0
BITMAP
FF
81
81
81
81
81
81
81
81
81
ENDCHAR
STARTCHAR 03A1
ENCODING 929
SWIDTH 648 0
DWIDTH 9 0
BBX 8 10 1 0
BITMAP
FC
82
83
83
86
FC
80
80
80
80
ENDCHAR
STARTCHAR 03A3
ENCODING 931
SWIDTH 576 0
DWIDTH 8 0
BBX 7 10 1 0
BITMAP
FE
C0
60
30
10
10
20
60
C0
FE
ENDCHAR
STARTCHAR 03A4
ENCODING 932
SWIDTH 576 0
DWIDTH 8 0
BBX 8 10 0 0
BITMAP
FF
08
08
08
08
08
08
08
08
08
ENDCHAR
STARTCHAR 03A5
ENCODING 933
SWIDTH 648 0
DWIDTH 9 0
BBX 9 10 0 0
BITMAP
C180
6100
2200
3600
1400
0800
0800
0800
0800
0800
ENDCHAR
STARTCHAR 03A6
ENCODING 934
SWIDTH 792 0
DWIDTH 11 0
BBX 9 10 1 0
BITMAP
0800
3E00
C980
8880
8880
8880
8880
4980
3E00
0800
ENDCHAR
STARTCHAR 03A7
ENCODING 935
SWIDTH 648 0
DWIDTH 9 0
BBX 9 10 0 0
BITMAP
4180
2300
3200
1400
0C00
1C00
1600
2200
6300
C180
ENDCHAR
STARTCHAR 03A8
ENCODING 936
SWIDTH 792 0
DWIDTH 11 0
BBX 10 10 1 0
BITMAP
88C0
88C0
88C0
88C0
C8C0
6980
3F00
0800
0800
0800
ENDCHAR
STARTCHAR 03A9
ENCODING 937
SWIDTH 720 0
DWIDTH 10 0
BBX 9 10 1 0
BITMAP
3E00
6300
C100
8180
8180
8180
8100
4100
6200
F780
ENDCHAR
STARTCHAR 03AA
ENCODING 938
SWIDTH 216 0
DWIDTH 3 0
BBX 4 12 0 0
BITMAP
90
00
60
60
60
60
60
60
60
60
60
60
ENDCHAR
STARTCHAR 03AB
ENCODING 939
SWIDTH 648 0
DWIDTH 9 0
BBX 9 12 0 0
BITMAP
1600
0000
C180
6100
2200
3600
1400
0800
0800
0800
0800
0800
ENDCHAR
STARTCHAR 03AC
ENCODING 940
SWIDTH 576 0
DWIDTH 8 0
BBX 7 10 0 0
BITMAP
08
10
00
7E
46
42
C2
46
46
3A
ENDCHAR
STARTCHAR 03AD
ENCODING 941
SWIDTH 432 0
DWIDTH 6 0
BBX 5 10 1 0
BITMAP
30
20
00
F8
80
80
E0
80
80
F0
ENDCHAR
STARTCHAR 03AE
ENCODING 942
SWIDTH 504 0
DWIDTH 7 0
BBX 6 13 1 -3
BITMAP
10
20
00
F8
8C
84
84
84
84
84
04
04
04
ENDCHAR
STARTCHAR 03AF
ENCODING 943
SWIDTH 216 0
DWIDTH 3 0
BBX 2 10 1 0
BITMAP
C0
80
00
80
80
80
80
80
80
80
ENDCHAR
STARTCHAR 03B0
ENCODING 944
SWIDTH 504 0
DWIDTH 7 0
BBX 6 10 1 0
BITMAP
D8
E8
00
8C
8C
8C
8C
8C
C8
78
ENDCHAR
STARTCHAR 03B1
ENCODING 945
SWIDTH 576 0
DWIDTH 8 0
BBX 7 7 0 0
BITMAP
7E
46
42
C2
46
46
3A
ENDCHAR
STARTCHAR 03B2
ENCODING 946
SWIDTH 504 0
DWIDTH 7 0
BBX 6 13 1 -3
BITMAP
78
CC
84
88
B0
8C
84
84
C4
B8
80
80
80
ENDCHAR
STARTCHAR 03B3
ENCODING 947
SWIDTH 432 0
DWIDTH 6 0
BBX 7 10 0 -3
BITMAP
C6
44
44
28
28
38
10
10
10
10
ENDCHAR
STARTCHAR 03B4
ENCODING 948
SWIDTH 504 0
DWIDTH 7 0
BBX 7 10 0 0
BITMAP
7E
20
18
3C
46
42
C2
42
46
3C
ENDCHAR
STARTCHAR 03B5
ENCODING 949
SWIDTH 432 0
DWIDTH 6 0
BBX 5 7 1 0
BITMAP
F8
80
80
E0
80
80
F0
ENDCHAR
STARTCHAR 03B6
ENCODING 950
SWIDTH 432 0
DWIDTH 6 0
BBX 6 13 0 -3
BITMAP
3C
08
10
20
60
40
40
C0
40
78
04
0C
18
ENDCHAR
STARTCHAR 03B7
ENCODING 951
SWIDTH 504 0
DWIDTH 7 0
BBX 6 10 1 -3
BITMAP
F8
8C
84
84
84
84
84
04
04
04
ENDCHAR
STARTCHAR 03B8
ENCODING 952
SWIDTH 504 0
DWIDTH 7 0
BBX 6 10 1 0
BITMAP
78
C8
84
84
84
FC
84
84
CC
78
ENDCHAR
STARTCHAR 03B9
ENCODING 953
SWIDTH 216 0
DWIDTH 3 0
BBX 1 7 1 0
BITMAP
80
80
80
80
80
80
80
ENDCHAR
STARTCHAR 03BA
ENCODING 954
SWIDTH 432 0
DWIDTH 6 0
BBX 6 7 1 0
BITMAP
98
B0
E0
E0
B0
98
8C
ENDCHAR
STARTCHAR 03BB
ENCODING 955
SWIDTH 432 0
DWIDTH 6 0
BBX 7 10 0 0
BITMAP
20
30
10
10
38
28
68
44
44
C6
ENDCHAR
STARTCHAR 03BC
ENCODING 956
SWIDTH 576 0
DWIDTH 8 0
BBX 6 10 1 -3
BITMAP
84
84
84
84
84
CC
FC
80
80
80
ENDCHAR
STARTCHAR 03BD
ENCODING 957
SWIDTH 432 0
DWIDTH 6 0
BBX 7 7 0 0
BITMAP
C6
44
44
28
28
38
10
ENDCHAR
STARTCHAR 03BE
ENCODING 958
SWIDTH 432 0
DWIDTH 6 0
BBX 5 13 1 -3
BITMAP
70
80
80
70
60
80
80
80
80
70
08
18
30
ENDCHAR
STARTCHAR 03BF
ENCODING 959
SWIDTH 504 0
DWIDTH 7 0
BBX 7 7 0 0
BITMAP
3C
46
42
C2
42
46
3C
ENDCHAR
STARTCHAR 03C0
ENCODING 960
SWIDTH 648 0
DWIDTH 9 0
BBX 9 7 0 0
BITMAP
FF80
2300
2300
2300
2300
2300
2300
ENDCHAR
STARTCHAR 03C1
ENCODING 961
SWIDTH 504 0
DWIDTH 7 0
BBX 6 10 1 -3
BITMAP
78
C4
84
84
84
C4
F8
80
80
80
ENDCHAR
STARTCHAR 03C2
ENCODING 962
SWIDTH 432 0
DWIDTH 6 0
BBX 5 10 1 -3
BITMAP
78
C0
80
80
80
C0
78
08
08
30
ENDCHAR
STARTCHAR 03C3
ENCODING 963
SWIDTH 576 0
DWIDTH 8 0
BBX 8 7 0 0
BITMAP
3F
46
42
C2
42
46
3C
ENDCHAR
STARTCHAR 03C4
ENCODING 964
SWIDTH 360 0
DWIDTH 5 0
BBX 5 7 0 0
BITMAP
F8
20
20
20
20
20
20
ENDCHAR
STARTCHAR 03C5
ENCODING 965
SWIDTH 504 0
DWIDTH 7 0
BBX 6 7 1 0
BITMAP
8C
8C
8C
8C
8C
C8
78
ENDCHAR
STARTCHAR 03C6
ENCODING 966
SWIDTH 648 0
DWIDTH 9 0
BBX 9 10 0 -3
BITMAP
6F00
4900
4900
C980
4900
6B00
3E00
0800
0800
0800
ENDCHAR
STARTCHAR 03C7
ENCODING 967
SWIDTH 504 0
DWIDTH 7 0
BBX 7 10 0 -3
BITMAP
46
64
2C
38
10
38
28
64
44
C2
ENDCHAR
STARTCHAR 03C8
ENCODING 968
SWIDTH 648 0
DWIDTH 9 0
BBX 8 10 1 -3
BITMAP
99
99
99
99
99
DB
7E
18
18
18
ENDCHAR
STARTCHAR 03C9
ENCODING 969
SWIDTH 720 0
DWIDTH 10 0
BBX 9 7 1 0
BITMAP
C180
8080
8880
8880
8880
9880
7700
ENDCHAR
STARTCHAR 03CA
ENCODING 970
SWIDTH 216 0
DWIDTH 3 0
BBX 3 10 0 0
BITMAP
A0
00
00
40
40
40
40
40
40
40
ENDCHAR
STARTCHAR 03CB
ENCODING 971
SWIDTH 504 0
DWIDTH 7 0
BBX 6 10 1 0
BITMAP
48
00
00
8C
8C
8C
8C
8C
C8
78
ENDCHAR
STARTCHAR 03CC
ENCODING 972
SWIDTH 504 0
DWIDTH 7 0
BBX 7 10 0 0
BITMAP
08
10
00
3C
46
42
C2
42
46
3C
ENDCHAR
STARTCHAR 03CD
ENCODING 973
SWIDTH 504 0
DWIDTH 7 0
BBX 6 10 1 0
BITMAP
10
20
00
8C
8C
8C
8C
8C
C8
78
ENDCHAR
STARTCHAR 03CE
ENCODING 974
SWIDTH 720 0
DWIDTH 10 0
BBX 9 10 1 0
BITMAP
0C00
0800
0000
C180
8080
8880
8880
8880
9880
7700
ENDCHAR
STARTCHAR 0401
ENCODING 1025
SWIDTH 648 0
DWIDTH 9 0
BBX 8 12 1 0
BITMAP
2C
00
FE
80
80
80
FE
80
80
80
80
FF
ENDCHAR
STARTCHAR 0402
ENCODING 1026
SWIDTH 864 0
DWIDTH 12 0
BBX 11 10 0 0
BITMAP
FF00
0800
0800
0800
0FC0
0820
0820
0820
0820
09C0
ENDCHAR
STARTCHAR 0403
ENCODING 1027
SWIDTH 504 0
DWIDTH 7 0
BBX 7 12 1 0
BITMAP
10
00
FE
80
80
80
80
80
80
80
80
80
ENDCHAR
STARTCHAR 0404
ENCODING 1028
SWIDTH 648 0
DWIDTH 9 0
BBX 8 10 1 0
BITMAP
3E
63
C1
80
F8
80
80
C1
43
3E
ENDCHAR
STARTCHAR 0405
ENCODING 1029
SWIDTH 648 0
DWIDTH 9 0
BBX 8 10 1 0
BITMAP
7C
C6
82
C0
78
0E
02
83
C2
7C
ENDCHAR
STARTCHAR 0406
ENCODING 1030
SWIDTH 216 0
DWIDTH 3 0
BBX 2 10 1 0
BITMAP
C0
C0
C0
C0
C0
C0
C0
C0
C0
C0
ENDCHAR
STARTCHAR 0407
ENCODING 1031
SWIDTH 216 0
DWIDTH 3 0
BBX 4 12 0 0
BITMAP
90
00
60
60
60
60
60
60
60
60
60
60
ENDCHAR
STARTCHAR 0408
ENCODING 1032
SWIDTH 432 0
DWIDTH 6 0
BBX 6 10 0 0
BITMAP
04
04
04
04
04
04
04
C4
4C
78
ENDCHAR
STARTCHAR 0409
ENCODING 1033
SWIDTH 1008 0
DWIDTH 14 0
BBX 14 10 0 0
BITMAP
3F00
2100
2100
2100
21F0
211C
2104
2104
210C
E1F8
ENDCHAR
STARTCHAR 040A
ENCODING 1034
SWIDTH 1008 0
DWIDTH 14 0
BBX 12 10 1 0
BITMAP
8400
8400
8400
8400
FFE0
8470
8410
8410
8410
87E0
ENDCHAR
STARTCHAR 040B
ENCODING 1035
SWIDTH 792 0
DWIDTH 11 0
BBX 11 10 0 0
BITMAP
FF00
0800
0800
0800
0FC0
0820
0820
0820
0820
0820
ENDCHAR
STARTCHAR 040C
ENCODING 1036
SWIDTH 576 0
DWIDTH 8 0
BBX 7 12 1 0
BITMAP
18
00
86
88
88
90
F0
B0
98
8C
8C
86
ENDCHAR
STARTCHAR 040E
ENCODING 1038
SWIDTH 576 0
DWIDTH 8 0
BBX 9 12 0 0
BITMAP
1600
0800
C180
4100
6300
2200
1600
1400
0C00
0800
0800
7000
ENDCHAR
STARTCHAR 040F
ENCODING 1039
SWIDTH 648 0
DWIDTH 9 0
BBX 8 13 1 -3
BITMAP
81
81
81
81
81
81
81
81
81
FF
18
18
18
ENDCHAR
STARTCHAR 0410
ENCODING 1040
SWIDTH 648 0
DWIDTH 9 0
BBX 9 10 0 0
BITMAP
0800
1400
1400
3600
2200
2200
7F00
4100
4180
C080
ENDCHAR
STARTCHAR 0411
ENCODING 1041
SWIDTH 648 0
DWIDTH 9 0
BBX 8 10 1 0
BITMAP
FE
80
80
80
FC
86
83
83
82
FC
ENDCHAR
STARTCHAR 0412
ENCODING 1042
SWIDTH 648 0
DWIDTH 9 0
BBX 8 10 1 0
BITMAP
FC
86
82
82
FC
86
82
83
86
FC
ENDCHAR
STARTCHAR 0413
ENCODING 1043
SWIDTH 504 0
DWIDTH 7 0
BBX 7 10 1 0
BITMAP
FE
80
80
80
80
80
80
80
80
80
ENDCHAR
STARTCHAR 0414
ENCODING 1044
SWIDTH 648 0
DWIDTH 9 0
BBX 9 12 0 -2
BITMAP
3F00
2100
2100
2100
2100
2100
2100
6100
4100
FF80
8080
8080
ENDCHAR
STARTCHAR 0415
ENCODING 1045
SWIDTH 648 0
DWIDTH 9 0
BBX 8 10 1 0
BITMAP
FE
80
80
80
FE
80
80
80
80
FF
ENDCHAR
STARTCHAR 0416
ENCODING 1046
SWIDTH 864 0
DWIDTH 12 0
BBX 13 10 0 0
BITMAP
C218
2220
3260
1240
1FC0
1AC0
3260
2220
6230
C210
ENDCHAR
STARTCHAR 0417
ENCODING 1047
SWIDTH 576 0
DWIDTH 8 0
BBX 7 10 1 0
BITMAP
78
C4
84
04
38
0C
06
86
C4
7C
ENDCHAR
STARTCHAR 0418
ENCODING 1048
SWIDTH 648 0
DWIDTH 9 0
BBX 8 10 1 0
BITMAP
83
83
85
8D
89
91
B1
A1
C1
C1
ENDCHAR
STARTCHAR 0419
ENCODING 1049
SWIDTH 648 0
DWIDTH 9 0
BBX 8 12 1 0
BITMAP
2C
10
83
83
85
8D
89
91
B1
A1
C1
C1
ENDCHAR
STARTCHAR 041A
ENCODING 1050
SWIDTH 576 0
DWIDTH 8 0
BBX 7 10 1 0
BITMAP
86
88
88
90
F0
B0
98
8C
8C
86
ENDCHAR
STARTCHAR 041B
ENCODING 1051
SWIDTH 648 0
DWIDTH 9 0
BBX 8 10 0 0
BITMAP
3F
21
21
21
21
21
21
21
21
E1
ENDCHAR
STARTCHAR 041C
ENCODING 1052
SWIDTH 792 0
DWIDTH 11 0
BBX 10 10 1 0
BITMAP
C0C0
C1C0
A1C0
A1C0
A2C0
92C0
92C0
94C0
8CC0
8CC0
ENDCHAR
STARTCHAR 041D
ENCODING 1053
SWIDTH 720 0
DWIDTH 10 0
BBX 8 10 1 0
BITMAP
81
81
81
81
FF
81
81
81
81
81
ENDCHAR
STARTCHAR 041E
ENCODING 1054
SWIDTH 720 0
DWIDTH 10 0
BBX 9 10 1 0
BITMAP
3E00
6300
C180
8080
8080
8080
8080
C180
6300
3E00
ENDCHAR
STARTCHAR 041F
ENCODING 1055
SWIDTH 648 0
DWIDTH 9 0
BBX 8 10 1 0
BITMAP
FF
81
81
81
81
81
81
81
81
81
ENDCHAR
STARTCHAR 0420
ENCODING 1056
SWIDTH 648 0
DWIDTH 9 0
BBX 8 10 1 0
BITMAP
FC
82
83
83
86
FC
80
80
80
80
ENDCHAR
STARTCHAR 0421
ENCODING 1057
SWIDTH 720 0
DWIDTH 10 0
BBX 8 10 1 0
BITMAP
3E
63
C1
80
80
80
80
C1
43
3E
ENDCHAR
STARTCHAR 0422
ENCODING 1058
SWIDTH 576 0
DWIDTH 8 0
BBX 8 10 0 0
BITMAP
FF
08
08
08
08
08
08
08
08
08
ENDCHAR
STARTCHAR 0423
ENCODING 1059
SWIDTH 576 0
DWIDTH 8 0
BBX 9 10 0 0
BITMAP
C180
4100
6300
2200
1600
1400
0C00
0800
0800
7000
ENDCHAR
STARTCHAR 0424
ENCODING 1060
SWIDTH 720 0
DWIDTH 10 0
BBX 9 10 1 0
BITMAP
0800
3C00
6B00
8980
8880
8880
8980
6B00
3C00
0800
ENDCHAR
STARTCHAR 0425
ENCODING 1061
SWIDTH 648 0
DWIDTH 9 0
BBX 9 10 0 0
BITMAP
4180
2300
3200
1400
0C00
1C00
1600
2200
6300
C180
ENDCHAR
STARTCHAR 0426
ENCODING 1062
SWIDTH 720 0
DWIDTH 10 0
BBX 9 13 1 -3
BITMAP
8100
8100
8100
8100
8100
8100
8100
8100
8100
FF80
0080
0080
0080
ENDCHAR
STARTCHAR 0427
ENCODING 1063
SWIDTH 648 0
DWIDTH 9 0
BBX 7 10 1 0
BITMAP
82
82
82
82
82
FE
32
02
02
02
ENDCHAR
STARTCHAR 0428
ENCODING 1064
SWIDTH 864 0
DWIDTH 12 0
BBX 11 10 1 0
BITMAP
8460
8460
8460
8460
8460
8460
8460
8460
8460
FFE0
ENDCHAR
STARTCHAR 0429
ENCODING 1065
SWIDTH 936 0
DWIDTH 13 0
BBX 12 13 1 -3
BITMAP
8460
8460
8460
8460
8460
8460
8460
8460
8460
FFF0
0030
0030
0030
ENDCHAR
STARTCHAR 042A
ENCODING 1066
SWIDTH 792 0
DWIDTH 11 0
BBX 10 10 0 0
BITMAP
F000
1000
1000
1000
1F80
10C0
1040
1040
10C0
1F80
ENDCHAR
STARTCHAR 042B
ENCODING 1067
SWIDTH 864 0
DWIDTH 12 0
BBX 10 10 1 0
BITMAP
8040
8040
8040
8040
FC40
8640
8340
8340
8240
FC40
ENDCHAR
STARTCHAR 042C
ENCODING 1068
SWIDTH 648 0
DWIDTH 9 0
BBX 8 10 1 0
BITMAP
80
80
80
80
FC
86
83
83
82
FC
ENDCHAR
STARTCHAR 042D
ENCODING 1069
SWIDTH 648 0
DWIDTH 9 0
BBX 8 10 1 0
BITMAP
7C
C6
83
01
1F
01
01
83
C2
7C
ENDCHAR
STARTCHAR 042E
ENCODING 1070
SWIDTH 1008 0
DWIDTH 14 0
BBX 12 10 1 0
BITMAP
83C0
8C20
8830
9810
9810
F810
9810
8830
8C20
87C0
ENDCHAR
STARTCHAR 042F
ENCODING 1071
SWIDTH 720 0
DWIDTH 10 0
BBX 9 10 0 0
BITMAP
3F80
6080
4080
6080
3F80
0F80
3080
2080
6080
C080
ENDCHAR
STARTCHAR 0430
ENCODING 1072
SWIDTH 504 0
DWIDTH 7 0
BBX 6 7 1 0
BITMAP
F8
8C
0C
F4
8C
8C
F4
ENDCHAR
STARTCHAR 0431
ENCODING 1073
SWIDTH 504 0
DWIDTH 7 0
BBX 6 10 1 0
BITMAP
7C
C0
80
F8
C4
84
84
84
CC
78
ENDCHAR
STARTCHAR 0432
ENCODING 1074
SWIDTH 504 0
DWIDTH 7 0
BBX 6 7 1 0
BITMAP
F8
8C
88
F8
8C
8C
F8
ENDCHAR
STARTCHAR 0433
ENCODING 1075
SWIDTH 360 0
DWIDTH 5 0
BBX 4 7 1 0
BITMAP
F0
80
80
80
80
80
80
ENDCHAR
STARTCHAR 0434
ENCODING 1076
SWIDTH 576 0
DWIDTH 8 0
BBX 8 9 0 -2
BITMAP
3E
22
22
22
42
42
FF
81
81
ENDCHAR
STARTCHAR 0435
ENCODING 1077
SWIDTH 504 0
DWIDTH 7 0
BBX 6 7 1 0
BITMAP
78
84
84
FC
80
8C
78
ENDCHAR
STARTCHAR 0436
ENCODING 1078
SWIDTH 648 0
DWIDTH 9 0
BBX 9 7 0 0
BITMAP
C980
6900
2A00
3E00
6900
4900
C880
ENDCHAR
STARTCHAR 0437
ENCODING 1079
SWIDTH 432 0
DWIDTH 6 0
BBX 6 7 0 0
BITMAP
78
4C
08
18
04
C4
78
ENDCHAR
STARTCHAR 0438
ENCODING 1080
SWIDTH 504 0
DWIDTH 7 0
BBX 6 7 1 0
BITMAP
8C
9C
94
A4
A4
C4
C4
ENDCHAR
STARTCHAR 0439
ENCODING 1081
SWIDTH 504 0
DWIDTH 7 0
BBX 6 10 1 0
BITMAP
48
30
00
8C
9C
94
A4
A4
C4
C4
ENDCHAR
STARTCHAR 043A
ENCODING 1082
SWIDTH 432 0
DWIDTH 6 0
BBX 5 7 1 0
BITMAP
98
90
A0
E0
B0
90
88
ENDCHAR
STARTCHAR 043B
ENCODING 1083
SWIDTH 576 0
DWIDTH 8 0
BBX 7 7 0 0
BITMAP
3E
22
22
22
22
62
C2
ENDCHAR
STARTCHAR 043C
ENCODING 1084
SWIDTH 648 0
DWIDTH 9 0
BBX 8 7 1 0
BITMAP
C3
C7
A7
AF
AB
9B
93
ENDCHAR
STARTCHAR 043D
ENCODING 1085
SWIDTH 504 0
DWIDTH 7 0
BBX 6 7 1 0
BITMAP
84
84
84
FC
84
84
84
ENDCHAR
STARTCHAR 043E
ENCODING 1086
SWIDTH 504 0
DWIDTH 7 0
BBX 7 7 0 0
BITMAP
3C
46
42
C2
42
46
3C
ENDCHAR
STARTCHAR 043F
ENCODING 1087
SWIDTH 504 0
DWIDTH 7 0
BBX 6 7 1 0
BITMAP
FC
8C
8C
8C
8C
8C
8C
ENDCHAR
STARTCHAR 0440
ENCODING 1088
SWIDTH 504 0
DWIDTH 7 0
BBX 6 10 1 -3
BITMAP
F8
84
84
84
84
CC
F8
80
80
80
ENDCHAR
STARTCHAR 0441
ENCODING 1089
SWIDTH 432 0
DWIDTH 6 0
BBX 6 7 1 0
BITMAP
78
8C
80
80
84
8C
78
ENDCHAR
STARTCHAR 0442
ENCODING 1090
SWIDTH 432 0
DWIDTH 6 0
BBX 6 7 0 0
BITMAP
FC
10
10
10
10
10
10
ENDCHAR
STARTCHAR 0443
ENCODING 1091
SWIDTH 432 0
DWIDTH 6 0
BBX 7 10 0 -3
BITMAP
C6
44
64
28
28
38
10
10
30
60
ENDCHAR
STARTCHAR 0444
ENCODING 1092
SWIDTH 792 0
DWIDTH 11 0
BBX 10 13 1 -3
BITMAP
0800
0800
0800
FF80
8CC0
8840
8840
8840
8C80
7F80
0800
0800
0800
ENDCHAR
STARTCHAR 0445
ENCODING 1093
SWIDTH 432 0
DWIDTH 6 0
BBX 6 7 0 0
BITMAP
44
68
38
10
28
6C
C4
ENDCHAR
STARTCHAR 0446
ENCODING 1094
SWIDTH 504 0
DWIDTH 7 0
BBX 7 9 1 -2
BITMAP
84
84
84
84
84
84
FE
02
02
ENDCHAR
STARTCHAR 0447
ENCODING 1095
SWIDTH 504 0
DWIDTH 7 0
BBX 6 7 0 0
BITMAP
C4
C4
44
7C
04
04
04
ENDCHAR
STARTCHAR 0448
ENCODING 1096
SWIDTH 792 0
DWIDTH 11 0
BBX 9 7 1 0
BITMAP
8880
8880
8880
8880
8880
8880
FF80
ENDCHAR
STARTCHAR 0449
ENCODING 1097
SWIDTH 792 0
DWIDTH 11 0
BBX 10 9 1 -2
BITMAP
8880
8880
8880
8880
8880
8880
FFC0
0040
0040
ENDCHAR
STARTCHAR 044A
ENCODING 1098
SWIDTH 576 0
DWIDTH 8 0
BBX 8 7 0 0
BITMAP
F0
30
30
3F
31
31
3E
ENDCHAR
STARTCHAR 044B
ENCODING 1099
SWIDTH 648 0
DWIDTH 9 0
BBX 8 7 1 0
BITMAP
81
81
81
F9
85
8D
F9
ENDCHAR
STARTCHAR 044C
ENCODING 1100
SWIDTH 504 0
DWIDTH 7 0
BBX 6 7 1 0
BITMAP
80
80
80
F8
8C
8C
F8
ENDCHAR
STARTCHAR 044D
ENCODING 1101
SWIDTH 504 0
DWIDTH 7 0
BBX 6 7 1 0
BITMAP
F8
88
0C
3C
88
88
F0
ENDCHAR
STARTCHAR 044E
ENCODING 1102
SWIDTH 720 0
DWIDTH 10 0
BBX 9 7 1 0
BITMAP
8F00
9180
9080
F080
9080
9100
8F00
ENDCHAR
STARTCHAR 044F
ENCODING 1103
SWIDTH 504 0
DWIDTH 7 0
BBX 6 7 1 0
BITMAP
FC
8C
8C
FC
6C
CC
8C
ENDCHAR
STARTCHAR 0451
ENCODING 1105
SWIDTH 504 0
DWIDTH 7 0
BBX 6 10 1 0
BITMAP
58
00
00
78
84
84
FC
80
8C
78
ENDCHAR
STARTCHAR 0452
ENCODING 1106
SWIDTH 504 0
DWIDTH 7 0
BBX 7 13 0 -3
BITMAP
40
F0
40
7C
46
42
42
42
42
42
02
06
0C
ENDCHAR
STARTCHAR 0453
ENCODING 1107
SWIDTH 360 0
DWIDTH 5 0
BBX 4 10 1 0
BITMAP
20
20
00
F0
80
80
80
80
80
80
ENDCHAR
STARTCHAR 0454
ENCODING 1108
SWIDTH 504 0
DWIDTH 7 0
BBX 6 7 1 0
BITMAP
78
8C
80
E0
84
8C
78
ENDCHAR
STARTCHAR 0455
ENCODING 1109
SWIDTH 432 0
DWIDTH 6 0
BBX 5 7 1 0
BITMAP
F8
88
C0
78
08
88
F8
ENDCHAR
STARTCHAR 0456
ENCODING 1110
SWIDTH 216 0
DWIDTH 3 0
BBX 1 10 1 0
BITMAP
80
00
00
80
80
80
80
80
80
80
ENDCHAR
STARTCHAR 0457
ENCODING 1111
SWIDTH 216 0
DWIDTH 3 0
BBX 4 10 0 0
BITMAP
90
00
00
60
60
60
60
60
60
60
ENDCHAR
STARTCHAR 0458
ENCODING 1112
SWIDTH 216 0
DWIDTH 3 0
BBX 3 13 -1 -3
BITMAP
20
00
00
20
20
20
20
20
20
20
20
20
E0
ENDCHAR
STARTCHAR 0459
ENCODING 1113
SWIDTH 864 0
DWIDTH 12 0
BBX 12 7 0 0
BITMAP
3E00
2200
2200
23F0
2210
2210
C3E0
ENDCHAR
STARTCHAR 045A
ENCODING 1114
SWIDTH 792 0
DWIDTH 11 0
BBX 10 7 1 0
BITMAP
8800
8800
8800
FF80
88C0
88C0
8F80
ENDCHAR
STARTCHAR 045B
ENCODING 1115
SWIDTH 504 0
DWIDTH 7 0
BBX 7 10 0 0
BITMAP
40
F0
40
7C
46
42
42
42
42
42
ENDCHAR
STARTCHAR 045C
ENCODING 1116
SWIDTH 432 0
DWIDTH 6 0
BBX 5 10 1 0
BITMAP
20
20
00
98
90
A0
E0
B0
90
88
ENDCHAR
STARTCHAR 045E
ENCODING 1118
SWIDTH 432 0
DWIDTH 6 0
BBX 7 13 0 -3
BITMAP
20
38
00
C6
44
64
28
28
38
10
10
30
60
ENDCHAR
STARTCHAR 045F
ENCODING 1119
SWIDTH 504 0
DWIDTH 7 0
BBX 6 9 1 -2
BITMAP
84
84
84
84
84
84
FC
20
20
ENDCHAR
STARTCHAR 0490
ENCODING 1168
SWIDTH 432 0
DWIDTH 6 0
BBX 5 13 1 0
BITMAP
08
08
08
F8
80
80
80
80
80
80
80
80
80
ENDCHAR
STARTCHAR 0491
ENCODING 1169
SWIDTH 360 0
DWIDTH 5 0
BBX 4 10 1 0
BITMAP
10
10
10
F0
80
80
80
80
80
80
ENDCHAR
STARTCHAR 0492
ENCODING 1170
SWIDTH 504 0
DWIDTH 7 0
BBX 8 10 0 0
BITMAP
7F
40
40
40
40
F8
40
40
40
40
ENDCHAR
STARTCHAR 0493
ENCODING 1171
SWIDTH 360 0
DWIDTH 5 0
BBX 5 7 0 0
BITMAP
78
40
40
F0
40
40
40
ENDCHAR
STARTCHAR 0496
ENCODING 1174
SWIDTH 864 0
DWIDTH 12 0
BBX 13 13 0 -3
BITMAP
C238
2220
3260
1240
1FC0
1AC0
3260
2220
6230
C218
0008
0008
0008
ENDCHAR
STARTCHAR 0497
ENCODING 1175
SWIDTH 648 0
DWIDTH 9 0
BBX 9 9 0 -2
BITMAP
C980
2900
2A00
3E00
6900
4900
C880
0080
0080
ENDCHAR
STARTCHAR 049A
ENCODING 1178
SWIDTH 576 0
DWIDTH 8 0
BBX 7 13 1 -3
BITMAP
86
88
88
90
F0
B0
98
88
8C
86
02
02
02
ENDCHAR
STARTCHAR 049B
ENCODING 1179
SWIDTH 432 0
DWIDTH 6 0
BBX 5 9 1 -2
BITMAP
98
90
A0
E0
B0
90
88
08
08
ENDCHAR
STARTCHAR 049C
ENCODING 1180
SWIDTH 576 0
DWIDTH 8 0
BBX 7 10 1 0
BITMAP
86
88
A8
B0
F0
B0
B8
AC
8C
86
ENDCHAR
STARTCHAR 049D
ENCODING 1181
SWIDTH 432 0
DWIDTH 6 0
BBX 5 7 1 0
BITMAP
98
D0
A0
E0
B0
90
88
ENDCHAR
STARTCHAR 04A2
ENCODING 1186
SWIDTH 720 0
DWIDTH 10 0
BBX 9 13 1 -3
BITMAP
8100
8100
8100
8100
FF00
8100
8100
8100
8100
8180
0080
0080
0080
ENDCHAR
STARTCHAR 04A3
ENCODING 1187
SWIDTH 504 0
DWIDTH 7 0
BBX 7 9 1 -2
BITMAP
84
84
84
FC
84
84
86
02
02
ENDCHAR
STARTCHAR 04AE
ENCODING 1198
SWIDTH 504 0
DWIDTH 7 0
BBX 7 10 0 0
BITMAP
C2
46
64
2C
18
18
10
10
10
10
ENDCHAR
STARTCHAR 04AF
ENCODING 1199
SWIDTH 432 0
DWIDTH 6 0
BBX 7 10 0 -3
BITMAP
C6
44
44
28
28
28
10
10
10
10
ENDCHAR
STARTCHAR 04B0
ENCODING 1200
SWIDTH 504 0
DWIDTH 7 0
BBX 7 10 0 0
BITMAP
C2
46
64
2C
18
FE
10
10
10
10
ENDCHAR
STARTCHAR 04B1
ENCODING 1201
SWIDTH 432 0
DWIDTH 6 0
BBX 7 10 0 -3
BITMAP
C6
44
44
28
28
28
10
7C
10
10
ENDCHAR
STARTCHAR 04B2
ENCODING 1202
SWIDTH 648 0
DWIDTH 9 0
BBX 9 13 0 -3
BITMAP
4180
2300
3200
1400
0C00
1C00
1600
2200
6300
C180
0080
0080
0080
ENDCHAR
STARTCHAR 04B3
ENCODING 1203
SWIDTH 432 0
DWIDTH 6 0
BBX 7 9 0 -2
BITMAP
44
68
38
10
28
6C
C6
02
02
ENDCHAR
STARTCHAR 04B8
ENCODING 1208
SWIDTH 648 0
DWIDTH 9 0
BBX 7 10 1 0
BITMAP
82
82
92
92
92
FE
32
12
02
02
ENDCHAR
STARTCHAR 04B9
ENCODING 1209
SWIDTH 504 0
DWIDTH 7 0
BBX 6 7 0 0
BITMAP
C4
C4
54
7C
14
14
04
ENDCHAR
STARTCHAR 04BA
ENCODING 1210
SWIDTH 648 0
DWIDTH 9 0
BBX 8 10 1 0
BITMAP
80
80
80
98
FE
83
83
83
83
83
ENDCHAR
STARTCHAR 04BB
ENCODING 1211
SWIDTH 504 0
DWIDTH 7 0
BBX 6 7 1 0
BITMAP
80
80
B0
C8
8C
84
84
ENDCHAR
STARTCHAR 04D8
ENCODING 1240
SWIDTH 720 0
DWIDTH 10 0
BBX 9 10 1 0
BITMAP
3E00
6300
C100
0180
FF80
8180
8180
C100
4300
3E00
ENDCHAR
STARTCHAR 04D9
ENCODING 1241
SWIDTH 504 0
DWIDTH 7 0
BBX 6 7 1 0
BITMAP
F8
8C
04
FC
84
8C
78
ENDCHAR
STARTCHAR 04E8
ENCODING 1256
SWIDTH 720 0
DWIDTH 10 0
BBX 9 10 1 0
BITMAP
3E00
6300
C180
8080
FF80
FF80
8080
C180
6300
3E00
ENDCHAR
STARTCHAR 04E9
ENCODING 1257
SWIDTH 504 0
DWIDTH 7 0
BBX 7 7 0 0
BITMAP
3C
46
42
FE
42
46
3C
ENDCHAR
STARTCHAR 05B0
ENCODING 1456
SWIDTH 288 0
DWIDTH 4 0
BBX 1 3 2 -3
BITMAP
80
00
80
ENDCHAR
STARTCHAR 05B1
ENCODING 1457
SWIDTH 288 0
DWIDTH 4 0
BBX 4 3 0 -3
BITMAP
B0
00
50
ENDCHAR
STARTCHAR 05B2
ENCODING 1458
SWIDTH 288 0
DWIDTH 4 0
BBX 4 3 0 -3
BITMAP
F0
00
10
ENDCHAR
STARTCHAR 05B3
ENCODING 1459
SWIDTH 288 0
DWIDTH 4 0
BBX 4 3 0 -3
BITMAP
F0
40
10
ENDCHAR
STARTCHAR 05B4
ENCODING 1460
SWIDTH 288 0
DWIDTH 4 0
BBX 1 1 2 -3
BITMAP
80
ENDCHAR
STARTCHAR 05B5
ENCODING 1461
SWIDTH 288 0
DWIDTH 4 0
BBX 3 1 1 -3
BITMAP
A0
ENDCHAR
STARTCHAR 05B6
ENCODING 1462
SWIDTH 288 0
DWIDTH 4 0
BBX 3 3 1 -3
BITMAP
A0
00
40
ENDCHAR
STARTCHAR 05B7
ENCODING 1463
SWIDTH 288 0
DWIDTH 4 0
BBX 3 1 1 -2
BITMAP
E0
ENDCHAR
STARTCHAR 05B8
ENCODING 1464
SWIDTH 288 0
DWIDTH 4 0
BBX 3 2 1 -3
BITMAP
E0
40
ENDCHAR
STARTCHAR 05B9
ENCODING 1465
SWIDTH 288 0
DWIDTH 4 0
BBX 1 1 2 8
BITMAP
80
ENDCHAR
STARTCHAR 05BB
ENCODING 1467
SWIDTH 288 0
DWIDTH 4 0
BBX 4 3 0 -3
BITMAP
80
20
10
ENDCHAR
STARTCHAR 05BC
ENCODING 1468
SWIDTH 288 0
DWIDTH 4 0
BBX 1 1 2 3
BITMAP
80
ENDCHAR
STARTCHAR 05BD
ENCODING 1469
SWIDTH 288 0
DWIDTH 4 0
BBX 1 3 2 -3
BITMAP
80
80
80
ENDCHAR
STARTCHAR 05BE
ENCODING 1470
SWIDTH 360 0
DWIDTH 5 0
BBX 3 1 1 6
BITMAP
E0
ENDCHAR
STARTCHAR 05BF
ENCODING 1471
SWIDTH 288 0
DWIDTH 4 0
BBX 3 1 1 8
BITMAP
E0
ENDCHAR
STARTCHAR 05C0
ENCODING 1472
SWIDTH 216 0
DWIDTH 3 0
BBX 1 9 1 0
BITMAP
80
80
80
80
80
80
80
80
80
ENDCHAR
STARTCHAR 05C1
ENCODING 1473
SWIDTH 288 0
DWIDTH 4 0
BBX 1 1 5 8
BITMAP
80
ENDCHAR
STARTCHAR 05C2
ENCODING 1474
SWIDTH 288 0
DWIDTH 4 0
BBX 1 1 -2 8
BITMAP
80
ENDCHAR
STARTCHAR 05C3
ENCODING 1475
SWIDTH 216 0
DWIDTH 3 0
BBX 2 7 1 0
BITMAP
C0
00
00
00
00
00
C0
ENDCHAR
STARTCHAR 05D0
ENCODING 1488
SWIDTH 504 0
DWIDTH 7 0
BBX 6 7 1 0
BITMAP
C4
6C
6C
F8
98
88
8C
ENDCHAR
STARTCHAR 05D1
ENCODING 1489
SWIDTH 504 0
DWIDTH 7 0
BBX 7 7 0 0
BITMAP
78
0C
04
04
04
04
FE
ENDCHAR
STARTCHAR 05D2
ENCODING 1490
SWIDTH 360 0
DWIDTH 5 0
BBX 5 7 0 0
BITMAP
70
10
10
10
30
78
C8
ENDCHAR
STARTCHAR 05D3
ENCODING 1491
SWIDTH 504 0
DWIDTH 7 0
BBX 7 7 0 0
BITMAP
FE
0C
0C
0C
0C
0C
0C
ENDCHAR
STARTCHAR 05D4
ENCODING 1492
SWIDTH 576 0
DWIDTH 8 0
BBX 6 7 1 0
BITMAP
F8
04
04
84
84
84
84
ENDCHAR
STARTCHAR 05D5
ENCODING 1493
SWIDTH 216 0
DWIDTH 3 0
BBX 1 7 1 0
BITMAP
80
80
80
80
80
80
80
ENDCHAR
STARTCHAR 05D6
ENCODING 1494
SWIDTH 360 0
DWIDTH 5 0
BBX 4 7 1 0
BITMAP
F0
40
40
40
40
40
40
ENDCHAR
STARTCHAR 05D7
ENCODING 1495
SWIDTH 576 0
DWIDTH 8 0
BBX 6 7 1 0
BITMAP
F8
84
84
84
84
84
84
ENDCHAR
STARTCHAR 05D8
ENCODING 1496
SWIDTH 576 0
DWIDTH 8 0
BBX 6 7 1 0
BITMAP
9C
84
84
84
84
C4
78
ENDCHAR
STARTCHAR 05D9
ENCODING 1497
SWIDTH 216 0
DWIDTH 3 0
BBX 1 4 1 3
BITMAP
80
80
80
80
ENDCHAR
STARTCHAR 05DA
ENCODING 1498
SWIDTH 504 0
DWIDTH 7 0
BBX 6 10 0 -3
BITMAP
F8
0C
04
04
04
04
04
04
04
04
ENDCHAR
STARTCHAR 05DB
ENCODING 1499
SWIDTH 432 0
DWIDTH 6 0
BBX 5 7 1 0
BITMAP
F0
10
18
18
18
10
E0
ENDCHAR
STARTCHAR 05DC
ENCODING 1500
SWIDTH 432 0
DWIDTH 6 0
BBX 6 10 0 0
BITMAP
C0
C0
C0
FC
0C
0C
08
18
10
10
ENDCHAR
STARTCHAR 05DD
ENCODING 1501
SWIDTH 576 0
DWIDTH 8 0
BBX 6 7 1 0
BITMAP
F8
84
84
84
84
84
FC
ENDCHAR
STARTCHAR 05DE
ENCODING 1502
SWIDTH 576 0
DWIDTH 8 0
BBX 6 7 1 0
BITMAP
BC
E4
44
C4
C4
84
9C
ENDCHAR
STARTCHAR 05DF
ENCODING 1503
SWIDTH 216 0
DWIDTH 3 0
BBX 1 10 1 -3
BITMAP
80
80
80
80
80
80
80
80
80
80
ENDCHAR
STARTCHAR 05E0
ENCODING 1504
SWIDTH 288 0
DWIDTH 4 0
BBX 4 7 0 0
BITMAP
60
30
10
10
10
10
F0
ENDCHAR
STARTCHAR 05E1
ENCODING 1505
SWIDTH 504 0
DWIDTH 7 0
BBX 6 7 1 0
BITMAP
78
84
84
84
84
CC
78
ENDCHAR
STARTCHAR 05E2
ENCODING 1506
SWIDTH 504 0
DWIDTH 7 0
BBX 6 8 0 -1
BITMAP
44
64
64
24
24
2C
F0
80
ENDCHAR
STARTCHAR 05E3
ENCODING 1507
SWIDTH 504 0
DWIDTH 7 0
BBX 6 10 1 -3
BITMAP
F8
8C
84
84
64
04
04
04
04
04
ENDCHAR
STARTCHAR 05E4
ENCODING 1508
SWIDTH 504 0
DWIDTH 7 0
BBX 6 7 1 0
BITMAP
F8
8C
84
E4
0C
08
F0
ENDCHAR
STARTCHAR 05E5
ENCODING 1509
SWIDTH 432 0
DWIDTH 6 0
BBX 5 10 1 -3
BITMAP
98
98
D8
70
60
60
60
60
60
60
ENDCHAR
STARTCHAR 05E6
ENCODING 1510
SWIDTH 432 0
DWIDTH 6 0
BBX 6 7 0 0
BITMAP
44
6C
2C
38
10
08
FC
ENDCHAR
STARTCHAR 05E7
ENCODING 1511
SWIDTH 504 0
DWIDTH 7 0
BBX 6 10 1 -3
BITMAP
FC
04
04
88
98
90
90
80
80
80
ENDCHAR
STARTCHAR 05E8
ENCODING 1512
SWIDTH 504 0
DWIDTH 7 0
BBX 6 7 0 0
BITMAP
F8
0C
04
04
04
04
04
ENDCHAR
STARTCHAR 05E9
ENCODING 1513
SWIDTH 648 0
DWIDTH 9 0
BBX 8 7 1 0
BITMAP
91
91
93
F3
82
46
7C
ENDCHAR
STARTCHAR 05EA
ENCODING 1514
SWIDTH 576 0
DWIDTH 8 0
BBX 8 7 0 0
BITMAP
7E
23
21
21
21
21
E1
ENDCHAR
STARTCHAR 05F0
ENCODING 1520
SWIDTH 432 0
DWIDTH 6 0
BBX 5 7 1 0
BITMAP
98
98
98
98
98
98
98
ENDCHAR
STARTCHAR 05F1
ENCODING 1521
SWIDTH 432 0
DWIDTH 6 0
BBX 5 7 1 0
BITMAP
98
98
98
98
18
18
18
ENDCHAR
STARTCHAR 05F2
ENCODING 1522
SWIDTH 432 0
DWIDTH 6 0
BBX 5 4 1 3
BITMAP
98
98
98
98
ENDCHAR
STARTCHAR 05F3
ENCODING 1523
SWIDTH 216 0
DWIDTH 3 0
BBX 1 2 1 5
BITMAP
80
80
ENDCHAR
STARTCHAR 05F4
ENCODING 1524
SWIDTH 360 0
DWIDTH 5 0
BBX 4 2 1 5
BITMAP
90
A0
ENDCHAR
STARTCHAR 060C
ENCODING 1548
SWIDTH 288 0
DWIDTH 4 0
BBX 2 4 1 2
BITMAP
40
80
C0
C0
ENDCHAR
STARTCHAR 061B
ENCODING 1563
SWIDTH 288 0
DWIDTH 4 0
BBX 2 6 1 2
BITMAP
80
80
C0
40
00
40
ENDCHAR
STARTCHAR 061F
ENCODING 1567
SWIDTH 288 0
DWIDTH 4 0
BBX 5 8 0 2
BITMAP
70
58
D0
60
20
20
20
20
ENDCHAR
STARTCHAR 0621
ENCODING 1569
SWIDTH 360 0
DWIDTH 5 0
BBX 4 4 1 2
BITMAP
E0
80
F0
80
ENDCHAR
STARTCHAR 0622
ENCODING 1570
SWIDTH 144 0
DWIDTH 2 0
BBX 1 8 1 2
BITMAP
80
80
80
80
80
80
80
80
ENDCHAR
STARTCHAR 0623
ENCODING 1571
SWIDTH 144 0
DWIDTH 2 0
BBX 1 9 1 2
BITMAP
80
80
80
80
80
80
80
80
80
ENDCHAR
STARTCHAR 0624
ENCODING 1572
SWIDTH 432 0
DWIDTH 6 0
BBX 5 9 1 -1
BITMAP
10
30
00
18
18
18
08
08
F0
ENDCHAR
STARTCHAR 0625
ENCODING 1573
SWIDTH 144 0
DWIDTH 2 0
BBX 1 11 1 -1
BITMAP
80
80
80
80
80
80
80
00
00
80
80
ENDCHAR
STARTCHAR 0626
ENCODING 1574
SWIDTH 576 0
DWIDTH 8 0
BBX 8 9 0 -1
BITMAP
40
40
03
44
88
87
81
7E
30
ENDCHAR
STARTCHAR 0627
ENCODING 1575
SWIDTH 144 0
DWIDTH 2 0
BBX 1 7 1 2
BITMAP
80
80
80
80
80
80
80
ENDCHAR
STARTCHAR 0628
ENCODING 1576
SWIDTH 648 0
DWIDTH 9 0
BBX 9 6 1 0
BITMAP
0080
8080
8080
7F80
0000
0800
ENDCHAR
STARTCHAR 0629
ENCODING 1577
SWIDTH 216 0
DWIDTH 3 0
BBX 4 7 0 2
BITMAP
20
A0
00
40
70
90
60
ENDCHAR
STARTCHAR 062A
ENCODING 1578
SWIDTH 648 0
DWIDTH 9 0
BBX 9 7 1 2
BITMAP
0400
1C00
0000
0080
8080
8080
7F80
ENDCHAR
STARTCHAR 062B
ENCODING 1579
SWIDTH 648 0
DWIDTH 9 0
BBX 9 8 1 2
BITMAP
0800
0400
1C00
0000
0080
8080
8080
7F80
ENDCHAR
STARTCHAR 062C
ENCODING 1580
SWIDTH 504 0
DWIDTH 7 0
BBX 7 9 0 -3
BITMAP
7E
1C
20
C0
88
80
80
60
3E
ENDCHAR
STARTCHAR 062D
ENCODING 1581
SWIDTH 504 0
DWIDTH 7 0
BBX 7 9 0 -3
BITMAP
7E
1C
20
C0
80
80
80
60
3E
ENDCHAR
STARTCHAR 062E
ENCODING 1582
SWIDTH 504 0
DWIDTH 7 0
BBX 7 12 0 -3
BITMAP
10
00
00
7E
1C
20
C0
80
80
80
60
3E
ENDCHAR
STARTCHAR 062F
ENCODING 1583
SWIDTH 288 0
DWIDTH 4 0
BBX 4 5 1 3
BITMAP
20
10
10
10
F0
ENDCHAR
STARTCHAR 0630
ENCODING 1584
SWIDTH 288 0
DWIDTH 4 0
BBX 4 8 1 3
BITMAP
40
00
00
20
10
10
10
F0
ENDCHAR
STARTCHAR 0631
ENCODING 1585
SWIDTH 432 0
DWIDTH 6 0
BBX 6 7 1 -1
BITMAP
04
04
04
04
04
0C
F8
ENDCHAR
STARTCHAR 0632
ENCODING 1586
SWIDTH 432 0
DWIDTH 6 0
BBX 6 10 1 -1
BITMAP
08
08
00
04
04
04
04
04
0C
F8
ENDCHAR
STARTCHAR 0633
ENCODING 1587
SWIDTH 792 0
DWIDTH 11 0
BBX 11 6 1 0
BITMAP
0220
82A0
83E0
8200
8400
7800
ENDCHAR
STARTCHAR 0634
ENCODING 1588
SWIDTH 792 0
DWIDTH 11 0
BBX 11 11 1 -1
BITMAP
0080
00C0
01C0
0000
0000
0220
82A0
83E0
8200
8400
7800
ENDCHAR
STARTCHAR 0635
ENCODING 1589
SWIDTH 1080 0
DWIDTH 15 0
BBX 15 7 1 -1
BITMAP
000C
023E
8242
83FE
8200
8400
7800
ENDCHAR
STARTCHAR 0636
ENCODING 1590
SWIDTH 1080 0
DWIDTH 15 0
BBX 15 9 1 -1
BITMAP
0040
0000
000C
023E
8242
83FE
8200
8400
7800
ENDCHAR
STARTCHAR 0637
ENCODING 1591
SWIDTH 576 0
DWIDTH 8 0
BBX 9 9 0 2
BITMAP
2000
3000
2000
1000
1000
1300
1F00
2180
FF80
ENDCHAR
STARTCHAR 0638
ENCODING 1592
SWIDTH 576 0
DWIDTH 8 0
BBX 9 9 0 2
BITMAP
2000
3000
2400
1000
1000
1300
1F00
2180
FF80
ENDCHAR
STARTCHAR 0639
ENCODING 1593
SWIDTH 504 0
DWIDTH 7 0
BBX 6 10 0 -3
BITMAP
70
80
CC
70
40
80
80
80
60
3C
ENDCHAR
STARTCHAR 063A
ENCODING 1594
SWIDTH 504 0
DWIDTH 7 0
BBX 6 13 0 -3
BITMAP
20
00
00
70
80
CC
70
40
80
80
80
60
3C
ENDCHAR
STARTCHAR 0640
ENCODING 1600
SWIDTH 144 0
DWIDTH 2 0
BBX 3 1 0 2
BITMAP
E0
ENDCHAR
STARTCHAR 0641
ENCODING 1601
SWIDTH 720 0
DWIDTH 10 0
BBX 10 7 1 2
BITMAP
0180
0000
8040
80C0
80C0
80C0
7FC0
ENDCHAR
STARTCHAR 0642
ENCODING 1602
SWIDTH 576 0
DWIDTH 8 0
BBX 8 10 1 -1
BITMAP
0E
08
00
06
0A
87
81
81
86
7C
ENDCHAR
STARTCHAR 0643
ENCODING 1603
SWIDTH 576 0
DWIDTH 8 0
BBX 8 8 1 3
BITMAP
03
0A
12
1A
81
99
81
FF
ENDCHAR
STARTCHAR 0644
ENCODING 1604
SWIDTH 504 0
DWIDTH 7 0
BBX 7 10 1 1
BITMAP
04
04
04
04
04
84
84
82
8C
78
ENDCHAR
STARTCHAR 0645
ENCODING 1605
SWIDTH 288 0
DWIDTH 4 0
BBX 4 7 1 -3
BITMAP
60
10
F0
80
80
80
80
ENDCHAR
STARTCHAR 0646
ENCODING 1606
SWIDTH 504 0
DWIDTH 7 0
BBX 7 9 1 -1
BITMAP
10
10
00
02
82
82
82
84
78
ENDCHAR
STARTCHAR 0647
ENCODING 1607
SWIDTH 216 0
DWIDTH 3 0
BBX 4 4 0 2
BITMAP
40
60
90
E0
ENDCHAR
STARTCHAR 0648
ENCODING 1608
SWIDTH 432 0
DWIDTH 6 0
BBX 5 6 1 -1
BITMAP
18
18
18
08
08
F0
ENDCHAR
STARTCHAR 0649
ENCODING 1609
SWIDTH 576 0
DWIDTH 8 0
BBX 8 7 0 -1
BITMAP
03
44
88
87
81
7E
30
ENDCHAR
STARTCHAR 064A
ENCODING 1610
SWIDTH 576 0
DWIDTH 8 0
BBX 8 9 0 -3
BITMAP
03
44
88
87
81
7E
30
0C
10
ENDCHAR
STARTCHAR 064B
ENCODING 1611
SWIDTH 144 0
DWIDTH 2 0
BBX 3 3 0 8
BITMAP
20
E0
C0
ENDCHAR
STARTCHAR 064C
ENCODING 1612
SWIDTH 216 0
DWIDTH 3 0
BBX 2 3 1 8
BITMAP
C0
C0
80
ENDCHAR
STARTCHAR 064D
ENCODING 1613
SWIDTH 144 0
DWIDTH 2 0
BBX 2 3 1 -2
BITMAP
40
80
80
ENDCHAR
STARTCHAR 064E
ENCODING 1614
SWIDTH 144 0
DWIDTH 2 0
BBX 3 2 0 9
BITMAP
20
C0
ENDCHAR
STARTCHAR 064F
ENCODING 1615
SWIDTH 144 0
DWIDTH 2 0
BBX 2 3 1 8
BITMAP
40
40
80
ENDCHAR
STARTCHAR 0650
ENCODING 1616
SWIDTH 144 0
DWIDTH 2 0
BBX 1 1 1 0
BITMAP
80
ENDCHAR
STARTCHAR 0651
ENCODING 1617
SWIDTH 144 0
DWIDTH 2 0
BBX 2 1 1 9
BITMAP
C0
ENDCHAR
STARTCHAR 0652
ENCODING 1618
SWIDTH 144 0
DWIDTH 2 0
BBX 2 2 0 9
BITMAP
C0
40
ENDCHAR
STARTCHAR 0660
ENCODING 1632
SWIDTH 504 0
DWIDTH 7 0
BBX 2 2 3 3
BITMAP
80
C0
ENDCHAR
STARTCHAR 0661
ENCODING 1633
SWIDTH 504 0
DWIDTH 7 0
BBX 3 6 2 3
BITMAP
C0
40
40
20
20
40
ENDCHAR
STARTCHAR 0662
ENCODING 1634
SWIDTH 504 0
DWIDTH 7 0
BBX 4 7 1 2
BITMAP
80
F0
70
20
20
20
20
ENDCHAR
STARTCHAR 0663
ENCODING 1635
SWIDTH 504 0
DWIDTH 7 0
BBX 6 7 1 2
BITMAP
94
F8
C0
40
40
40
40
ENDCHAR
STARTCHAR 0664
ENCODING 1636
SWIDTH 504 0
DWIDTH 7 0
BBX 3 8 2 2
BITMAP
20
40
80
E0
40
80
C0
60
ENDCHAR
STARTCHAR 0665
ENCODING 1637
SWIDTH 504 0
DWIDTH 7 0
BBX 5 6 1 3
BITMAP
20
78
88
88
F8
60
ENDCHAR
STARTCHAR 0666
ENCODING 1638
SWIDTH 504 0
DWIDTH 7 0
BBX 5 7 1 2
BITMAP
80
F0
10
10
10
10
18
ENDCHAR
STARTCHAR 0667
ENCODING 1639
SWIDTH 504 0
DWIDTH 7 0
BBX 5 6 1 3
BITMAP
88
C8
50
30
20
20
ENDCHAR
STARTCHAR 0668
ENCODING 1640
SWIDTH 504 0
DWIDTH 7 0
BBX 5 7 1 2
BITMAP
20
20
60
50
50
48
88
ENDCHAR
STARTCHAR 0669
ENCODING 1641
SWIDTH 504 0
DWIDTH 7 0
BBX 5 8 1 2
BITMAP
70
50
90
70
10
10
18
10
ENDCHAR
STARTCHAR 066A
ENCODING 1642
SWIDTH 504 0
DWIDTH 7 0
BBX 5 10 1 1
BITMAP
C0
C8
10
10
20
20
40
40
98
88
ENDCHAR
STARTCHAR 066B
ENCODING 1643
SWIDTH 288 0
DWIDTH 4 0
BBX 2 4 1 0
BITMAP
40
C0
40
80
ENDCHAR
STARTCHAR 066D
ENCODING 1645
SWIDTH 504 0
DWIDTH 7 0
BBX 3 4 2 6
BITMAP
E0
40
E0
E0
ENDCHAR
STARTCHAR 0671
ENCODING 1649
SWIDTH 720 0
DWIDTH 10 0
BBX 7 9 2 0
BITMAP
FE
82
82
82
82
82
82
82
FE
ENDCHAR
STARTCHAR 067E
ENCODING 1662
SWIDTH 648 0
DWIDTH 9 0
BBX 9 8 1 -1
BITMAP
0080
8080
8080
7F80
0000
0400
1800
0400
ENDCHAR
STARTCHAR 0686
ENCODING 1670
SWIDTH 504 0
DWIDTH 7 0
BBX 7 9 0 -3
BITMAP
7E
1C
20
CC
90
8C
80
60
3E
ENDCHAR
STARTCHAR 0698
ENCODING 1688
SWIDTH 432 0
DWIDTH 6 0
BBX 6 11 1 -1
BITMAP
18
04
14
00
04
04
04
04
04
0C
F8
ENDCHAR
STARTCHAR 06A4
ENCODING 1700
SWIDTH 720 0
DWIDTH 10 0
BBX 7 9 2 0
BITMAP
FE
82
82
82
82
82
82
82
FE
ENDCHAR
STARTCHAR 06A9
ENCODING 1705
SWIDTH 792 0
DWIDTH 11 0
BBX 11 8 1 2
BITMAP
00C0
0180
0200
0300
0180
8040
8020
FFE0
ENDCHAR
STARTCHAR 06AF
ENCODING 1711
SWIDTH 792 0
DWIDTH 11 0
BBX 11 10 1 2
BITMAP
0040
0180
02C0
0180
0200
0300
0180
8040
8020
FFE0
ENDCHAR
STARTCHAR 06CC
ENCODING 1740
SWIDTH 576 0
DWIDTH 8 0
BBX 8 7 0 -1
BITMAP
03
44
88
87
81
7E
30
ENDCHAR
STARTCHAR 06D5
ENCODING 1749
SWIDTH 216 0
DWIDTH 3 0
BBX 4 4 0 2
BITMAP
40
60
90
E0
ENDCHAR
STARTCHAR 06F0
ENCODING 1776
SWIDTH 504 0
DWIDTH 7 0
BBX 2 2 3 3
BITMAP
80
C0
ENDCHAR
STARTCHAR 06F1
ENCODING 1777
SWIDTH 504 0
DWIDTH 7 0
BBX 3 6 2 3
BITMAP
C0
40
40
20
20
40
ENDCHAR
STARTCHAR 06F2
ENCODING 1778
SWIDTH 504 0
DWIDTH 7 0
BBX 4 7 1 2
BITMAP
80
F0
70
20
20
20
20
ENDCHAR
STARTCHAR 06F3
ENCODING 1779
SWIDTH 504 0
DWIDTH 7 0
BBX 6 7 1 2
BITMAP
94
F8
C0
40
40
40
40
ENDCHAR
STARTCHAR 06F4
ENCODING 1780
SWIDTH 504 0
DWIDTH 7 0
BBX 5 7 1 2
BITMAP
98
A0
78
50
20
20
40
ENDCHAR
STARTCHAR 06F5
ENCODING 1781
SWIDTH 504 0
DWIDTH 7 0
BBX 5 8 1 2
BITMAP
20
30
30
48
88
88
F8
70
ENDCHAR
STARTCHAR 06F6
ENCODING 1782
SWIDTH 504 0
DWIDTH 7 0
BBX 5 8 1 2
BITMAP
30
C0
C8
70
20
40
40
40
ENDCHAR
STARTCHAR 06F7
ENCODING 1783
SWIDTH 504 0
DWIDTH 7 0
BBX 5 6 1 3
BITMAP
88
C8
50
30
20
20
ENDCHAR
STARTCHAR 06F8
ENCODING 1784
SWIDTH 504 0
DWIDTH 7 0
BBX 5 7 1 2
BITMAP
20
20
60
50
50
48
88
ENDCHAR
STARTCHAR 06F9
ENCODING 1785
SWIDTH 504 0
DWIDTH 7 0
BBX 5 8 1 2
BITMAP
70
50
90
70
10
10
18
10
ENDCHAR
STARTCHAR 1E80
ENCODING 7808
SWIDTH 936 0
DWIDTH 13 0
BBX 13 12 0 0
BITMAP
0200
0000
C208
4518
4510
4510
6590
28A0
28A0
28A0
3860
1040
ENDCHAR
STARTCHAR 1E81
ENCODING 7809
SWIDTH 720 0
DWIDTH 10 0
BBX 10 10 0 0
BITMAP
1800
0800
0000
8C40
4C80
4C80
5680
7300
3300
3300
ENDCHAR
STARTCHAR 1E82
ENCODING 7810
SWIDTH 936 0
DWIDTH 13 0
BBX 13 12 0 0
BITMAP
0300
0000
C208
4518
4510
4510
6590
28A0
28A0
28A0
3860
1040
ENDCHAR
STARTCHAR 1E83
ENCODING 7811
SWIDTH 720 0
DWIDTH 10 0
BBX 10 10 0 0
BITMAP
0400
0800
0000
8C40
4C80
4C80
5680
7300
3300
3300
ENDCHAR
STARTCHAR 1E84
ENCODING 7812
SWIDTH 936 0
DWIDTH 13 0
BBX 13 12 0 0
BITMAP
0500
0000
C208
4518
4510
4510
6590
28A0
28A0
28A0
3860
1040
ENDCHAR
STARTCHAR 1E85
ENCODING 7813
SWIDTH 720 0
DWIDTH 10 0
BBX 10 10 0 0
BITMAP
1200
0000
0000
8C40
4C80
4C80
5680
7300
3300
3300
ENDCHAR
STARTCHAR 1EA0
ENCODING 7840
SWIDTH 648 0
DWIDTH 9 0
BBX 9 12 0 -2
BITMAP
0800
1400
1400
3600
2200
2200
7F00
4100
4180
C080
0000
0800
ENDCHAR
STARTCHAR 1EA1
ENCODING 7841
SWIDTH 504 0
DWIDTH 7 0
BBX 6 9 1 -2
BITMAP
F8
8C
0C
F4
8C
8C
F4
00
30
ENDCHAR
STARTCHAR 1EA2
ENCODING 7842
SWIDTH 648 0
DWIDTH 9 0
BBX 9 12 0 0
BITMAP
0C00
0800
0800
1400
1400
3600
2200
2200
7F00
4100
4180
C080
ENDCHAR
STARTCHAR 1EA3
ENCODING 7843
SWIDTH 504 0
DWIDTH 7 0
BBX 6 10 1 1
BITMAP
38
10
00
F8
8C
0C
F4
8C
8C
F4
ENDCHAR
STARTCHAR 1EA4
ENCODING 7844
SWIDTH 648 0
DWIDTH 9 0
BBX 9 12 0 0
BITMAP
0C00
1400
0800
1400
1400
3600
2200
2200
7F00
4100
4180
C080
ENDCHAR
STARTCHAR 1EA5
ENCODING 7845
SWIDTH 504 0
DWIDTH 7 0
BBX 6 12 1 0
BITMAP
10
20
30
58
00
F8
8C
0C
F4
8C
8C
F4
ENDCHAR
STARTCHAR 1EA6
ENCODING 7846
SWIDTH 648 0
DWIDTH 9 0
BBX 9 12 0 0
BITMAP
1800
1400
0800
1400
1400
3600
2200
2200
7F00
4100
4180
C080
ENDCHAR
STARTCHAR 1EA7
ENCODING 7847
SWIDTH 504 0
DWIDTH 7 0
BBX 6 12 1 0
BITMAP
60
20
30
58
00
F8
8C
0C
F4
8C
8C
F4
ENDCHAR
STARTCHAR 1EA8
ENCODING 7848
SWIDTH 648 0
DWIDTH 9 0
BBX 9 12 0 0
BITMAP
0C00
1400
0800
1400
1400
3600
2200
2200
7F00
4100
4180
C080
ENDCHAR
STARTCHAR 1EA9
ENCODING 7849
SWIDTH 504 0
DWIDTH 7 0
BBX 6 12 1 0
BITMAP
30
20
30
58
00
F8
8C
0C
F4
8C
8C
F4
ENDCHAR
STARTCHAR 1EAA
ENCODING 7850
SWIDTH 648 0
DWIDTH 9 0
BBX 9 12 0 0
BITMAP
3C00
1C00
0800
1400
1400
3600
2200
2200
7F00
4100
4180
C080
ENDCHAR
STARTCHAR 1EAB
ENCODING 7851
SWIDTH 504 0
DWIDTH 7 0
BBX 6 12 1 0
BITMAP
78
00
30
58
00
F8
8C
0C
F4
8C
8C
F4
ENDCHAR
STARTCHAR 1EAC
ENCODING 7852
SWIDTH 648 0
DWIDTH 9 0
BBX 9 13 0 -2
BITMAP
1C00
0800
1400
1400
3600
2200
2200
7F00
4100
4180
C080
0000
0800
ENDCHAR
STARTCHAR 1EAD
ENCODING 7853
SWIDTH 504 0
DWIDTH 7 0
BBX 6 12 1 -2
BITMAP
30
58
00
F8
8C
0C
F4
8C
8C
F4
00
30
ENDCHAR
STARTCHAR 1EAE
ENCODING 7854
SWIDTH 648 0
DWIDTH 9 0
BBX 9 12 0 0
BITMAP
0C00
1C00
0800
1400
1400
3600
2200
2200
7F00
4100
4180
C080
ENDCHAR
STARTCHAR 1EAF
ENCODING 7855
SWIDTH 504 0
DWIDTH 7 0
BBX 6 12 1 0
BITMAP
10
20
48
30
00
F8
8C
0C
F4
8C
8C
F4
ENDCHAR
STARTCHAR 1EB0
ENCODING 7856
SWIDTH 648 0
DWIDTH 9 0
BBX 9 12 0 0
BITMAP
1800
1C00
0800
1400
1400
3600
2200
2200
7F00
4100
4180
C080
ENDCHAR
STARTCHAR 1EB1
ENCODING 7857
SWIDTH 504 0
DWIDTH 7 0
BBX 6 12 1 0
BITMAP
20
10
48
30
00
F8
8C
0C
F4
8C
8C
F4
ENDCHAR
STARTCHAR 1EB2
ENCODING 7858
SWIDTH 648 0
DWIDTH 9 0
BBX 9 12 0 0
BITMAP
0C00
1C00
0800
1400
1400
3600
2200
2200
7F00
4100
4180
C080
ENDCHAR
STARTCHAR 1EB3
ENCODING 7859
SWIDTH 504 0
DWIDTH 7 0
BBX 6 12 1 0
BITMAP
38
00
48
30
00
F8
8C
0C
F4
8C
8C
F4
ENDCHAR
STARTCHAR 1EB4
ENCODING 7860
SWIDTH 648 0
DWIDTH 9 0
BBX 9 12 0 0
BITMAP
3C00
1C00
0800
1400
1400
3600
2200
2200
7F00
4100
4180
C080
ENDCHAR
STARTCHAR 1EB5
ENCODING 7861
SWIDTH 504 0
DWIDTH 7 0
BBX 6 12 1 0
BITMAP
78
40
48
30
00
F8
8C
0C
F4
8C
8C
F4
ENDCHAR
STARTCHAR 1EB6
ENCODING 7862
SWIDTH 648 0
DWIDTH 9 0
BBX 9 13 0 -2
BITMAP
1C00
0800
1400
1400
3600
2200
2200
7F00
4100
4180
C080
0000
0800
ENDCHAR
STARTCHAR 1EB7
ENCODING 7863
SWIDTH 504 0
DWIDTH 7 0
BBX 6 12 1 -2
BITMAP
48
30
00
F8
8C
0C
F4
8C
8C
F4
00
30
ENDCHAR
STARTCHAR 1EB8
ENCODING 7864
SWIDTH 648 0
DWIDTH 9 0
BBX 8 12 1 -2
BITMAP
FE
80
80
80
FE
80
80
80
80
FF
00
18
ENDCHAR
STARTCHAR 1EB9
ENCODING 7865
SWIDTH 504 0
DWIDTH 7 0
BBX 6 9 1 -2
BITMAP
78
84
84
FC
80
8C
78
00
30
ENDCHAR
STARTCHAR 1EBA
ENCODING 7866
SWIDTH 648 0
DWIDTH 9 0
BBX 8 12 1 0
BITMAP
18
10
FE
80
80
80
FE
80
80
80
80
FF
ENDCHAR
STARTCHAR 1EBB
ENCODING 7867
SWIDTH 504 0
DWIDTH 7 0
BBX 6 10 1 1
BITMAP
38
10
00
78
84
84
FC
80
8C
78
ENDCHAR
STARTCHAR 1EBC
ENCODING 7868
SWIDTH 648 0
DWIDTH 9 0
BBX 8 12 1 0
BITMAP
3C
00
FE
80
80
80
FE
80
80
80
80
FF
ENDCHAR
STARTCHAR 1EBD
ENCODING 7869
SWIDTH 504 0
DWIDTH 7 0
BBX 6 10 1 0
BITMAP
68
58
00
78
84
84
FC
80
8C
78
ENDCHAR
STARTCHAR 1EBE
ENCODING 7870
SWIDTH 648 0
DWIDTH 9 0
BBX 8 12 1 0
BITMAP
18
28
FE
80
80
80
FE
80
80
80
80
FF
ENDCHAR
STARTCHAR 1EBF
ENCODING 7871
SWIDTH 504 0
DWIDTH 7 0
BBX 6 12 1 0
BITMAP
10
20
30
58
00
78
84
84
FC
80
8C
78
ENDCHAR
STARTCHAR 1EC0
ENCODING 7872
SWIDTH 648 0
DWIDTH 9 0
BBX 8 12 1 0
BITMAP
10
28
FE
80
80
80
FE
80
80
80
80
FF
ENDCHAR
STARTCHAR 1EC1
ENCODING 7873
SWIDTH 504 0
DWIDTH 7 0
BBX 6 12 1 0
BITMAP
60
20
30
58
00
78
84
84
FC
80
8C
78
ENDCHAR
STARTCHAR 1EC2
ENCODING 7874
SWIDTH 648 0
DWIDTH 9 0
BBX 8 12 1 0
BITMAP
18
28
FE
80
80
80
FE
80
80
80
80
FF
ENDCHAR
STARTCHAR 1EC3
ENCODING 7875
SWIDTH 504 0
DWIDTH 7 0
BBX 6 12 1 0
BITMAP
30
20
30
58
00
78
84
84
FC
80
8C
78
ENDCHAR
STARTCHAR 1EC4
ENCODING 7876
SWIDTH 648 0
DWIDTH 9 0
BBX 8 12 1 0
BITMAP
78
38
FE
80
80
80
FE
80
80
80
80
FF
ENDCHAR
STARTCHAR 1EC5
ENCODING 7877
SWIDTH 504 0
DWIDTH 7 0
BBX 6 12 1 0
BITMAP
78
00
30
58
00
78
84
84
FC
80
8C
78
ENDCHAR
STARTCHAR 1EC6
ENCODING 7878
SWIDTH 648 0
DWIDTH 9 0
BBX 8 13 1 -2
BITMAP
38
FE
80
80
80
FE
80
80
80
80
FF
00
18
ENDCHAR
STARTCHAR 1EC7
ENCODING 7879
SWIDTH 504 0
DWIDTH 7 0
BBX 6 12 1 -2
BITMAP
30
58
00
78
84
84
FC
80
8C
78
00
30
ENDCHAR
STARTCHAR 1EC8
ENCODING 7880
SWIDTH 216 0
DWIDTH 3 0
BBX 3 12 1 0
BITMAP
E0
00
C0
C0
C0
C0
C0
C0
C0
C0
C0
C0
ENDCHAR
STARTCHAR 1EC9
ENCODING 7881
SWIDTH 216 0
DWIDTH 3 0
BBX 2 10 1 1
BITMAP
C0
80
00
80
80
80
80
80
80
80
ENDCHAR
STARTCHAR 1ECA
ENCODING 7882
SWIDTH 216 0
DWIDTH 3 0
BBX 2 12 1 -2
BITMAP
C0
C0
C0
C0
C0
C0
C0
C0
C0
C0
00
C0
ENDCHAR
STARTCHAR 1ECB
ENCODING 7883
SWIDTH 216 0
DWIDTH 3 0
BBX 1 12 1 -2
BITMAP
80
00
00
80
80
80
80
80
80
80
00
80
ENDCHAR
STARTCHAR 1ECC
ENCODING 7884
SWIDTH 720 0
DWIDTH 10 0
BBX 9 12 1 -2
BITMAP
3E00
6300
C180
8080
8080
8080
8080
C180
6300
3E00
0000
0800
ENDCHAR
STARTCHAR 1ECD
ENCODING 7885
SWIDTH 504 0
DWIDTH 7 0
BBX 7 9 0 -2
BITMAP
3C
46
42
C2
42
46
3C
00
10
ENDCHAR
STARTCHAR 1ECE
ENCODING 7886
SWIDTH 720 0
DWIDTH 10 0
BBX 9 12 1 0
BITMAP
0C00
0800
3E00
6300
C180
8080
8080
8080
8080
C180
6300
3E00
ENDCHAR
STARTCHAR 1ECF
ENCODING 7887
SWIDTH 504 0
DWIDTH 7 0
BBX 7 10 0 1
BITMAP
1C
08
00
3C
46
42
C2
42
46
3C
ENDCHAR
STARTCHAR 1ED0
ENCODING 7888
SWIDTH 720 0
DWIDTH 10 0
BBX 9 12 1 0
BITMAP
0C00
1400
3E00
6300
C180
8080
8080
8080
8080
C180
6300
3E00
ENDCHAR
STARTCHAR 1ED1
ENCODING 7889
SWIDTH 504 0
DWIDTH 7 0
BBX 7 12 0 0
BITMAP
08
10
18
2C
00
3C
46
42
C2
42
46
3C
ENDCHAR
STARTCHAR 1ED2
ENCODING 7890
SWIDTH 720 0
DWIDTH 10 0
BBX 9 12 1 0
BITMAP
1800
1400
3E00
6300
C180
8080
8080
8080
8080
C180
6300
3E00
ENDCHAR
STARTCHAR 1ED3
ENCODING 7891
SWIDTH 504 0
DWIDTH 7 0
BBX 7 12 0 0
BITMAP
30
10
18
2C
00
3C
46
42
C2
42
46
3C
ENDCHAR
STARTCHAR 1ED4
ENCODING 7892
SWIDTH 720 0
DWIDTH 10 0
BBX 9 12 1 0
BITMAP
0C00
1400
3E00
6300
C180
8080
8080
8080
8080
C180
6300
3E00
ENDCHAR
STARTCHAR 1ED5
ENCODING 7893
SWIDTH 504 0
DWIDTH 7 0
BBX 7 12 0 0
BITMAP
18
10
18
2C
00
3C
46
42
C2
42
46
3C
ENDCHAR
STARTCHAR 1ED6
ENCODING 7894
SWIDTH 720 0
DWIDTH 10 0
BBX 9 12 1 0
BITMAP
3C00
1400
3E00
6300
C180
8080
8080
8080
8080
C180
6300
3E00
ENDCHAR
STARTCHAR 1ED7
ENCODING 7895
SWIDTH 504 0
DWIDTH 7 0
BBX 7 12 0 0
BITMAP
3C
00
18
2C
00
3C
46
42
C2
42
46
3C
ENDCHAR
STARTCHAR 1ED8
ENCODING 7896
SWIDTH 720 0
DWIDTH 10 0
BBX 9 13 1 -2
BITMAP
1C00
3E00
6300
C180
8080
8080
8080
8080
C180
6300
3E00
0000
0800
ENDCHAR
STARTCHAR 1ED9
ENCODING 7897
SWIDTH 504 0
DWIDTH 7 0
BBX 7 12 0 -2
BITMAP
18
2C
00
3C
46
42
C2
42
46
3C
00
10
ENDCHAR
STARTCHAR 1EDA
ENCODING 7898
SWIDTH 792 0
DWIDTH 11 0
BBX 11 12 1 0
BITMAP
0C00
0000
3E60
6320
C1C0
8080
8080
8080
8080
C180
6300
3E00
ENDCHAR
STARTCHAR 1EDB
ENCODING 7899
SWIDTH 648 0
DWIDTH 9 0
BBX 9 10 0 0
BITMAP
0800
1000
0000
3D80
4680
4300
C200
4200
4600
3C00
ENDCHAR
STARTCHAR 1EDC
ENCODING 7900
SWIDTH 792 0
DWIDTH 11 0
BBX 11 12 1 0
BITMAP
1800
0000
3E60
6320
C1C0
8080
8080
8080
8080
C180
6300
3E00
ENDCHAR
STARTCHAR 1EDD
ENCODING 7901
SWIDTH 648 0
DWIDTH 9 0
BBX 9 10 0 0
BITMAP
1000
1000
0000
3D80
4680
4300
C200
4200
4600
3C00
ENDCHAR
STARTCHAR 1EDE
ENCODING 7902
SWIDTH 792 0
DWIDTH 11 0
BBX 11 13 1 0
BITMAP
1800
0400
0800
3E60
6320
C1C0
8080
8080
8080
8080
C180
6300
3E00
ENDCHAR
STARTCHAR 1EDF
ENCODING 7903
SWIDTH 648 0
DWIDTH 9 0
BBX 9 10 0 1
BITMAP
1C00
0800
0000
3D80
4680
4300
C200
4200
4600
3C00
ENDCHAR
STARTCHAR 1EE0
ENCODING 7904
SWIDTH 792 0
DWIDTH 11 0
BBX 11 12 1 0
BITMAP
3E00
0000
3E60
6320
C1C0
8080
8080
8080
8080
C180
6300
3E00
ENDCHAR
STARTCHAR 1EE1
ENCODING 7905
SWIDTH 648 0
DWIDTH 9 0
BBX 9 10 0 0
BITMAP
3400
0C00
0000
3D80
4680
4300
C200
4200
4600
3C00
ENDCHAR
STARTCHAR 1EE2
ENCODING 7906
SWIDTH 792 0
DWIDTH 11 0
BBX 11 12 1 -2
BITMAP
3E60
6320
C1C0
8080
8080
8080
8080
C180
6300
3E00
0000
0800
ENDCHAR
STARTCHAR 1EE3
ENCODING 7907
SWIDTH 648 0
DWIDTH 9 0
BBX 9 9 0 -2
BITMAP
3D80
4680
4300
C200
4200
4600
3C00
0000
1000
ENDCHAR
STARTCHAR 1EE4
ENCODING 7908
SWIDTH 720 0
DWIDTH 10 0
BBX 8 12 1 -2
BITMAP
81
81
81
81
81
81
81
C3
42
7E
00
18
ENDCHAR
STARTCHAR 1EE5
ENCODING 7909
SWIDTH 504 0
DWIDTH 7 0
BBX 6 9 1 -2
BITMAP
8C
8C
8C
8C
8C
8C
74
00
20
ENDCHAR
STARTCHAR 1EE6
ENCODING 7910
SWIDTH 720 0
DWIDTH 10 0
BBX 8 12 1 0
BITMAP
1C
00
81
81
81
81
81
81
81
C3
42
7E
ENDCHAR
STARTCHAR 1EE7
ENCODING 7911
SWIDTH 504 0
DWIDTH 7 0
BBX 6 10 1 1
BITMAP
30
30
00
8C
8C
8C
8C
8C
8C
74
ENDCHAR
STARTCHAR 1EE8
ENCODING 7912
SWIDTH 792 0
DWIDTH 11 0
BBX 10 12 1 0
BITMAP
0800
0000
8140
8140
8140
8180
8100
8100
8100
C300
4200
7E00
ENDCHAR
STARTCHAR 1EE9
ENCODING 7913
SWIDTH 648 0
DWIDTH 9 0
BBX 8 10 1 0
BITMAP
10
20
00
8D
8D
8D
8E
8C
8C
74
ENDCHAR
STARTCHAR 1EEA
ENCODING 7914
SWIDTH 792 0
DWIDTH 11 0
BBX 10 12 1 0
BITMAP
1000
0000
8140
8140
8140
8180
8100
8100
8100
C300
4200
7E00
ENDCHAR
STARTCHAR 1EEB
ENCODING 7915
SWIDTH 648 0
DWIDTH 9 0
BBX 8 10 1 0
BITMAP
20
20
00
8D
8D
8D
8E
8C
8C
74
ENDCHAR
STARTCHAR 1EEC
ENCODING 7916
SWIDTH 792 0
DWIDTH 11 0
BBX 10 12 1 0
BITMAP
1C00
0000
8140
8140
8140
8180
8100
8100
8100
C300
4200
7E00
ENDCHAR
STARTCHAR 1EED
ENCODING 7917
SWIDTH 648 0
DWIDTH 9 0
BBX 8 10 1 1
BITMAP
30
30
00
8D
8D
8D
8E
8C
8C
74
ENDCHAR
STARTCHAR 1EEE
ENCODING 7918
SWIDTH 792 0
DWIDTH 11 0
BBX 10 12 1 0
BITMAP
3C00
0000
8140
8140
8140
8180
8100
8100
8100
C300
4200
7E00
ENDCHAR
STARTCHAR 1EEF
ENCODING 7919
SWIDTH 648 0
DWIDTH 9 0
BBX 8 10 1 0
BITMAP
68
58
00
8D
8D
8D
8E
8C
8C
74
ENDCHAR
STARTCHAR 1EF0
ENCODING 7920
SWIDTH 792 0
DWIDTH 11 0
BBX 10 12 1 -2
BITMAP
8140
8140
8140
8180
8100
8100
8100
C300
4200
7E00
0000
1800
ENDCHAR
STARTCHAR 1EF1
ENCODING 7921
SWIDTH 648 0
DWIDTH 9 0
BBX 8 9 1 -2
BITMAP
8D
8D
8D
8E
8C
8C
74
00
20
ENDCHAR
STARTCHAR 1EF2
ENCODING 7922
SWIDTH 648 0
DWIDTH 9 0
BBX 9 12 0 0
BITMAP
1800
0000
C180
6100
2200
3600
1400
0800
0800
0800
0800
0800
ENDCHAR
STARTCHAR 1EF3
ENCODING 7923
SWIDTH 432 0
DWIDTH 6 0
BBX 7 13 0 -3
BITMAP
30
10
00
C6
44
64
28
28
38
10
10
30
60
ENDCHAR
STARTCHAR 1EF4
ENCODING 7924
SWIDTH 648 0
DWIDTH 9 0
BBX 9 12 0 -2
BITMAP
C180
6100
2200
3600
1400
0800
0800
0800
0800
0800
0000
0800
ENDCHAR
STARTCHAR 1EF5
ENCODING 7925
SWIDTH 432 0
DWIDTH 6 0
BBX 7 10 0 -3
BITMAP
C6
44
64
28
28
38
10
10
34
60
ENDCHAR
STARTCHAR 1EF6
ENCODING 7926
SWIDTH 648 0
DWIDTH 9 0
BBX 9 12 0 0
BITMAP
0C00
0800
C180
6100
2200
3600
1400
0800
0800
0800
0800
0800
ENDCHAR
STARTCHAR 1EF7
ENCODING 7927
SWIDTH 432 0
DWIDTH 6 0
BBX 7 13 0 -2
BITMAP
18
10
00
C6
44
64
28
28
38
10
10
30
60
ENDCHAR
STARTCHAR 1EF8
ENCODING 7928
SWIDTH 648 0
DWIDTH 9 0
BBX 9 12 0 0
BITMAP
1E00
0000
C180
6100
2200
3600
1400
0800
0800
0800
0800
0800
ENDCHAR
STARTCHAR 1EF9
ENCODING 7929
SWIDTH 432 0
DWIDTH 6 0
BBX 7 13 0 -3
BITMAP
34
48
00
C6
44
64
28
28
38
10
10
30
60
ENDCHAR
STARTCHAR 200C
ENCODING 8204
SWIDTH 0 0
DWIDTH 0 0
BBX 1 9 0 -1
BITMAP
80
80
80
80
80
80
80
80
80
ENDCHAR
STARTCHAR 200D
ENCODING 8205
SWIDTH 0 0
DWIDTH 0 0
BBX 2 10 -1 -1
BITMAP
C0
C0
80
80
80
80
80
80
80
80
ENDCHAR
STARTCHAR 200E
ENCODING 8206
SWIDTH 0 0
DWIDTH 0 0
BBX 3 11 0 -2
BITMAP
40
20
C0
80
80
80
80
80
80
80
80
ENDCHAR
STARTCHAR 200F
ENCODING 8207
SWIDTH 0 0
DWIDTH 0 0
BBX 3 11 -3 -2
BITMAP
40
80
E0
20
20
20
20
20
20
20
20
ENDCHAR
STARTCHAR 2013
ENCODING 8211
SWIDTH 504 0
DWIDTH 7 0
BBX 8 1 0 3
BITMAP
FF
ENDCHAR
STARTCHAR 2014
ENCODING 8212
SWIDTH 936 0
DWIDTH 13 0
BBX 14 1 0 3
BITMAP
FFFC
ENDCHAR
STARTCHAR 2015
ENCODING 8213
SWIDTH 936 0
DWIDTH 13 0
BBX 13 1 0 3
BITMAP
FFF8
ENDCHAR
STARTCHAR 2017
ENCODING 8215
SWIDTH 504 0
DWIDTH 7 0
BBX 8 3 0 -5
BITMAP
FF
00
FF
ENDCHAR
STARTCHAR 2018
ENCODING 8216
SWIDTH 216 0
DWIDTH 3 0
BBX 1 3 1 7
BITMAP
80
80
80
ENDCHAR
STARTCHAR 2019
ENCODING 8217
SWIDTH 216 0
DWIDTH 3 0
BBX 1 3 1 7
BITMAP
80
80
80
ENDCHAR
STARTCHAR 201A
ENCODING 8218
SWIDTH 216 0
DWIDTH 3 0
BBX 1 3 1 -2
BITMAP
80
80
80
ENDCHAR
STARTCHAR 201B
ENCODING 8219
SWIDTH 216 0
DWIDTH 3 0
BBX 1 3 1 7
BITMAP
80
80
80
ENDCHAR
STARTCHAR 201C
ENCODING 8220
SWIDTH 288 0
DWIDTH 4 0
BBX 3 3 1 7
BITMAP
A0
C0
A0
ENDCHAR
STARTCHAR 201D
ENCODING 8221
SWIDTH 288 0
DWIDTH 4 0
BBX 3 3 1 7
BITMAP
A0
A0
A0
ENDCHAR
STARTCHAR 201E
ENCODING 8222
SWIDTH 288 0
DWIDTH 4 0
BBX 3 2 1 -2
BITMAP
A0
A0
ENDCHAR
STARTCHAR 2020
ENCODING 8224
SWIDTH 504 0
DWIDTH 7 0
BBX 7 12 0 -2
BITMAP
10
10
10
FE
10
10
10
10
10
10
10
10
ENDCHAR
STARTCHAR 2021
ENCODING 8225
SWIDTH 504 0
DWIDTH 7 0
BBX 7 12 0 -2
BITMAP
10
10
10
FE
10
10
10
10
10
FE
10
10
ENDCHAR
STARTCHAR 2022
ENCODING 8226
SWIDTH 288 0
DWIDTH 4 0
BBX 3 4 1 3
BITMAP
40
E0
E0
E0
ENDCHAR
STARTCHAR 2026
ENCODING 8230
SWIDTH 936 0
DWIDTH 13 0
BBX 10 1 2 0
BITMAP
8C40
ENDCHAR
STARTCHAR 202A
ENCODING 8234
SWIDTH 0 0
DWIDTH 0 0
BBX 2 9 0 -2
BITMAP
C0
80
80
80
80
80
80
80
80
ENDCHAR
STARTCHAR 202B
ENCODING 8235
SWIDTH 0 0
DWIDTH 0 0
BBX 2 9 -2 -2
BITMAP
80
40
40
40
40
40
40
40
40
ENDCHAR
STARTCHAR 202C
ENCODING 8236
SWIDTH 0 0
DWIDTH 0 0
BBX 4 11 -2 -2
BITMAP
F0
F0
F0
40
40
40
40
40
40
40
40
ENDCHAR
STARTCHAR 202D
ENCODING 8237
SWIDTH 0 0
DWIDTH 0 0
BBX 4 11 -2 -2
BITMAP
F0
80
80
60
40
40
40
40
40
40
40
ENDCHAR
STARTCHAR 202E
ENCODING 8238
SWIDTH 0 0
DWIDTH 0 0
BBX 4 11 -2 -2
BITMAP
F0
10
10
60
40
40
40
40
40
40
40
ENDCHAR
STARTCHAR 2030
ENCODING 8240
SWIDTH 936 0
DWIDTH 13 0
BBX 14 10 0 0
BITMAP
7200
9200
9400
9400
7800
0B18
0CA8
14A4
14A4
23B8
ENDCHAR
STARTCHAR 2032
ENCODING 8242
SWIDTH 144 0
DWIDTH 2 0
BBX 2 4 1 6
BITMAP
C0
80
80
80
ENDCHAR
STARTCHAR 2033
ENCODING 8243
SWIDTH 288 0
DWIDTH 4 0
BBX 4 4 1 6
BITMAP
F0
A0
A0
A0
ENDCHAR
STARTCHAR 2039
ENCODING 8249
SWIDTH 288 0
DWIDTH 4 0
BBX 3 7 1 0
BITMAP
20
40
C0
80
C0
40
20
ENDCHAR
STARTCHAR 203A
ENCODING 8250
SWIDTH 288 0
DWIDTH 4 0
BBX 3 7 1 0
BITMAP
80
80
40
60
40
80
80
ENDCHAR
STARTCHAR 203C
ENCODING 8252
SWIDTH 432 0
DWIDTH 6 0
BBX 5 10 1 0
BITMAP
D8
D8
D8
D8
D8
98
90
00
00
D8
ENDCHAR
STARTCHAR 203E
ENCODING 8254
SWIDTH 288 0
DWIDTH 4 0
BBX 5 1 0 8
BITMAP
F8
ENDCHAR
STARTCHAR 2044
ENCODING 8260
SWIDTH 144 0
DWIDTH 2 0
BBX 8 10 -3 0
BITMAP
01
02
02
04
08
10
10
20
40
C0
ENDCHAR
STARTCHAR 206A
ENCODING 8298
SWIDTH 0 0
DWIDTH 0 0
BBX 4 11 -2 -2
BITMAP
F0
40
40
60
40
40
40
40
40
40
40
ENDCHAR
STARTCHAR 206B
ENCODING 8299
SWIDTH 0 0
DWIDTH 0 0
BBX 4 11 -2 -2
BITMAP
F0
90
90
60
40
40
40
40
40
40
40
ENDCHAR
STARTCHAR 206C
ENCODING 8300
SWIDTH 0 0
DWIDTH 0 0
BBX 4 11 -2 -2
BITMAP
F0
60
40
40
40
40
40
40
40
40
40
ENDCHAR
STARTCHAR 206D
ENCODING 8301
SWIDTH 0 0
DWIDTH 0 0
BBX 2 10 -1 -1
BITMAP
C0
C0
80
80
80
80
80
80
80
80
ENDCHAR
STARTCHAR 206E
ENCODING 8302
SWIDTH 0 0
DWIDTH 0 0
BBX 2 10 -1 -1
BITMAP
C0
C0
80
80
80
80
80
80
80
80
ENDCHAR
STARTCHAR 206F
ENCODING 8303
SWIDTH 0 0
DWIDTH 0 0
BBX 3 11 -2 -2
BITMAP
C0
40
40
60
40
40
40
40
40
40
40
ENDCHAR
STARTCHAR 207F
ENCODING 8319
SWIDTH 360 0
DWIDTH 5 0
BBX 4 4 1 4
BITMAP
E0
90
90
90
ENDCHAR
STARTCHAR 20A3
ENCODING 8355
SWIDTH 504 0
DWIDTH 7 0
BBX 7 10 0 0
BITMAP
7E
40
40
40
7C
40
40
F8
40
40
ENDCHAR
STARTCHAR 20A4
ENCODING 8356
SWIDTH 504 0
DWIDTH 7 0
BBX 7 10 0 0
BITMAP
3C
66
42
40
F8
20
F8
20
40
FE
ENDCHAR
STARTCHAR 20A7
ENCODING 8359
SWIDTH 1080 0
DWIDTH 15 0
BBX 15 10 0 0
BITMAP
F800
C500
C700
C7FC
CD66
F970
C11C
C106
C166
C1FC
ENDCHAR
STARTCHAR 20AA
ENCODING 8362
SWIDTH 792 0
DWIDTH 11 0
BBX 9 7 1 0
BITMAP
FC80
8680
9680
9680
9680
9080
9F80
ENDCHAR
STARTCHAR 20AB
ENCODING 8363
SWIDTH 504 0
DWIDTH 7 0
BBX 5 7 1 3
BITMAP
18
70
90
90
90
70
78
ENDCHAR
STARTCHAR 20AC
ENCODING 8364
SWIDTH 504 0
DWIDTH 7 0
BBX 8 10 0 0
BITMAP
1F
30
60
40
FE
FC
40
60
20
1E
ENDCHAR
STARTCHAR 2105
ENCODING 8453
SWIDTH 864 0
DWIDTH 12 0
BBX 11 10 1 0
BITMAP
F100
9200
8200
9400
E400
09C0
0A20
1220
1220
21C0
ENDCHAR
STARTCHAR 2113
ENCODING 8467
SWIDTH 288 0
DWIDTH 4 0
BBX 3 10 1 0
BITMAP
60
A0
A0
A0
C0
80
80
80
80
E0
ENDCHAR
STARTCHAR 2116
ENCODING 8470
SWIDTH 1008 0
DWIDTH 14 0
BBX 13 10 1 0
BITMAP
C300
C300
E370
B348
93C8
9B48
8B78
8700
8778
8300
ENDCHAR
STARTCHAR 2122
ENCODING 8482
SWIDTH 936 0
DWIDTH 13 0
BBX 10 6 2 4
BITMAP
F440
44C0
46C0
4740
4540
4540
ENDCHAR
STARTCHAR 2126
ENCODING 8486
SWIDTH 720 0
DWIDTH 10 0
BBX 9 10 1 0
BITMAP
3E00
6300
C180
C180
8180
C180
C180
4100
2200
F780
ENDCHAR
STARTCHAR 212E
ENCODING 8494
SWIDTH 576 0
DWIDTH 8 0
BBX 7 7 1 0
BITMAP
7C
84
86
F8
80
80
7C
ENDCHAR
STARTCHAR 2153
ENCODING 8531
SWIDTH 792 0
DWIDTH 11 0
BBX 10 10 1 0
BITMAP
4080
C100
4200
4600
4400
09C0
1040
1080
2040
41C0
ENDCHAR
STARTCHAR 2154
ENCODING 8532
SWIDTH 792 0
DWIDTH 11 0
BBX 11 10 0 0
BITMAP
7040
1080
1100
6300
F200
04E0
0820
0840
1020
21E0
ENDCHAR
STARTCHAR 215B
ENCODING 8539
SWIDTH 792 0
DWIDTH 11 0
BBX 10 10 1 0
BITMAP
4080
C100
4200
4600
4400
09C0
1240
1180
2240
43C0
ENDCHAR
STARTCHAR 215C
ENCODING 8540
SWIDTH 792 0
DWIDTH 11 0
BBX 10 10 1 0
BITMAP
E080
2100
6200
2600
E400
09C0
1240
1180
2240
43C0
ENDCHAR
STARTCHAR 215D
ENCODING 8541
SWIDTH 792 0
DWIDTH 11 0
BBX 11 10 0 0
BITMAP
7040
8080
F100
1300
7200
04E0
0920
08C0
1120
21E0
ENDCHAR
STARTCHAR 215E
ENCODING 8542
SWIDTH 792 0
DWIDTH 11 0
BBX 11 10 0 0
BITMAP
F080
1080
2100
2200
4200
04E0
0920
18C0
1120
21E0
ENDCHAR
STARTCHAR 2190
ENCODING 8592
SWIDTH 936 0
DWIDTH 13 0
BBX 12 5 1 1
BITMAP
2000
4000
FFF0
4000
2000
ENDCHAR
STARTCHAR 2191
ENCODING 8593
SWIDTH 432 0
DWIDTH 6 0
BBX 5 12 1 -3
BITMAP
20
70
A8
20
20
20
20
20
20
20
20
20
ENDCHAR
STARTCHAR 2192
ENCODING 8594
SWIDTH 936 0
DWIDTH 13 0
BBX 12 5 1 1
BITMAP
0040
0020
FFF0
0020
0040
ENDCHAR
STARTCHAR 2193
ENCODING 8595
SWIDTH 432 0
DWIDTH 6 0
BBX 4 12 1 -3
BITMAP
20
20
20
20
20
20
20
20
20
F0
70
20
ENDCHAR
STARTCHAR 2194
ENCODING 8596
SWIDTH 936 0
DWIDTH 13 0
BBX 12 5 1 1
BITMAP
2040
4020
FFF0
4020
2040
ENDCHAR
STARTCHAR 2195
ENCODING 8597
SWIDTH 432 0
DWIDTH 6 0
BBX 5 13 1 -3
BITMAP
20
70
F8
20
20
20
20
20
20
20
F8
70
20
ENDCHAR
STARTCHAR 21A8
ENCODING 8616
SWIDTH 432 0
DWIDTH 6 0
BBX 5 14 1 -4
BITMAP
20
70
F8
20
20
20
20
20
20
20
F8
70
20
70
ENDCHAR
STARTCHAR 2202
ENCODING 8706
SWIDTH 432 0
DWIDTH 6 0
BBX 7 10 0 0
BITMAP
1C
24
02
02
3E
64
44
C4
C8
70
ENDCHAR
STARTCHAR 2206
ENCODING 8710
SWIDTH 576 0
DWIDTH 8 0
BBX 8 9 0 0
BITMAP
08
08
1C
24
24
42
42
83
FF
ENDCHAR
STARTCHAR 220F
ENCODING 8719
SWIDTH 792 0
DWIDTH 11 0
BBX 9 13 1 -3
BITMAP
FF80
8080
8080
8080
8080
8080
8080
8080
8080
8080
8080
8080
8080
ENDCHAR
STARTCHAR 2211
ENCODING 8721
SWIDTH 648 0
DWIDTH 9 0
BBX 8 13 1 -3
BITMAP
FF
C0
60
30
10
18
0C
18
30
20
40
C0
FF
ENDCHAR
STARTCHAR 2212
ENCODING 8722
SWIDTH 576 0
DWIDTH 8 0
BBX 6 1 1 4
BITMAP
FC
ENDCHAR
STARTCHAR 2215
ENCODING 8725
SWIDTH 144 0
DWIDTH 2 0
BBX 8 10 -3 0
BITMAP
01
02
02
04
08
10
10
20
40
C0
ENDCHAR
STARTCHAR 2219
ENCODING 8729
SWIDTH 216 0
DWIDTH 3 0
BBX 2 2 1 4
BITMAP
C0
C0
ENDCHAR
STARTCHAR 221A
ENCODING 8730
SWIDTH 504 0
DWIDTH 7 0
BBX 7 14 1 -1
BITMAP
02
04
04
04
04
04
C4
48
28
28
18
08
08
08
ENDCHAR
STARTCHAR 221E
ENCODING 8734
SWIDTH 648 0
DWIDTH 9 0
BBX 8 4 1 3
BITMAP
46
B9
91
6F
ENDCHAR
STARTCHAR 221F
ENCODING 8735
SWIDTH 936 0
DWIDTH 13 0
BBX 9 9 2 0
BITMAP
8000
8000
8000
8000
8000
8000
8000
8000
FF80
ENDCHAR
STARTCHAR 2229
ENCODING 8745
SWIDTH 648 0
DWIDTH 9 0
BBX 8 10 1 0
BITMAP
3C
42
81
81
81
81
81
81
81
81
ENDCHAR
STARTCHAR 222B
ENCODING 8747
SWIDTH 216 0
DWIDTH 3 0
BBX 4 14 0 -1
BITMAP
20
50
40
40
40
40
40
40
40
40
40
40
40
C0
ENDCHAR
STARTCHAR 2248
ENCODING 8776
SWIDTH 504 0
DWIDTH 7 0
BBX 7 4 0 3
BITMAP
FA
8E
70
FE
ENDCHAR
STARTCHAR 2260
ENCODING 8800
SWIDTH 504 0
DWIDTH 7 0
BBX 6 10 1 0
BITMAP
08
08
10
FC
10
20
FC
40
40
80
ENDCHAR
STARTCHAR 2261
ENCODING 8801
SWIDTH 576 0
DWIDTH 8 0
BBX 6 7 1 1
BITMAP
FC
00
00
FC
00
00
FC
ENDCHAR
STARTCHAR 2264
ENCODING 8804
SWIDTH 504 0
DWIDTH 7 0
BBX 6 8 1 1
BITMAP
04
38
E0
80
70
1C
00
FC
ENDCHAR
STARTCHAR 2265
ENCODING 8805
SWIDTH 504 0
DWIDTH 7 0
BBX 6 8 1 1
BITMAP
80
E0
1C
0C
38
C0
00
FC
ENDCHAR
STARTCHAR 2302
ENCODING 8962
SWIDTH 576 0
DWIDTH 8 0
BBX 6 7 1 1
BITMAP
30
48
84
84
84
84
FC
ENDCHAR
STARTCHAR 2310
ENCODING 8976
SWIDTH 576 0
DWIDTH 8 0
BBX 6 4 1 3
BITMAP
FC
80
80
80
ENDCHAR
STARTCHAR 2320
ENCODING 8992
SWIDTH 576 0
DWIDTH 8 0
BBX 2 16 4 -4
BITMAP
40
80
80
80
80
80
80
80
80
80
80
80
80
80
80
80
ENDCHAR
STARTCHAR 2321
ENCODING 8993
SWIDTH 576 0
DWIDTH 8 0
BBX 3 15 2 -4
BITMAP
20
20
20
20
20
20
20
20
20
20
20
20
20
20
C0
ENDCHAR
STARTCHAR 2500
ENCODING 9472
SWIDTH 648 0
DWIDTH 9 0
BBX 10 1 0 4
BITMAP
FFC0
ENDCHAR
STARTCHAR 2502
ENCODING 9474
SWIDTH 576 0
DWIDTH 8 0
BBX 1 17 3 -4
BITMAP
80
80
80
80
80
80
80
80
80
80
80
80
80
80
80
80
80
ENDCHAR
STARTCHAR 250C
ENCODING 9484
SWIDTH 648 0
DWIDTH 9 0
BBX 6 9 4 -4
BITMAP
FC
C0
C0
C0
C0
C0
C0
C0
C0
ENDCHAR
STARTCHAR 2510
ENCODING 9488
SWIDTH 648 0
DWIDTH 9 0
BBX 6 9 0 -4
BITMAP
FC
0C
0C
0C
0C
0C
0C
0C
0C
ENDCHAR
STARTCHAR 2514
ENCODING 9492
SWIDTH 648 0
DWIDTH 9 0
BBX 6 9 4 4
BITMAP
C0
C0
C0
C0
C0
C0
C0
C0
FC
ENDCHAR
STARTCHAR 2518
ENCODING 9496
SWIDTH 648 0
DWIDTH 9 0
BBX 6 9 0 4
BITMAP
0C
0C
0C
0C
0C
0C
0C
0C
FC
ENDCHAR
STARTCHAR 251C
ENCODING 9500
SWIDTH 648 0
DWIDTH 9 0
BBX 6 17 4 -4
BITMAP
C0
C0
C0
C0
C0
C0
C0
C0
FC
C0
C0
C0
C0
C0
C0
C0
C0
ENDCHAR
STARTCHAR 2524
ENCODING 9508
SWIDTH 648 0
DWIDTH 9 0
BBX 6 17 0 -4
BITMAP
0C
0C
0C
0C
0C
0C
0C
0C
FC
0C
0C
0C
0C
0C
0C
0C
0C
ENDCHAR
STARTCHAR 252C
ENCODING 9516
SWIDTH 648 0
DWIDTH 9 0
BBX 10 9 0 -4
BITMAP
FFC0
0C00
0C00
0C00
0C00
0C00
0C00
0C00
0C00
ENDCHAR
STARTCHAR 2534
ENCODING 9524
SWIDTH 648 0
DWIDTH 9 0
BBX 10 9 0 4
BITMAP
0C00
0C00
0C00
0C00
0C00
0C00
0C00
0C00
FFC0
ENDCHAR
STARTCHAR 253C
ENCODING 9532
SWIDTH 648 0
DWIDTH 9 0
BBX 10 17 0 -4
BITMAP
0C00
0C00
0C00
0C00
0C00
0C00
0C00
0C00
FFC0
0C00
0C00
0C00
0C00
0C00
0C00
0C00
0C00
ENDCHAR
STARTCHAR 2550
ENCODING 9552
SWIDTH 648 0
DWIDTH 9 0
BBX 10 4 0 2
BITMAP
FFC0
0000
FFC0
FFC0
ENDCHAR
STARTCHAR 2551
ENCODING 9553
SWIDTH 648 0
DWIDTH 9 0
BBX 4 17 3 -4
BITMAP
90
90
90
90
90
90
90
90
90
90
90
90
90
90
90
90
90
ENDCHAR
STARTCHAR 2552
ENCODING 9554
SWIDTH 648 0
DWIDTH 9 0
BBX 6 10 4 -4
BITMAP
FC
C0
FC
FC
C0
C0
C0
C0
C0
C0
ENDCHAR
STARTCHAR 2553
ENCODING 9555
SWIDTH 648 0
DWIDTH 9 0
BBX 7 9 3 -4
BITMAP
FE
90
90
90
90
90
90
90
90
ENDCHAR
STARTCHAR 2554
ENCODING 9556
SWIDTH 648 0
DWIDTH 9 0
BBX 7 10 3 -4
BITMAP
FE
80
9E
9E
90
90
90
90
90
90
ENDCHAR
STARTCHAR 2555
ENCODING 9557
SWIDTH 648 0
DWIDTH 9 0
BBX 6 10 0 -4
BITMAP
FC
0C
FC
FC
0C
0C
0C
0C
0C
0C
ENDCHAR
STARTCHAR 2556
ENCODING 9558
SWIDTH 648 0
DWIDTH 9 0
BBX 7 9 0 -4
BITMAP
FE
12
12
12
12
12
12
12
12
ENDCHAR
STARTCHAR 2557
ENCODING 9559
SWIDTH 648 0
DWIDTH 9 0
BBX 7 10 0 -4
BITMAP
FE
02
F2
F2
12
12
12
12
12
12
ENDCHAR
STARTCHAR 2558
ENCODING 9560
SWIDTH 648 0
DWIDTH 9 0
BBX 6 11 4 2
BITMAP
C0
C0
C0
C0
C0
C0
C0
FC
C0
FC
FC
ENDCHAR
STARTCHAR 2559
ENCODING 9561
SWIDTH 648 0
DWIDTH 9 0
BBX 7 9 3 4
BITMAP
90
90
90
90
90
90
90
90
FE
ENDCHAR
STARTCHAR 255A
ENCODING 9562
SWIDTH 648 0
DWIDTH 9 0
BBX 7 11 3 2
BITMAP
90
90
90
90
90
90
90
9E
80
FE
FE
ENDCHAR
STARTCHAR 255B
ENCODING 9563
SWIDTH 648 0
DWIDTH 9 0
BBX 6 11 0 2
BITMAP
0C
0C
0C
0C
0C
0C
0C
FC
0C
FC
FC
ENDCHAR
STARTCHAR 255C
ENCODING 9564
SWIDTH 648 0
DWIDTH 9 0
BBX 7 9 0 4
BITMAP
12
12
12
12
12
12
12
12
FE
ENDCHAR
STARTCHAR 255D
ENCODING 9565
SWIDTH 648 0
DWIDTH 9 0
BBX 7 11 0 2
BITMAP
12
12
12
12
12
12
12
F2
02
FE
FE
ENDCHAR
STARTCHAR 255E
ENCODING 9566
SWIDTH 648 0
DWIDTH 9 0
BBX 6 17 4 -4
BITMAP
C0
C0
C0
C0
C0
C0
C0
FC
C0
FC
FC
C0
C0
C0
C0
C0
C0
ENDCHAR
STARTCHAR 255F
ENCODING 9567
SWIDTH 648 0
DWIDTH 9 0
BBX 7 17 3 -4
BITMAP
90
90
90
90
90
90
90
90
9E
90
90
90
90
90
90
90
90
ENDCHAR
STARTCHAR 2560
ENCODING 9568
SWIDTH 648 0
DWIDTH 9 0
BBX 7 17 3 -4
BITMAP
90
90
90
90
90
90
90
9E
80
9E
9E
90
90
90
90
90
90
ENDCHAR
STARTCHAR 2561
ENCODING 9569
SWIDTH 648 0
DWIDTH 9 0
BBX 6 17 0 -4
BITMAP
0C
0C
0C
0C
0C
0C
0C
FC
0C
FC
FC
0C
0C
0C
0C
0C
0C
ENDCHAR
STARTCHAR 2562
ENCODING 9570
SWIDTH 648 0
DWIDTH 9 0
BBX 7 17 0 -4
BITMAP
12
12
12
12
12
12
12
12
F2
12
12
12
12
12
12
12
12
ENDCHAR
STARTCHAR 2563
ENCODING 9571
SWIDTH 648 0
DWIDTH 9 0
BBX 7 17 0 -4
BITMAP
12
12
12
12
12
12
12
F2
02
F2
F2
12
12
12
12
12
12
ENDCHAR
STARTCHAR 2564
ENCODING 9572
SWIDTH 648 0
DWIDTH 9 0
BBX 10 10 0 -4
BITMAP
FFC0
0000
FFC0
FFC0
0C00
0C00
0C00
0C00
0C00
0C00
ENDCHAR
STARTCHAR 2565
ENCODING 9573
SWIDTH 648 0
DWIDTH 9 0
BBX 10 9 0 -4
BITMAP
FFC0
1200
1200
1200
1200
1200
1200
1200
1200
ENDCHAR
STARTCHAR 2566
ENCODING 9574
SWIDTH 648 0
DWIDTH 9 0
BBX 10 10 0 -4
BITMAP
FFC0
0000
F3C0
F3C0
1200
1200
1200
1200
1200
1200
ENDCHAR
STARTCHAR 2567
ENCODING 9575
SWIDTH 648 0
DWIDTH 9 0
BBX 10 11 0 2
BITMAP
0C00
0C00
0C00
0C00
0C00
0C00
0C00
FFC0
0000
FFC0
FFC0
ENDCHAR
STARTCHAR 2568
ENCODING 9576
SWIDTH 648 0
DWIDTH 9 0
BBX 10 9 0 4
BITMAP
1200
1200
1200
1200
1200
1200
1200
1200
FFC0
ENDCHAR
STARTCHAR 2569
ENCODING 9577
SWIDTH 648 0
DWIDTH 9 0
BBX 10 11 0 2
BITMAP
1200
1200
1200
1200
1200
1200
1200
F3C0
0000
FFC0
FFC0
ENDCHAR
STARTCHAR 256A
ENCODING 9578
SWIDTH 648 0
DWIDTH 9 0
BBX 10 17 0 -4
BITMAP
0C00
0C00
0C00
0C00
0C00
0C00
0C00
FFC0
0C00
FFC0
FFC0
0C00
0C00
0C00
0C00
0C00
0C00
ENDCHAR
STARTCHAR 256B
ENCODING 9579
SWIDTH 648 0
DWIDTH 9 0
BBX 10 17 0 -4
BITMAP
1200
1200
1200
1200
1200
1200
1200
1200
FFC0
1200
1200
1200
1200
1200
1200
1200
1200
ENDCHAR
STARTCHAR 256C
ENCODING 9580
SWIDTH 648 0
DWIDTH 9 0
BBX 10 17 0 -4
BITMAP
1200
1200
1200
1200
1200
1200
1200
F3C0
0000
F3C0
F3C0
1200
1200
1200
1200
1200
1200
ENDCHAR
STARTCHAR 2580
ENCODING 9600
SWIDTH 648 0
DWIDTH 9 0
BBX 10 9 0 4
BITMAP
FFC0
FFC0
FFC0
FFC0
FFC0
FFC0
FFC0
FFC0
FFC0
ENDCHAR
STARTCHAR 2584
ENCODING 9604
SWIDTH 648 0
DWIDTH 9 0
BBX 10 8 0 -4
BITMAP
FFC0
FFC0
FFC0
FFC0
FFC0
FFC0
FFC0
FFC0
ENDCHAR
STARTCHAR 2588
ENCODING 9608
SWIDTH 648 0
DWIDTH 9 0
BBX 10 17 0 -4
BITMAP
FFC0
FFC0
FFC0
FFC0
FFC0
FFC0
FFC0
FFC0
FFC0
FFC0
FFC0
FFC0
FFC0
FFC0
FFC0
FFC0
FFC0
ENDCHAR
STARTCHAR 258C
ENCODING 9612
SWIDTH 648 0
DWIDTH 9 0
BBX 5 17 0 -4
BITMAP
F8
F8
F8
F8
F8
F8
F8
F8
F8
F8
F8
F8
F8
F8
F8
F8
F8
ENDCHAR
STARTCHAR 2590
ENCODING 9616
SWIDTH 648 0
DWIDTH 9 0
BBX 5 17 5 -4
BITMAP
F8
F8
F8
F8
F8
F8
F8
F8
F8
F8
F8
F8
F8
F8
F8
F8
F8
ENDCHAR
STARTCHAR 2591
ENCODING 9617
SWIDTH 648 0
DWIDTH 9 0
BBX 9 15 1 -3
BITMAP
9200
0000
4480
0000
9200
4480
0000
9200
0000
4480
9200
0000
4480
0000
9200
ENDCHAR
STARTCHAR 2592
ENCODING 9618
SWIDTH 648 0
DWIDTH 9 0
BBX 10 15 0 -3
BITMAP
6B40
0000
9480
0000
6B40
9480
0000
6B40
0000
9480
6B40
0000
9480
0000
6B40
ENDCHAR
STARTCHAR 2593
ENCODING 9619
SWIDTH 720 0
DWIDTH 10 0
BBX 10 17 0 -4
BITMAP
4A40
FFC0
B580
FFC0
6B40
B580
FFC0
6B40
FFC0
B580
FFC0
FFC0
B580
FFC0
6B40
FFC0
FFC0
ENDCHAR
STARTCHAR 25A0
ENCODING 9632
SWIDTH 576 0
DWIDTH 8 0
BBX 6 6 1 0
BITMAP
FC
FC
FC
FC
FC
FC
ENDCHAR
STARTCHAR 25A1
ENCODING 9633
SWIDTH 576 0
DWIDTH 8 0
BBX 6 6 1 0
BITMAP
FC
84
84
84
84
FC
ENDCHAR
STARTCHAR 25AA
ENCODING 9642
SWIDTH 288 0
DWIDTH 4 0
BBX 3 3 1 3
BITMAP
E0
E0
E0
ENDCHAR
STARTCHAR 25AB
ENCODING 9643
SWIDTH 288 0
DWIDTH 4 0
BBX 3 3 1 3
BITMAP
E0
A0
E0
ENDCHAR
STARTCHAR 25AC
ENCODING 9644
SWIDTH 936 0
DWIDTH 13 0
BBX 14 3 0 2
BITMAP
FFFC
FFFC
FFFC
ENDCHAR
STARTCHAR 25B2
ENCODING 9650
SWIDTH 936 0
DWIDTH 13 0
BBX 9 9 2 1
BITMAP
0800
0C00
1C00
1E00
3E00
3F00
7F00
7F80
FF80
ENDCHAR
STARTCHAR 25BA
ENCODING 9658
SWIDTH 936 0
DWIDTH 13 0
BBX 9 9 2 1
BITMAP
C000
F000
FC00
FF00
FF80
FE00
F800
E000
8000
ENDCHAR
STARTCHAR 25BC
ENCODING 9660
SWIDTH 936 0
DWIDTH 13 0
BBX 8 9 3 0
BITMAP
FF
FF
7E
7E
3C
3C
18
18
10
ENDCHAR
STARTCHAR 25C4
ENCODING 9668
SWIDTH 936 0
DWIDTH 13 0
BBX 10 9 2 1
BITMAP
00C0
03C0
0FC0
3FC0
FFC0
3FC0
0FC0
03C0
00C0
ENDCHAR
STARTCHAR 25CA
ENCODING 9674
SWIDTH 432 0
DWIDTH 6 0
BBX 6 10 0 0
BITMAP
10
30
28
44
84
84
44
48
28
10
ENDCHAR
STARTCHAR 25CB
ENCODING 9675
SWIDTH 576 0
DWIDTH 8 0
BBX 6 6 1 1
BITMAP
38
C4
84
84
84
78
ENDCHAR
STARTCHAR 25CF
ENCODING 9679
SWIDTH 576 0
DWIDTH 8 0
BBX 6 6 1 1
BITMAP
38
7C
FC
FC
7C
78
ENDCHAR
STARTCHAR 25D8
ENCODING 9688
SWIDTH 576 0
DWIDTH 8 0
BBX 7 7 1 0
BITMAP
FE
FE
CE
C6
CE
FE
FE
ENDCHAR
STARTCHAR 25D9
ENCODING 9689
SWIDTH 576 0
DWIDTH 8 0
BBX 8 8 0 0
BITMAP
FF
E3
FD
BF
BF
FD
CB
FF
ENDCHAR
STARTCHAR 25E6
ENCODING 9702
SWIDTH 288 0
DWIDTH 4 0
BBX 3 3 1 3
BITMAP
E0
A0
E0
ENDCHAR
STARTCHAR 263A
ENCODING 9786
SWIDTH 1008 0
DWIDTH 14 0
BBX 8 9 3 -1
BITMAP
3C
42
81
A5
81
81
A5
5A
3C
ENDCHAR
STARTCHAR 263B
ENCODING 9787
SWIDTH 1008 0
DWIDTH 14 0
BBX 9 9 3 -1
BITMAP
1C00
7E00
FF00
D980
FF80
FF80
EB00
7E00
1C00
ENDCHAR
STARTCHAR 263C
ENCODING 9788
SWIDTH 864 0
DWIDTH 12 0
BBX 12 13 1 -2
BITMAP
0400
0400
4E40
3180
4080
4080
C070
4080
2080
3180
CE40
0400
0400
ENDCHAR
STARTCHAR 2640
ENCODING 9792
SWIDTH 720 0
DWIDTH 10 0
BBX 7 12 2 -3
BITMAP
78
84
82
82
82
84
68
30
20
20
7C
20
ENDCHAR
STARTCHAR 2642
ENCODING 9794
SWIDTH 720 0
DWIDTH 10 0
BBX 9 13 1 -2
BITMAP
0300
0F00
0500
0500
0480
0800
7400
8400
8200
8200
8200
8400
7800
ENDCHAR
STARTCHAR 2660
ENCODING 9824
SWIDTH 504 0
DWIDTH 7 0
BBX 7 8 0 0
BITMAP
10
18
3C
7E
FE
6E
10
38
ENDCHAR
STARTCHAR 2663
ENCODING 9827
SWIDTH 648 0
DWIDTH 9 0
BBX 9 8 0 0
BITMAP
1C00
1C00
7F00
7F80
FF80
7F00
0800
1C00
ENDCHAR
STARTCHAR 2665
ENCODING 9829
SWIDTH 576 0
DWIDTH 8 0
BBX 8 7 0 0
BITMAP
77
FF
7F
7E
3C
1C
18
ENDCHAR
STARTCHAR 2666
ENCODING 9830
SWIDTH 504 0
DWIDTH 7 0
BBX 5 8 1 0
BITMAP
20
70
78
F8
F8
70
70
20
ENDCHAR
STARTCHAR 266A
ENCODING 9834
SWIDTH 432 0
DWIDTH 6 0
BBX 7 9 0 0
BITMAP
1C
16
12
10
10
10
70
F0
F0
ENDCHAR
STARTCHAR 266B
ENCODING 9835
SWIDTH 720 0
DWIDTH 10 0
BBX 8 11 1 -1
BITMAP
07
1F
19
21
21
21
27
2F
EF
E0
E0
ENDCHAR
STARTCHAR E801
ENCODING 59393
SWIDTH 216 0
DWIDTH 3 0
BBX 3 9 -1 0
BITMAP
C0
00
20
20
20
20
20
20
20
ENDCHAR
STARTCHAR E802
ENCODING 59394
SWIDTH 504 0
DWIDTH 7 0
BBX 6 10 0 -3
BITMAP
F8
0C
04
04
24
24
04
04
04
04
ENDCHAR
STARTCHAR E803
ENCODING 59395
SWIDTH 504 0
DWIDTH 7 0
BBX 6 10 0 -3
BITMAP
F8
0C
04
04
04
64
24
04
04
04
ENDCHAR
STARTCHAR E804
ENCODING 59396
SWIDTH 432 0
DWIDTH 6 0
BBX 7 10 -1 0
BITMAP
60
E0
60
7E
06
06
04
0C
08
08
ENDCHAR
STARTCHAR E805
ENCODING 59397
SWIDTH 432 0
DWIDTH 6 0
BBX 7 10 -1 0
BITMAP
60
E0
60
7E
06
16
04
0C
08
08
ENDCHAR
STARTCHAR E818
ENCODING 59416
SWIDTH 144 0
DWIDTH 2 0
BBX 3 4 0 8
BITMAP
20
E0
C0
60
ENDCHAR
STARTCHAR E83A
ENCODING 59450
SWIDTH 576 0
DWIDTH 8 0
BBX 9 1 0 2
BITMAP
FF80
ENDCHAR
STARTCHAR F001
ENCODING 61441
SWIDTH 432 0
DWIDTH 6 0
BBX 6 10 0 0
BITMAP
34
60
40
F4
44
44
44
44
44
44
ENDCHAR
STARTCHAR F002
ENCODING 61442
SWIDTH 432 0
DWIDTH 6 0
BBX 6 10 0 0
BITMAP
34
64
44
F4
44
44
44
44
44
44
ENDCHAR
STARTCHAR F004
ENCODING 61444
SWIDTH 288 0
DWIDTH 4 0
BBX 1 2 2 -4
BITMAP
80
80
ENDCHAR
STARTCHAR F005
ENCODING 61445
SWIDTH 288 0
DWIDTH 4 0
BBX 3 3 1 -3
BITMAP
C0
20
C0
ENDCHAR
STARTCHAR F006
ENCODING 61446
SWIDTH 0 0
DWIDTH 0 0
BBX 2 1 -3 11
BITMAP
C0
ENDCHAR
STARTCHAR F007
ENCODING 61447
SWIDTH 0 0
DWIDTH 0 0
BBX 1 1 -5 11
BITMAP
80
ENDCHAR
STARTCHAR F008
ENCODING 61448
SWIDTH 0 0
DWIDTH 0 0
BBX 2 2 -2 8
BITMAP
C0
80
ENDCHAR
STARTCHAR F009
ENCODING 61449
SWIDTH 0 0
DWIDTH 0 0
BBX 2 2 -4 10
BITMAP
C0
80
ENDCHAR
STARTCHAR F00A
ENCODING 61450
SWIDTH 0 0
DWIDTH 0 0
BBX 1 14 0 -3
BITMAP
80
80
80
80
80
80
00
00
00
80
80
80
80
80
ENDCHAR
STARTCHAR F00B
ENCODING 61451
SWIDTH 0 0
DWIDTH 0 0
BBX 4 15 -2 -3
BITMAP
60
40
40
40
40
40
40
40
40
40
40
40
40
40
F0
ENDCHAR
STARTCHAR F00C
ENCODING 61452
SWIDTH 0 0
DWIDTH 0 0
BBX 1 14 0 -3
BITMAP
80
80
80
80
80
80
80
80
80
80
80
80
80
80
ENDCHAR
STARTCHAR F00D
ENCODING 61453
SWIDTH 0 0
DWIDTH 0 0
BBX 1 14 -1 -3
BITMAP
80
80
80
80
80
80
80
80
80
80
80
80
80
80
ENDCHAR
STARTCHAR F00E
ENCODING 61454
SWIDTH 0 0
DWIDTH 0 0
BBX 2 15 0 -3
BITMAP
80
80
80
80
80
80
80
80
80
80
80
80
80
80
C0
ENDCHAR
STARTCHAR F00F
ENCODING 61455
SWIDTH 0 0
DWIDTH 0 0
BBX 2 2 -5 8
BITMAP
80
C0
ENDCHAR
STARTCHAR F010
ENCODING 61456
SWIDTH 0 0
DWIDTH 0 0
BBX 1 1 -2 11
BITMAP
80
ENDCHAR
STARTCHAR F011
ENCODING 61457
SWIDTH 0 0
DWIDTH 0 0
BBX 1 1 -5 11
BITMAP
80
ENDCHAR
STARTCHAR F012
ENCODING 61458
SWIDTH 0 0
DWIDTH 0 0
BBX 2 2 -2 9
BITMAP
C0
80
ENDCHAR
STARTCHAR F013
ENCODING 61459
SWIDTH 0 0
DWIDTH 0 0
BBX 3 2 -5 10
BITMAP
E0
40
ENDCHAR
STARTCHAR F014
ENCODING 61460
SWIDTH 0 0
DWIDTH 0 0
BBX 3 2 -5 9
BITMAP
E0
40
ENDCHAR
STARTCHAR F015
ENCODING 61461
SWIDTH 0 0
DWIDTH 0 0
BBX 4 1 -7 11
BITMAP
F0
ENDCHAR
STARTCHAR F016
ENCODING 61462
SWIDTH 0 0
DWIDTH 0 0
BBX 4 1 -7 11
BITMAP
F0
ENDCHAR
STARTCHAR F017
ENCODING 61463
SWIDTH 0 0
DWIDTH 0 0
BBX 5 1 -9 11
BITMAP
F8
ENDCHAR
STARTCHAR F018
ENCODING 61464
SWIDTH 0 0
DWIDTH 0 0
BBX 4 1 -9 11
BITMAP
F0
ENDCHAR
STARTCHAR F019
ENCODING 61465
SWIDTH 0 0
DWIDTH 0 0
BBX 4 2 -6 8
BITMAP
D0
B0
ENDCHAR
STARTCHAR F01A
ENCODING 61466
SWIDTH 0 0
DWIDTH 0 0
BBX 5 2 -8 8
BITMAP
68
90
ENDCHAR
STARTCHAR F01B
ENCODING 61467
SWIDTH 0 0
DWIDTH 0 0
BBX 5 2 -8 8
BITMAP
48
B0
ENDCHAR
STARTCHAR F01C
ENCODING 61468
SWIDTH 0 0
DWIDTH 0 0
BBX 4 1 -4 11
BITMAP
F0
ENDCHAR
STARTCHAR F01D
ENCODING 61469
SWIDTH 0 0
DWIDTH 0 0
BBX 5 2 -4 8
BITMAP
68
90
ENDCHAR
STARTCHAR F01E
ENCODING 61470
SWIDTH 0 0
DWIDTH 0 0
BBX 1 1 -5 -2
BITMAP
80
ENDCHAR
STARTCHAR F01F
ENCODING 61471
SWIDTH 0 0
DWIDTH 0 0
BBX 1 1 -6 -2
BITMAP
80
ENDCHAR
STARTCHAR F020
ENCODING 61472
SWIDTH 0 0
DWIDTH 0 0
BBX 1 1 -7 -2
BITMAP
80
ENDCHAR
STARTCHAR F021
ENCODING 61473
SWIDTH 0 0
DWIDTH 0 0
BBX 2 1 -6 -2
BITMAP
C0
ENDCHAR
STARTCHAR F022
ENCODING 61474
SWIDTH 0 0
DWIDTH 0 0
BBX 2 1 -8 -2
BITMAP
C0
ENDCHAR
STARTCHAR F023
ENCODING 61475
SWIDTH 0 0
DWIDTH 0 0
BBX 2 1 -5 -2
BITMAP
C0
ENDCHAR
STARTCHAR F024
ENCODING 61476
SWIDTH 0 0
DWIDTH 0 0
BBX 1 1 -4 -2
BITMAP
80
ENDCHAR
STARTCHAR F025
ENCODING 61477
SWIDTH 0 0
DWIDTH 0 0
BBX 2 1 -5 -2
BITMAP
C0
ENDCHAR
STARTCHAR F026
ENCODING 61478
SWIDTH 0 0
DWIDTH 0 0
BBX 1 1 -6 -2
BITMAP
80
ENDCHAR
STARTCHAR F027
ENCODING 61479
SWIDTH 0 0
DWIDTH 0 0
BBX 1 1 -5 -2
BITMAP
80
ENDCHAR
STARTCHAR F028
ENCODING 61480
SWIDTH 0 0
DWIDTH 0 0
BBX 2 1 -7 -2
BITMAP
C0
ENDCHAR
STARTCHAR F029
ENCODING 61481
SWIDTH 0 0
DWIDTH 0 0
BBX 2 1 -3 -2
BITMAP
C0
ENDCHAR
STARTCHAR F02A
ENCODING 61482
SWIDTH 0 0
DWIDTH 0 0
BBX 1 1 -2 -2
BITMAP
80
ENDCHAR
STARTCHAR F02B
ENCODING 61483
SWIDTH 0 0
DWIDTH 0 0
BBX 1 1 -5 -2
BITMAP
80
ENDCHAR
STARTCHAR F02C
ENCODING 61484
SWIDTH 0 0
DWIDTH 0 0
BBX 2 1 -2 -2
BITMAP
C0
ENDCHAR
STARTCHAR F02D
ENCODING 61485
SWIDTH 0 0
DWIDTH 0 0
BBX 4 1 -7 11
BITMAP
F0
ENDCHAR
STARTCHAR F02E
ENCODING 61486
SWIDTH 0 0
DWIDTH 0 0
BBX 4 1 -7 11
BITMAP
F0
ENDCHAR
STARTCHAR F02F
ENCODING 61487
SWIDTH 0 0
DWIDTH 0 0
BBX 4 1 -8 11
BITMAP
F0
ENDCHAR
STARTCHAR F030
ENCODING 61488
SWIDTH 0 0
DWIDTH 0 0
BBX 5 1 -8 11
BITMAP
F8
ENDCHAR
STARTCHAR F031
ENCODING 61489
SWIDTH 216 0
DWIDTH 3 0
BBX 1 7 1 0
BITMAP
80
80
80
80
80
80
80
ENDCHAR
STARTCHAR FB01
ENCODING 64257
SWIDTH 432 0
DWIDTH 6 0
BBX 6 10 0 0
BITMAP
34
60
40
F4
44
44
44
44
44
44
ENDCHAR
STARTCHAR FB02
ENCODING 64258
SWIDTH 432 0
DWIDTH 6 0
BBX 6 10 0 0
BITMAP
34
64
44
F4
44
44
44
44
44
44
ENDCHAR
STARTCHAR FB20
ENCODING 64288
SWIDTH 504 0
DWIDTH 7 0
BBX 6 7 0 0
BITMAP
44
64
24
24
24
2C
F8
ENDCHAR
STARTCHAR FB2A
ENCODING 64298
SWIDTH 648 0
DWIDTH 9 0
BBX 8 9 1 0
BITMAP
01
00
91
91
93
F3
82
46
7C
ENDCHAR
STARTCHAR FB2B
ENCODING 64299
SWIDTH 648 0
DWIDTH 9 0
BBX 8 9 1 0
BITMAP
80
00
91
91
93
F3
82
46
7C
ENDCHAR
STARTCHAR FB2C
ENCODING 64300
SWIDTH 648 0
DWIDTH 9 0
BBX 8 9 1 0
BITMAP
01
00
91
91
93
F3
82
46
7C
ENDCHAR
STARTCHAR FB2D
ENCODING 64301
SWIDTH 648 0
DWIDTH 9 0
BBX 8 9 1 0
BITMAP
80
00
91
91
93
F3
82
46
7C
ENDCHAR
STARTCHAR FB2E
ENCODING 64302
SWIDTH 504 0
DWIDTH 7 0
BBX 6 9 1 -2
BITMAP
C4
6C
6C
F8
98
88
8C
00
30
ENDCHAR
STARTCHAR FB2F
ENCODING 64303
SWIDTH 504 0
DWIDTH 7 0
BBX 6 9 1 -3
BITMAP
C4
6C
6C
F8
98
88
8C
00
30
ENDCHAR
STARTCHAR FB30
ENCODING 64304
SWIDTH 504 0
DWIDTH 7 0
BBX 6 7 1 0
BITMAP
C4
6C
6C
F8
98
A8
8C
ENDCHAR
STARTCHAR FB31
ENCODING 64305
SWIDTH 504 0
DWIDTH 7 0
BBX 7 7 0 0
BITMAP
78
0C
04
24
04
04
FE
ENDCHAR
STARTCHAR FB32
ENCODING 64306
SWIDTH 360 0
DWIDTH 5 0
BBX 5 7 0 0
BITMAP
70
10
70
10
30
78
C8
ENDCHAR
STARTCHAR FB33
ENCODING 64307
SWIDTH 504 0
DWIDTH 7 0
BBX 7 7 0 0
BITMAP
FE
0C
0C
2C
0C
0C
0C
ENDCHAR
STARTCHAR FB34
ENCODING 64308
SWIDTH 576 0
DWIDTH 8 0
BBX 6 7 1 0
BITMAP
F8
04
04
94
84
84
84
ENDCHAR
STARTCHAR FB35
ENCODING 64309
SWIDTH 216 0
DWIDTH 3 0
BBX 3 7 0 0
BITMAP
20
20
20
A0
20
20
20
ENDCHAR
STARTCHAR FB36
ENCODING 64310
SWIDTH 360 0
DWIDTH 5 0
BBX 6 7 0 0
BITMAP
7C
10
A0
20
30
30
30
ENDCHAR
STARTCHAR FB38
ENCODING 64312
SWIDTH 576 0
DWIDTH 8 0
BBX 6 7 1 0
BITMAP
9C
84
84
94
84
C4
78
ENDCHAR
STARTCHAR FB39
ENCODING 64313
SWIDTH 216 0
DWIDTH 3 0
BBX 3 4 0 3
BITMAP
20
A0
A0
20
ENDCHAR
STARTCHAR FB3A
ENCODING 64314
SWIDTH 504 0
DWIDTH 7 0
BBX 6 10 0 -3
BITMAP
F8
0C
04
24
04
04
04
04
04
04
ENDCHAR
STARTCHAR FB3B
ENCODING 64315
SWIDTH 432 0
DWIDTH 6 0
BBX 5 7 1 0
BITMAP
F0
10
18
58
18
10
E0
ENDCHAR
STARTCHAR FB3C
ENCODING 64316
SWIDTH 432 0
DWIDTH 6 0
BBX 6 10 0 0
BITMAP
C0
C0
C0
FC
0C
2C
08
18
10
10
ENDCHAR
STARTCHAR FB3E
ENCODING 64318
SWIDTH 576 0
DWIDTH 8 0
BBX 6 7 1 0
BITMAP
BC
E4
44
D4
C4
84
9C
ENDCHAR
STARTCHAR FB40
ENCODING 64320
SWIDTH 288 0
DWIDTH 4 0
BBX 4 7 0 0
BITMAP
60
30
10
50
10
10
F0
ENDCHAR
STARTCHAR FB41
ENCODING 64321
SWIDTH 504 0
DWIDTH 7 0
BBX 6 7 1 0
BITMAP
78
84
84
B4
84
CC
78
ENDCHAR
STARTCHAR FB43
ENCODING 64323
SWIDTH 504 0
DWIDTH 7 0
BBX 6 10 1 -3
BITMAP
F8
8C
84
94
44
04
04
04
04
04
ENDCHAR
STARTCHAR FB44
ENCODING 64324
SWIDTH 504 0
DWIDTH 7 0
BBX 6 7 1 0
BITMAP
F8
8C
84
D4
0C
08
F0
ENDCHAR
STARTCHAR FB46
ENCODING 64326
SWIDTH 432 0
DWIDTH 6 0
BBX 6 7 0 0
BITMAP
44
6C
2C
78
10
08
FC
ENDCHAR
STARTCHAR FB47
ENCODING 64327
SWIDTH 504 0
DWIDTH 7 0
BBX 6 10 1 -3
BITMAP
FC
04
04
A8
98
90
90
80
80
80
ENDCHAR
STARTCHAR FB48
ENCODING 64328
SWIDTH 504 0
DWIDTH 7 0
BBX 6 7 0 0
BITMAP
F8
0C
04
24
04
04
04
ENDCHAR
STARTCHAR FB49
ENCODING 64329
SWIDTH 648 0
DWIDTH 9 0
BBX 8 7 1 0
BITMAP
91
91
93
F3
82
46
7C
ENDCHAR
STARTCHAR FB4A
ENCODING 64330
SWIDTH 576 0
DWIDTH 8 0
BBX 8 7 0 0
BITMAP
7E
23
21
29
21
21
E1
ENDCHAR
STARTCHAR FB4B
ENCODING 64331
SWIDTH 216 0
DWIDTH 3 0
BBX 1 9 1 0
BITMAP
80
00
80
80
80
80
80
80
80
ENDCHAR
STARTCHAR FB4C
ENCODING 64332
SWIDTH 504 0
DWIDTH 7 0
BBX 7 9 0 0
BITMAP
38
00
78
0C
04
04
04
04
FE
ENDCHAR
STARTCHAR FB4D
ENCODING 64333
SWIDTH 432 0
DWIDTH 6 0
BBX 5 9 1 0
BITMAP
60
00
F0
10
18
18
18
10
E0
ENDCHAR
STARTCHAR FB4E
ENCODING 64334
SWIDTH 504 0
DWIDTH 7 0
BBX 6 9 1 0
BITMAP
70
00
F8
8C
84
E4
0C
08
F0
ENDCHAR
STARTCHAR FB4F
ENCODING 64335
SWIDTH 576 0
DWIDTH 8 0
BBX 7 10 0 0
BITMAP
C0
C0
C0
E2
32
36
6C
6C
46
42
ENDCHAR
STARTCHAR FB56
ENCODING 64342
SWIDTH 648 0
DWIDTH 9 0
BBX 9 8 1 -1
BITMAP
0080
8080
8080
7F80
0000
0400
1800
0400
ENDCHAR
STARTCHAR FB57
ENCODING 64343
SWIDTH 648 0
DWIDTH 9 0
BBX 9 8 1 -1
BITMAP
0080
8080
8080
7F80
0000
0400
1800
0400
ENDCHAR
STARTCHAR FB58
ENCODING 64344
SWIDTH 216 0
DWIDTH 3 0
BBX 4 8 0 -2
BITMAP
10
10
10
F0
00
20
A0
20
ENDCHAR
STARTCHAR FB59
ENCODING 64345
SWIDTH 216 0
DWIDTH 3 0
BBX 4 8 0 -2
BITMAP
10
10
10
F0
00
20
A0
20
ENDCHAR
STARTCHAR FB7A
ENCODING 64378
SWIDTH 504 0
DWIDTH 7 0
BBX 7 9 0 -3
BITMAP
7E
1C
20
CC
90
8C
80
60
3E
ENDCHAR
STARTCHAR FB7B
ENCODING 64379
SWIDTH 504 0
DWIDTH 7 0
BBX 8 9 0 -3
BITMAP
7E
1C
28
C7
98
A0
90
60
3E
ENDCHAR
STARTCHAR FB7C
ENCODING 64380
SWIDTH 504 0
DWIDTH 7 0
BBX 8 8 0 -2
BITMAP
30
1C
06
FF
00
08
38
08
ENDCHAR
STARTCHAR FB7D
ENCODING 64381
SWIDTH 504 0
DWIDTH 7 0
BBX 8 8 0 -2
BITMAP
30
1C
06
FF
00
08
38
08
ENDCHAR
STARTCHAR FB8A
ENCODING 64394
SWIDTH 432 0
DWIDTH 6 0
BBX 6 11 1 -1
BITMAP
18
04
14
00
04
04
04
04
04
0C
F8
ENDCHAR
STARTCHAR FB8B
ENCODING 64395
SWIDTH 432 0
DWIDTH 6 0
BBX 6 11 1 -1
BITMAP
18
04
14
00
04
04
04
04
04
0C
F8
ENDCHAR
STARTCHAR FB8E
ENCODING 64398
SWIDTH 792 0
DWIDTH 11 0
BBX 11 8 1 2
BITMAP
00C0
0180
0200
0300
0180
8040
8020
FFE0
ENDCHAR
STARTCHAR FB8F
ENCODING 64399
SWIDTH 864 0
DWIDTH 12 0
BBX 12 8 1 2
BITMAP
00C0
0180
0200
0300
0180
80C0
8120
FF30
ENDCHAR
STARTCHAR FB90
ENCODING 64400
SWIDTH 360 0
DWIDTH 5 0
BBX 6 8 0 2
BITMAP
18
30
40
60
10
08
04
FC
ENDCHAR
STARTCHAR FB91
ENCODING 64401
SWIDTH 504 0
DWIDTH 7 0
BBX 8 8 0 2
BITMAP
18
30
40
60
10
18
14
E3
ENDCHAR
STARTCHAR FB92
ENCODING 64402
SWIDTH 792 0
DWIDTH 11 0
BBX 11 10 1 2
BITMAP
0040
0180
02C0
0180
0200
0300
0180
8040
8020
FFE0
ENDCHAR
STARTCHAR FB93
ENCODING 64403
SWIDTH 864 0
DWIDTH 12 0
BBX 12 10 1 2
BITMAP
0040
0180
02C0
0180
0200
0300
0180
80C0
8120
FF30
ENDCHAR
STARTCHAR FB94
ENCODING 64404
SWIDTH 360 0
DWIDTH 5 0
BBX 6 10 0 2
BITMAP
08
30
58
30
40
60
10
08
04
FC
ENDCHAR
STARTCHAR FB95
ENCODING 64405
SWIDTH 504 0
DWIDTH 7 0
BBX 8 10 0 2
BITMAP
08
30
58
30
40
60
10
18
14
E3
ENDCHAR
STARTCHAR FBFC
ENCODING 64508
SWIDTH 576 0
DWIDTH 8 0
BBX 8 7 0 -1
BITMAP
03
44
88
87
81
7E
30
ENDCHAR
STARTCHAR FBFD
ENCODING 64509
SWIDTH 576 0
DWIDTH 8 0
BBX 8 5 1 -1
BITMAP
8F
88
86
FC
30
ENDCHAR
STARTCHAR FBFE
ENCODING 64510
SWIDTH 216 0
DWIDTH 3 0
BBX 4 7 0 -1
BITMAP
10
10
10
F0
00
30
40
ENDCHAR
STARTCHAR FBFF
ENCODING 64511
SWIDTH 216 0
DWIDTH 3 0
BBX 4 7 0 -1
BITMAP
10
10
10
F0
00
30
40
ENDCHAR
STARTCHAR FC5E
ENCODING 64606
SWIDTH 216 0
DWIDTH 3 0
BBX 3 4 0 8
BITMAP
20
A0
40
60
ENDCHAR
STARTCHAR FC5F
ENCODING 64607
SWIDTH 144 0
DWIDTH 2 0
BBX 2 3 1 9
BITMAP
C0
40
40
ENDCHAR
STARTCHAR FC60
ENCODING 64608
SWIDTH 144 0
DWIDTH 2 0
BBX 2 3 1 8
BITMAP
40
00
C0
ENDCHAR
STARTCHAR FC61
ENCODING 64609
SWIDTH 144 0
DWIDTH 2 0
BBX 2 3 1 8
BITMAP
40
80
C0
ENDCHAR
STARTCHAR FC62
ENCODING 64610
SWIDTH 144 0
DWIDTH 2 0
BBX 3 2 0 9
BITMAP
E0
20
ENDCHAR
STARTCHAR FD3E
ENCODING 64830
SWIDTH 288 0
DWIDTH 4 0
BBX 3 14 1 -3
BITMAP
20
40
40
C0
80
80
80
80
80
80
C0
40
40
20
ENDCHAR
STARTCHAR FD3F
ENCODING 64831
SWIDTH 288 0
DWIDTH 4 0
BBX 3 12 1 -2
BITMAP
80
C0
40
40
40
60
60
40
40
40
40
80
ENDCHAR
STARTCHAR FDF2
ENCODING 65010
SWIDTH 576 0
DWIDTH 8 0
BBX 8 9 0 2
BITMAP
08
00
04
08
05
25
35
55
FF
ENDCHAR
STARTCHAR FE80
ENCODING 65152
SWIDTH 360 0
DWIDTH 5 0
BBX 4 4 1 2
BITMAP
E0
80
F0
80
ENDCHAR
STARTCHAR FE81
ENCODING 65153
SWIDTH 144 0
DWIDTH 2 0
BBX 1 8 1 2
BITMAP
80
80
80
80
80
80
80
80
ENDCHAR
STARTCHAR FE82
ENCODING 65154
SWIDTH 216 0
DWIDTH 3 0
BBX 3 9 1 2
BITMAP
80
80
80
80
80
80
80
80
60
ENDCHAR
STARTCHAR FE83
ENCODING 65155
SWIDTH 144 0
DWIDTH 2 0
BBX 1 9 1 2
BITMAP
80
80
80
80
80
80
80
80
80
ENDCHAR
STARTCHAR FE84
ENCODING 65156
SWIDTH 216 0
DWIDTH 3 0
BBX 3 10 1 2
BITMAP
80
80
80
80
80
80
80
80
80
60
ENDCHAR
STARTCHAR FE85
ENCODING 65157
SWIDTH 432 0
DWIDTH 6 0
BBX 5 9 1 -1
BITMAP
10
30
00
18
18
18
08
08
F0
ENDCHAR
STARTCHAR FE86
ENCODING 65158
SWIDTH 432 0
DWIDTH 6 0
BBX 5 9 1 -1
BITMAP
10
30
00
18
18
18
08
08
F0
ENDCHAR
STARTCHAR FE87
ENCODING 65159
SWIDTH 144 0
DWIDTH 2 0
BBX 1 11 1 -1
BITMAP
80
80
80
80
80
80
80
00
00
80
80
ENDCHAR
STARTCHAR FE88
ENCODING 65160
SWIDTH 216 0
DWIDTH 3 0
BBX 3 11 1 -1
BITMAP
80
80
80
80
80
80
80
60
00
80
C0
ENDCHAR
STARTCHAR FE89
ENCODING 65161
SWIDTH 576 0
DWIDTH 8 0
BBX 8 9 0 -1
BITMAP
40
40
03
44
88
87
81
7E
30
ENDCHAR
STARTCHAR FE8A
ENCODING 65162
SWIDTH 576 0
DWIDTH 8 0
BBX 8 9 1 -2
BITMAP
40
C0
00
00
8F
88
86
FC
30
ENDCHAR
STARTCHAR FE8B
ENCODING 65163
SWIDTH 216 0
DWIDTH 3 0
BBX 4 6 0 3
BITMAP
40
00
10
10
10
F0
ENDCHAR
STARTCHAR FE8C
ENCODING 65164
SWIDTH 216 0
DWIDTH 3 0
BBX 4 6 0 3
BITMAP
40
00
10
10
10
F0
ENDCHAR
STARTCHAR FE8D
ENCODING 65165
SWIDTH 144 0
DWIDTH 2 0
BBX 1 7 1 2
BITMAP
80
80
80
80
80
80
80
ENDCHAR
STARTCHAR FE8E
ENCODING 65166
SWIDTH 216 0
DWIDTH 3 0
BBX 3 8 1 2
BITMAP
80
80
80
80
80
80
80
60
ENDCHAR
STARTCHAR FE8F
ENCODING 65167
SWIDTH 648 0
DWIDTH 9 0
BBX 9 6 1 0
BITMAP
0080
8080
8080
7F80
0000
0800
ENDCHAR
STARTCHAR FE90
ENCODING 65168
SWIDTH 648 0
DWIDTH 9 0
BBX 9 6 1 0
BITMAP
0080
8080
8080
7F80
0000
0800
ENDCHAR
STARTCHAR FE91
ENCODING 65169
SWIDTH 216 0
DWIDTH 3 0
BBX 4 7 0 -1
BITMAP
10
10
10
F0
00
20
20
ENDCHAR
STARTCHAR FE92
ENCODING 65170
SWIDTH 216 0
DWIDTH 3 0
BBX 4 7 0 -1
BITMAP
10
10
10
F0
00
20
20
ENDCHAR
STARTCHAR FE93
ENCODING 65171
SWIDTH 216 0
DWIDTH 3 0
BBX 4 7 0 2
BITMAP
20
A0
00
40
70
90
60
ENDCHAR
STARTCHAR FE94
ENCODING 65172
SWIDTH 360 0
DWIDTH 5 0
BBX 5 8 1 3
BITMAP
A0
00
20
20
E0
E0
20
18
ENDCHAR
STARTCHAR FE95
ENCODING 65173
SWIDTH 648 0
DWIDTH 9 0
BBX 9 7 1 2
BITMAP
0400
1C00
0000
0080
8080
8080
7F80
ENDCHAR
STARTCHAR FE96
ENCODING 65174
SWIDTH 648 0
DWIDTH 9 0
BBX 9 7 1 2
BITMAP
0400
1C00
0000
0080
8080
8080
7F80
ENDCHAR
STARTCHAR FE97
ENCODING 65175
SWIDTH 216 0
DWIDTH 3 0
BBX 4 7 0 2
BITMAP
20
40
00
10
10
10
F0
ENDCHAR
STARTCHAR FE98
ENCODING 65176
SWIDTH 216 0
DWIDTH 3 0
BBX 4 7 0 2
BITMAP
20
40
00
10
10
10
F0
ENDCHAR
STARTCHAR FE99
ENCODING 65177
SWIDTH 648 0
DWIDTH 9 0
BBX 9 8 1 2
BITMAP
0800
0400
1C00
0000
0080
8080
8080
7F80
ENDCHAR
STARTCHAR FE9A
ENCODING 65178
SWIDTH 648 0
DWIDTH 9 0
BBX 9 8 1 2
BITMAP
0800
0400
1C00
0000
0080
8080
8080
7F80
ENDCHAR
STARTCHAR FE9B
ENCODING 65179
SWIDTH 216 0
DWIDTH 3 0
BBX 4 8 0 2
BITMAP
C0
20
40
00
10
10
10
F0
ENDCHAR
STARTCHAR FE9C
ENCODING 65180
SWIDTH 216 0
DWIDTH 3 0
BBX 4 8 0 2
BITMAP
C0
20
40
00
10
10
10
F0
ENDCHAR
STARTCHAR FE9D
ENCODING 65181
SWIDTH 504 0
DWIDTH 7 0
BBX 7 9 0 -3
BITMAP
7E
1C
20
C0
88
80
80
60
3E
ENDCHAR
STARTCHAR FE9E
ENCODING 65182
SWIDTH 504 0
DWIDTH 7 0
BBX 8 9 0 -3
BITMAP
7E
1C
28
C7
90
80
80
60
3E
ENDCHAR
STARTCHAR FE9F
ENCODING 65183
SWIDTH 504 0
DWIDTH 7 0
BBX 8 6 0 0
BITMAP
30
1C
06
FF
00
10
ENDCHAR
STARTCHAR FEA0
ENCODING 65184
SWIDTH 504 0
DWIDTH 7 0
BBX 8 6 0 0
BITMAP
30
1C
06
FF
00
10
ENDCHAR
STARTCHAR FEA1
ENCODING 65185
SWIDTH 504 0
DWIDTH 7 0
BBX 7 9 0 -3
BITMAP
7E
1C
20
C0
80
80
80
60
3E
ENDCHAR
STARTCHAR FEA2
ENCODING 65186
SWIDTH 504 0
DWIDTH 7 0
BBX 8 9 0 -3
BITMAP
7E
1C
28
C7
80
80
80
60
3E
ENDCHAR
STARTCHAR FEA3
ENCODING 65187
SWIDTH 504 0
DWIDTH 7 0
BBX 8 4 0 2
BITMAP
30
1C
06
FF
ENDCHAR
STARTCHAR FEA4
ENCODING 65188
SWIDTH 504 0
DWIDTH 7 0
BBX 8 4 0 2
BITMAP
30
1C
06
FF
ENDCHAR
STARTCHAR FEA5
ENCODING 65189
SWIDTH 504 0
DWIDTH 7 0
BBX 7 12 0 -3
BITMAP
10
00
00
7E
1C
20
C0
80
80
80
60
3E
ENDCHAR
STARTCHAR FEA6
ENCODING 65190
SWIDTH 504 0
DWIDTH 7 0
BBX 8 12 0 -3
BITMAP
10
00
00
7E
1C
28
C7
80
80
80
60
3E
ENDCHAR
STARTCHAR FEA7
ENCODING 65191
SWIDTH 504 0
DWIDTH 7 0
BBX 8 7 0 2
BITMAP
10
00
00
30
1C
06
FF
ENDCHAR
STARTCHAR FEA8
ENCODING 65192
SWIDTH 504 0
DWIDTH 7 0
BBX 8 7 0 2
BITMAP
10
00
00
30
1C
06
FF
ENDCHAR
STARTCHAR FEA9
ENCODING 65193
SWIDTH 288 0
DWIDTH 4 0
BBX 4 5 1 3
BITMAP
20
10
10
10
F0
ENDCHAR
STARTCHAR FEAA
ENCODING 65194
SWIDTH 288 0
DWIDTH 4 0
BBX 4 5 1 3
BITMAP
20
10
10
10
F0
ENDCHAR
STARTCHAR FEAB
ENCODING 65195
SWIDTH 288 0
DWIDTH 4 0
BBX 4 8 1 3
BITMAP
40
00
00
20
10
10
10
F0
ENDCHAR
STARTCHAR FEAC
ENCODING 65196
SWIDTH 288 0
DWIDTH 4 0
BBX 4 8 1 3
BITMAP
40
00
00
20
10
10
10
F0
ENDCHAR
STARTCHAR FEAD
ENCODING 65197
SWIDTH 432 0
DWIDTH 6 0
BBX 6 7 1 -1
BITMAP
04
04
04
04
04
0C
F8
ENDCHAR
STARTCHAR FEAE
ENCODING 65198
SWIDTH 432 0
DWIDTH 6 0
BBX 6 7 1 -1
BITMAP
04
04
04
04
04
0C
F8
ENDCHAR
STARTCHAR FEAF
ENCODING 65199
SWIDTH 432 0
DWIDTH 6 0
BBX 6 10 1 -1
BITMAP
08
08
00
04
04
04
04
04
0C
F8
ENDCHAR
STARTCHAR FEB0
ENCODING 65200
SWIDTH 432 0
DWIDTH 6 0
BBX 6 10 1 -1
BITMAP
08
08
00
04
04
04
04
04
0C
F8
ENDCHAR
STARTCHAR FEB1
ENCODING 65201
SWIDTH 792 0
DWIDTH 11 0
BBX 11 6 1 0
BITMAP
0220
82A0
83E0
8200
8400
7800
ENDCHAR
STARTCHAR FEB2
ENCODING 65202
SWIDTH 792 0
DWIDTH 11 0
BBX 11 6 1 0
BITMAP
0220
82A0
83E0
8200
8400
7800
ENDCHAR
STARTCHAR FEB3
ENCODING 65203
SWIDTH 504 0
DWIDTH 7 0
BBX 8 3 0 3
BITMAP
21
25
FF
ENDCHAR
STARTCHAR FEB4
ENCODING 65204
SWIDTH 504 0
DWIDTH 7 0
BBX 8 3 0 3
BITMAP
21
25
FF
ENDCHAR
STARTCHAR FEB5
ENCODING 65205
SWIDTH 792 0
DWIDTH 11 0
BBX 11 11 1 -1
BITMAP
0080
00C0
01C0
0000
0000
0220
82A0
83E0
8200
8400
7800
ENDCHAR
STARTCHAR FEB6
ENCODING 65206
SWIDTH 792 0
DWIDTH 11 0
BBX 11 11 1 -1
BITMAP
0080
00C0
01C0
0000
0000
0220
82A0
83E0
8200
8400
7800
ENDCHAR
STARTCHAR FEB7
ENCODING 65207
SWIDTH 504 0
DWIDTH 7 0
BBX 8 8 0 2
BITMAP
04
02
0E
00
00
21
25
FF
ENDCHAR
STARTCHAR FEB8
ENCODING 65208
SWIDTH 504 0
DWIDTH 7 0
BBX 8 8 0 2
BITMAP
04
02
0E
00
00
21
25
FF
ENDCHAR
STARTCHAR FEB9
ENCODING 65209
SWIDTH 1080 0
DWIDTH 15 0
BBX 15 7 1 -1
BITMAP
000C
023E
8242
83FE
8200
8400
7800
ENDCHAR
STARTCHAR FEBA
ENCODING 65210
SWIDTH 1080 0
DWIDTH 15 0
BBX 15 7 1 -1
BITMAP
000C
023E
8242
83FE
8200
8400
7800
ENDCHAR
STARTCHAR FEBB
ENCODING 65211
SWIDTH 792 0
DWIDTH 11 0
BBX 12 4 0 2
BITMAP
0060
20F0
3310
FFF0
ENDCHAR
STARTCHAR FEBC
ENCODING 65212
SWIDTH 792 0
DWIDTH 11 0
BBX 12 4 0 2
BITMAP
0060
20F0
3310
FFF0
ENDCHAR
STARTCHAR FEBD
ENCODING 65213
SWIDTH 1080 0
DWIDTH 15 0
BBX 15 9 1 -1
BITMAP
0040
0000
000C
023E
8242
83FE
8200
8400
7800
ENDCHAR
STARTCHAR FEBE
ENCODING 65214
SWIDTH 1080 0
DWIDTH 15 0
BBX 15 9 1 -1
BITMAP
0040
0000
000C
023E
8242
83FE
8200
8400
7800
ENDCHAR
STARTCHAR FEBF
ENCODING 65215
SWIDTH 792 0
DWIDTH 11 0
BBX 12 6 0 2
BITMAP
0300
0000
0060
20F0
3310
FFF0
ENDCHAR
STARTCHAR FEC0
ENCODING 65216
SWIDTH 792 0
DWIDTH 11 0
BBX 12 6 0 2
BITMAP
0300
0000
0060
20F0
3310
FFF0
ENDCHAR
STARTCHAR FEC1
ENCODING 65217
SWIDTH 576 0
DWIDTH 8 0
BBX 9 9 0 2
BITMAP
2000
3000
2000
1000
1000
1300
1F00
2180
FF80
ENDCHAR
STARTCHAR FEC2
ENCODING 65218
SWIDTH 576 0
DWIDTH 8 0
BBX 9 9 0 2
BITMAP
2000
3000
2000
1000
1000
1300
1F00
2180
FF80
ENDCHAR
STARTCHAR FEC3
ENCODING 65219
SWIDTH 576 0
DWIDTH 8 0
BBX 9 9 0 2
BITMAP
2000
3000
2000
1000
1000
1300
1F00
2180
FF80
ENDCHAR
STARTCHAR FEC4
ENCODING 65220
SWIDTH 576 0
DWIDTH 8 0
BBX 9 9 0 2
BITMAP
2000
3000
2000
1000
1000
1300
1F00
2180
FF80
ENDCHAR
STARTCHAR FEC5
ENCODING 65221
SWIDTH 576 0
DWIDTH 8 0
BBX 9 9 0 2
BITMAP
2000
3000
2400
1000
1000
1300
1F00
2180
FF80
ENDCHAR
STARTCHAR FEC6
ENCODING 65222
SWIDTH 576 0
DWIDTH 8 0
BBX 9 9 0 2
BITMAP
2000
3000
2400
1000
1000
1300
1F00
2180
FF80
ENDCHAR
STARTCHAR FEC7
ENCODING 65223
SWIDTH 576 0
DWIDTH 8 0
BBX 9 9 0 2
BITMAP
2000
3000
2400
1000
1000
1300
1F00
2180
FF80
ENDCHAR
STARTCHAR FEC8
ENCODING 65224
SWIDTH 576 0
DWIDTH 8 0
BBX 9 9 0 2
BITMAP
2000
3000
2400
1000
1000
1300
1F00
2180
FF80
ENDCHAR
STARTCHAR FEC9
ENCODING 65225
SWIDTH 504 0
DWIDTH 7 0
BBX 6 10 0 -3
BITMAP
70
80
CC
70
40
80
80
80
60
3C
ENDCHAR
STARTCHAR FECA
ENCODING 65226
SWIDTH 432 0
DWIDTH 6 0
BBX 7 9 0 -3
BITMAP
30
38
38
4E
80
80
80
60
3C
ENDCHAR
STARTCHAR FECB
ENCODING 65227
SWIDTH 504 0
DWIDTH 7 0
BBX 7 5 0 2
BITMAP
10
7C
40
66
F8
ENDCHAR
STARTCHAR FECC
ENCODING 65228
SWIDTH 360 0
DWIDTH 5 0
BBX 6 4 0 2
BITMAP
38
78
30
EC
ENDCHAR
STARTCHAR FECD
ENCODING 65229
SWIDTH 504 0
DWIDTH 7 0
BBX 6 13 0 -3
BITMAP
20
00
00
70
80
CC
70
40
80
80
80
60
3C
ENDCHAR
STARTCHAR FECE
ENCODING 65230
SWIDTH 432 0
DWIDTH 6 0
BBX 7 12 0 -3
BITMAP
10
10
00
30
38
38
4E
80
80
80
60
3C
ENDCHAR
STARTCHAR FECF
ENCODING 65231
SWIDTH 504 0
DWIDTH 7 0
BBX 7 7 0 2
BITMAP
10
10
10
7C
40
66
F8
ENDCHAR
STARTCHAR FED0
ENCODING 65232
SWIDTH 360 0
DWIDTH 5 0
BBX 6 7 0 2
BITMAP
20
00
00
38
78
30
EC
ENDCHAR
STARTCHAR FED1
ENCODING 65233
SWIDTH 720 0
DWIDTH 10 0
BBX 10 7 1 2
BITMAP
0180
0000
8040
80C0
80C0
80C0
7FC0
ENDCHAR
STARTCHAR FED2
ENCODING 65234
SWIDTH 720 0
DWIDTH 10 0
BBX 10 7 1 2
BITMAP
0180
0000
8040
80C0
80C0
80C0
7FC0
ENDCHAR
STARTCHAR FED3
ENCODING 65235
SWIDTH 216 0
DWIDTH 3 0
BBX 4 8 0 2
BITMAP
20
00
20
70
50
70
10
F0
ENDCHAR
STARTCHAR FED4
ENCODING 65236
SWIDTH 216 0
DWIDTH 3 0
BBX 4 8 0 2
BITMAP
20
00
00
30
50
70
10
F0
ENDCHAR
STARTCHAR FED5
ENCODING 65237
SWIDTH 576 0
DWIDTH 8 0
BBX 8 10 1 -1
BITMAP
0E
08
00
06
0A
87
81
81
86
7C
ENDCHAR
STARTCHAR FED6
ENCODING 65238
SWIDTH 576 0
DWIDTH 8 0
BBX 8 10 1 -1
BITMAP
0E
08
00
06
0A
87
81
81
86
7C
ENDCHAR
STARTCHAR FED7
ENCODING 65239
SWIDTH 216 0
DWIDTH 3 0
BBX 4 8 0 2
BITMAP
70
40
20
70
50
70
10
F0
ENDCHAR
STARTCHAR FED8
ENCODING 65240
SWIDTH 216 0
DWIDTH 3 0
BBX 4 8 0 2
BITMAP
50
40
00
30
50
70
10
F0
ENDCHAR
STARTCHAR FED9
ENCODING 65241
SWIDTH 576 0
DWIDTH 8 0
BBX 8 8 1 3
BITMAP
03
0A
12
1A
81
99
81
FF
ENDCHAR
STARTCHAR FEDA
ENCODING 65242
SWIDTH 576 0
DWIDTH 8 0
BBX 8 8 1 3
BITMAP
03
0A
12
1A
81
99
81
FF
ENDCHAR
STARTCHAR FEDB
ENCODING 65243
SWIDTH 360 0
DWIDTH 5 0
BBX 6 8 0 2
BITMAP
18
30
40
60
10
08
04
FC
ENDCHAR
STARTCHAR FEDC
ENCODING 65244
SWIDTH 360 0
DWIDTH 5 0
BBX 6 8 0 2
BITMAP
18
30
40
60
10
08
04
FC
ENDCHAR
STARTCHAR FEDD
ENCODING 65245
SWIDTH 504 0
DWIDTH 7 0
BBX 7 10 1 1
BITMAP
04
04
04
04
04
84
84
82
8C
78
ENDCHAR
STARTCHAR FEDE
ENCODING 65246
SWIDTH 504 0
DWIDTH 7 0
BBX 7 10 1 1
BITMAP
04
04
04
04
04
84
84
82
8C
78
ENDCHAR
STARTCHAR FEDF
ENCODING 65247
SWIDTH 144 0
DWIDTH 2 0
BBX 3 8 0 3
BITMAP
20
20
20
20
20
20
20
E0
ENDCHAR
STARTCHAR FEE0
ENCODING 65248
SWIDTH 144 0
DWIDTH 2 0
BBX 3 8 0 3
BITMAP
20
20
20
20
20
20
20
E0
ENDCHAR
STARTCHAR FEE1
ENCODING 65249
SWIDTH 288 0
DWIDTH 4 0
BBX 4 7 1 -3
BITMAP
60
10
F0
80
80
80
80
ENDCHAR
STARTCHAR FEE2
ENCODING 65250
SWIDTH 288 0
DWIDTH 4 0
BBX 4 7 1 -3
BITMAP
60
10
F0
80
80
80
80
ENDCHAR
STARTCHAR FEE3
ENCODING 65251
SWIDTH 360 0
DWIDTH 5 0
BBX 6 4 0 2
BITMAP
08
14
34
EC
ENDCHAR
STARTCHAR FEE4
ENCODING 65252
SWIDTH 360 0
DWIDTH 5 0
BBX 6 4 0 2
BITMAP
08
14
34
EC
ENDCHAR
STARTCHAR FEE5
ENCODING 65253
SWIDTH 504 0
DWIDTH 7 0
BBX 7 9 1 -1
BITMAP
10
10
00
02
82
82
82
84
78
ENDCHAR
STARTCHAR FEE6
ENCODING 65254
SWIDTH 504 0
DWIDTH 7 0
BBX 7 9 1 -1
BITMAP
10
10
00
02
82
82
82
84
78
ENDCHAR
STARTCHAR FEE7
ENCODING 65255
SWIDTH 216 0
DWIDTH 3 0
BBX 4 7 0 2
BITMAP
20
20
00
10
10
10
F0
ENDCHAR
STARTCHAR FEE8
ENCODING 65256
SWIDTH 216 0
DWIDTH 3 0
BBX 4 7 0 2
BITMAP
20
20
00
10
10
10
F0
ENDCHAR
STARTCHAR FEE9
ENCODING 65257
SWIDTH 216 0
DWIDTH 3 0
BBX 4 4 0 2
BITMAP
40
60
90
E0
ENDCHAR
STARTCHAR FEEA
ENCODING 65258
SWIDTH 360 0
DWIDTH 5 0
BBX 5 6 1 2
BITMAP
20
20
E0
E0
20
18
ENDCHAR
STARTCHAR FEEB
ENCODING 65259
SWIDTH 432 0
DWIDTH 6 0
BBX 6 5 0 3
BITMAP
30
38
58
34
DC
ENDCHAR
STARTCHAR FEEC
ENCODING 65260
SWIDTH 360 0
DWIDTH 5 0
BBX 6 7 0 -1
BITMAP
10
30
50
FC
50
28
10
ENDCHAR
STARTCHAR FEED
ENCODING 65261
SWIDTH 432 0
DWIDTH 6 0
BBX 5 6 1 -1
BITMAP
18
18
18
08
08
F0
ENDCHAR
STARTCHAR FEEE
ENCODING 65262
SWIDTH 432 0
DWIDTH 6 0
BBX 5 6 1 -1
BITMAP
18
18
18
08
08
F0
ENDCHAR
STARTCHAR FEEF
ENCODING 65263
SWIDTH 576 0
DWIDTH 8 0
BBX 8 7 0 -1
BITMAP
03
44
88
87
81
7E
30
ENDCHAR
STARTCHAR FEF0
ENCODING 65264
SWIDTH 576 0
DWIDTH 8 0
BBX 8 5 1 -1
BITMAP
8F
88
86
FC
30
ENDCHAR
STARTCHAR FEF1
ENCODING 65265
SWIDTH 576 0
DWIDTH 8 0
BBX 8 9 0 -3
BITMAP
03
44
88
87
81
7E
30
0C
10
ENDCHAR
STARTCHAR FEF2
ENCODING 65266
SWIDTH 576 0
DWIDTH 8 0
BBX 8 6 1 -2
BITMAP
8F
88
86
FC
30
28
ENDCHAR
STARTCHAR FEF3
ENCODING 65267
SWIDTH 216 0
DWIDTH 3 0
BBX 4 7 0 -1
BITMAP
10
10
10
F0
00
30
40
ENDCHAR
STARTCHAR FEF4
ENCODING 65268
SWIDTH 216 0
DWIDTH 3 0
BBX 4 7 0 -1
BITMAP
10
10
10
F0
00
30
40
ENDCHAR
STARTCHAR FEF5
ENCODING 65269
SWIDTH 504 0
DWIDTH 7 0
BBX 6 10 1 1
BITMAP
80
88
84
C8
28
28
18
18
28
38
ENDCHAR
STARTCHAR FEF6
ENCODING 65270
SWIDTH 576 0
DWIDTH 8 0
BBX 8 9 1 2
BITMAP
80
84
E4
54
14
04
0C
1C
F3
ENDCHAR
STARTCHAR FEF7
ENCODING 65271
SWIDTH 504 0
DWIDTH 7 0
BBX 7 11 0 1
BITMAP
80
80
44
42
64
14
14
0C
0C
14
1C
ENDCHAR
STARTCHAR FEF8
ENCODING 65272
SWIDTH 576 0
DWIDTH 8 0
BBX 9 10 0 2
BITMAP
8000
0000
4200
7200
2A00
0A00
0200
0600
0E00
7980
ENDCHAR
STARTCHAR FEF9
ENCODING 65273
SWIDTH 504 0
DWIDTH 7 0
BBX 6 11 1 -2
BITMAP
88
84
C8
28
28
18
18
28
38
00
40
ENDCHAR
STARTCHAR FEFA
ENCODING 65274
SWIDTH 576 0
DWIDTH 8 0
BBX 8 11 1 -2
BITMAP
84
E4
54
14
04
0C
1C
73
80
00
80
ENDCHAR
STARTCHAR FEFB
ENCODING 65275
SWIDTH 504 0
DWIDTH 7 0
BBX 6 9 1 1
BITMAP
88
84
C8
28
28
18
18
28
38
ENDCHAR
STARTCHAR FEFC
ENCODING 65276
SWIDTH 576 0
DWIDTH 8 0
BBX 8 8 1 2
BITMAP
84
E4
54
14
04
0C
1C
F3
ENDCHAR
STARTCHAR FFFC
ENCODING 65532
SWIDTH 936 0
DWIDTH 13 0
BBX 14 10 0 0
BITMAP
CCCC
8004
0000
3B90
C694
C754
2A50
11A0
8004
CCCC
ENDCHAR
ENDFONT
